<svg width="310" height="223" viewBox="0 0 310 223" fill="none" xmlns="http://www.w3.org/2000/svg">
<g clip-path="url(#clip0_78_230)">
<path d="M146.743 220.134H0V220.772H146.743V220.134Z" fill="#3F3D56"/>
<path d="M37.3022 217.909H41.4743L43.4594 201.806H37.3015L37.3022 217.909Z" fill="#FFB8B8"/>
<path d="M49.5212 221.784L36.4082 221.785L36.4079 216.716L44.4546 216.716C45.7983 216.715 47.087 217.249 48.0372 218.2C48.9873 219.151 49.5212 220.44 49.5212 221.784Z" fill="#2F2E41"/>
<path d="M15.1034 217.106L19.2394 217.658L23.3342 201.959L17.2304 201.145L15.1034 217.106Z" fill="#FFB8B8"/>
<path d="M26.7032 222.564L13.7052 220.83L14.3748 215.805L22.3509 216.869C23.6828 217.047 24.8896 217.747 25.7058 218.815C26.522 219.883 26.8808 221.231 26.7032 222.564Z" fill="#2F2E41"/>
<path d="M21.0309 151.406L44.5135 152.427L43.4925 212.017L37.3666 211.336L32.602 170.815L21.3713 214.06L15.2454 213.039L21.0309 151.406Z" fill="#2F2E41"/>
<path d="M36.686 115.992L28.5181 114.323L23.4132 151.746C23.4132 151.746 38.3876 161.621 43.1522 151.406L36.686 115.992Z" fill="#F2692E"/>
<path d="M33.1233 111.597C37.7397 111.597 41.4821 107.853 41.4821 103.234C41.4821 98.6147 37.7397 94.8703 33.1233 94.8703C28.5069 94.8703 24.7645 98.6147 24.7645 103.234C24.7645 107.853 28.5069 111.597 33.1233 111.597Z" fill="#FFB8B8"/>
<path d="M28.5182 113.949L16.6068 117.695C16.6068 117.695 22.3923 146.638 12.8632 161.621C12.8632 161.621 24.7746 174.22 29.8795 145.957C29.8795 145.957 33.9634 123.143 28.5182 113.949Z" fill="#2F2E41"/>
<path d="M36.686 115.992L45.5345 121.44C45.5345 121.44 50.2991 161.28 45.5345 165.026C40.77 168.772 36.686 115.992 36.686 115.992Z" fill="#2F2E41"/>
<path d="M49.2134 170.804C48.8508 170.459 48.5681 170.039 48.3853 169.573C48.2025 169.107 48.1241 168.606 48.1555 168.107C48.1869 167.607 48.3274 167.12 48.5671 166.681C48.8068 166.242 49.1399 165.86 49.5429 165.563L45.9454 153.94L52.0144 155.704L54.5002 166.471C54.9534 167.182 55.1304 168.034 54.9977 168.866C54.8649 169.698 54.4317 170.453 53.78 170.987C53.1284 171.521 52.3036 171.797 51.4619 171.763C50.6203 171.73 49.8202 171.388 49.2134 170.804Z" fill="#FFB8B8"/>
<path d="M18.6438 167.442C18.24 167.146 17.9059 166.766 17.665 166.327C17.4241 165.888 17.2823 165.402 17.2495 164.903C17.2167 164.403 17.2938 163.902 17.4754 163.436C17.6569 162.969 17.9384 162.549 18.3002 162.203L13.2451 151.135L19.4898 152.107L23.3328 162.468C23.8731 163.115 24.1577 163.937 24.1326 164.779C24.1074 165.622 23.7743 166.426 23.1963 167.039C22.6183 167.652 21.8357 168.032 20.9966 168.106C20.1576 168.18 19.3204 167.944 18.6438 167.442Z" fill="#FFB8B8"/>
<path d="M19.6695 118.035L16.6066 117.695L8.77905 143.233L16.6066 160.94L22.7325 157.194L15.9259 142.552L21.3712 126.889L19.6695 118.035Z" fill="#2F2E41"/>
<path d="M43.8327 121.1L45.5344 121.441L53.7022 161.281L48.257 162.983L41.7908 139.488L43.8327 121.1Z" fill="#2F2E41"/>
<path d="M27.3795 106.668C27.4921 105.846 27.8162 105.068 28.32 104.409C28.8238 103.75 29.4899 103.233 30.2532 102.91C31.8622 102.25 33.6772 102.528 35.4116 102.655C37.1459 102.781 39.0769 102.671 40.3285 101.463C41.4719 100.36 41.729 98.5287 41.1768 97.0383C40.6247 95.5479 39.3744 94.3908 37.9541 93.6788C36.5068 93.0146 34.956 92.6046 33.3697 92.4666C31.0517 92.1864 28.6714 92.1506 26.4123 92.7404C24.1531 93.3301 24.7356 94.5941 23.4117 96.5184C22.0877 98.4426 21.6911 101.064 22.7005 103.171C23.3759 104.58 24.5862 105.647 25.7648 106.673" fill="#2F2E41"/>
<path d="M214.351 198.964L214.351 198.325C215.619 198.325 216.907 198.299 218.179 198.248L218.204 198.886C216.924 198.937 215.628 198.963 214.351 198.964ZM210.499 198.89C209.224 198.84 207.929 198.764 206.653 198.663L206.703 198.026C207.971 198.127 209.257 198.202 210.524 198.252L210.499 198.89ZM222.05 198.654L222 198.018C223.266 197.917 224.547 197.788 225.808 197.635L225.884 198.269C224.615 198.423 223.325 198.552 222.05 198.654ZM202.818 198.282C201.546 198.13 200.262 197.95 199.002 197.748L199.103 197.117C200.355 197.318 201.63 197.497 202.894 197.648L202.818 198.282ZM229.699 197.731L229.598 197.1C230.849 196.898 232.116 196.666 233.363 196.413L233.49 197.038C232.235 197.294 230.959 197.527 229.699 197.731ZM195.211 197.059C193.955 196.805 192.69 196.522 191.45 196.218L191.602 195.598C192.834 195.9 194.09 196.181 195.337 196.434L195.211 197.059ZM237.25 196.192L237.097 195.573C238.333 195.268 239.577 194.935 240.795 194.582L240.972 195.195C239.746 195.551 238.493 195.886 237.25 196.192ZM187.727 195.225C186.497 194.87 185.258 194.485 184.047 194.082L184.248 193.476C185.452 193.877 186.682 194.259 187.904 194.612L187.727 195.225ZM244.651 194.047L244.449 193.442C245.653 193.039 246.866 192.606 248.054 192.155L248.28 192.751C247.084 193.206 245.863 193.642 244.651 194.047ZM180.406 192.786C179.209 192.332 178.003 191.847 176.822 191.344L177.072 190.757C178.246 191.256 179.443 191.738 180.632 192.189L180.406 192.786ZM251.844 191.314L251.594 190.727C252.76 190.228 253.931 189.7 255.074 189.156L255.348 189.733C254.198 190.28 253.018 190.812 251.844 191.314ZM173.301 189.758C172.142 189.207 170.98 188.626 169.848 188.031L170.145 187.466C171.27 188.057 172.424 188.635 173.575 189.181L173.301 189.758ZM258.787 188.01L258.49 187.446C259.614 186.854 260.739 186.232 261.835 185.598L262.155 186.15C261.052 186.789 259.918 187.415 258.787 188.01ZM166.468 186.166C165.357 185.523 164.246 184.85 163.168 184.167L163.509 183.627C164.58 184.306 165.683 184.975 166.788 185.613L166.468 186.166ZM265.446 184.155L265.105 183.616C266.174 182.938 267.247 182.228 268.293 181.504L268.655 182.029C267.603 182.758 266.523 183.473 265.446 184.155ZM159.951 182.037C158.896 181.307 157.844 180.548 156.823 179.78L157.207 179.27C158.221 180.033 159.266 180.787 160.314 181.512L159.951 182.037ZM271.778 179.776L271.394 179.266C272.406 178.505 273.418 177.71 274.404 176.904L274.808 177.398C273.815 178.21 272.796 179.01 271.778 179.776ZM153.789 177.399C152.798 176.589 151.811 175.748 150.853 174.899L151.276 174.422C152.227 175.265 153.209 176.1 154.193 176.905L153.789 177.399ZM277.741 174.901L277.318 174.423C278.269 173.58 279.215 172.707 280.131 171.827L280.573 172.287C279.651 173.173 278.698 174.052 277.741 174.901ZM148.02 172.285C147.1 171.4 146.183 170.483 145.295 169.559L145.755 169.116C146.637 170.034 147.548 170.946 148.462 171.824L148.02 172.285ZM283.298 169.562L282.839 169.119C283.718 168.204 284.592 167.257 285.436 166.305L285.913 166.729C285.064 167.687 284.184 168.64 283.298 169.562ZM142.681 166.728C141.831 165.768 140.99 164.781 140.183 163.794L140.677 163.39C141.479 164.371 142.314 165.351 143.159 166.304L142.681 166.728ZM288.413 163.793L287.919 163.389C288.726 162.403 289.521 161.389 290.285 160.375L290.794 160.759C290.026 161.779 289.225 162.8 288.413 163.793ZM137.805 160.763C137.037 159.742 136.278 158.691 135.551 157.641L136.076 157.277C136.798 158.321 137.551 159.365 138.315 160.379L137.805 160.763ZM293.052 157.63L292.527 157.267C293.252 156.219 293.964 155.143 294.643 154.071L295.182 154.413C294.498 155.492 293.781 156.575 293.052 157.63ZM133.425 154.431C132.741 153.352 132.07 152.245 131.429 151.139L131.981 150.819C132.617 151.918 133.284 153.018 133.963 154.089L133.425 154.431ZM297.183 151.111L296.631 150.792C297.269 149.687 297.893 148.557 298.484 147.434L299.048 147.731C298.453 148.862 297.826 150 297.183 151.111ZM129.568 147.77C128.974 146.64 128.394 145.483 127.845 144.33L128.421 144.055C128.967 145.201 129.543 146.351 130.133 147.472L129.568 147.77ZM300.776 144.277L300.2 144.003C300.746 142.853 301.277 141.676 301.776 140.504L302.363 140.755C301.86 141.935 301.326 143.12 300.776 144.277ZM126.263 140.825C125.76 139.649 125.276 138.45 124.824 137.26L125.42 137.033C125.87 138.215 126.35 139.406 126.849 140.574L126.263 140.825ZM303.807 137.17L303.21 136.943C303.662 135.749 304.096 134.532 304.498 133.326L305.103 133.528C304.699 134.743 304.262 135.968 303.807 137.17ZM123.527 133.629C123.12 132.416 122.734 131.177 122.377 129.949L122.99 129.771C123.344 130.991 123.728 132.221 124.132 133.427L123.527 133.629ZM306.249 129.846L305.635 129.669C305.988 128.451 306.32 127.206 306.624 125.969L307.243 126.121C306.937 127.367 306.603 128.62 306.249 129.846ZM121.379 126.225C121.072 124.982 120.787 123.717 120.531 122.464L121.157 122.336C121.411 123.581 121.694 124.838 121.998 126.072L121.379 126.225ZM308.086 122.36L307.46 122.232C307.713 120.989 307.943 119.721 308.146 118.465L308.776 118.567C308.572 119.831 308.34 121.108 308.086 122.36ZM119.837 118.672C119.633 117.411 119.451 116.127 119.297 114.855L119.93 114.778C120.083 116.042 120.264 117.318 120.467 118.569L119.837 118.672ZM309.312 114.748L308.678 114.672C308.83 113.408 308.958 112.126 309.059 110.862L309.695 110.912C309.593 112.185 309.465 113.476 309.312 114.748ZM118.91 111.019C118.807 109.744 118.728 108.449 118.677 107.171L119.314 107.145C119.365 108.415 119.443 109.701 119.546 110.968L118.91 111.019ZM309.924 107.064L309.287 107.039C309.336 105.767 309.362 104.479 309.362 103.21L309.362 102.998H310L310 103.208C310 104.487 309.974 105.783 309.924 107.064ZM119.234 103.316H118.596L118.596 103.208C118.596 101.963 118.62 100.702 118.668 99.4616L119.305 99.4862C119.258 100.719 119.234 101.971 119.234 103.21L119.234 103.316ZM309.278 99.1701C309.225 97.9026 309.146 96.6164 309.042 95.3475L309.678 95.2954C309.782 96.5729 309.862 97.8675 309.915 99.1436L309.278 99.1701ZM119.529 95.6631L118.893 95.6132C118.993 94.3349 119.121 93.0442 119.271 91.7765L119.905 91.8519C119.755 93.1112 119.629 94.3935 119.529 95.6631ZM308.654 91.5376C308.5 90.2786 308.318 89.0031 308.112 87.7467L308.742 87.6436C308.949 88.9085 309.132 90.1926 309.287 91.4603L308.654 91.5376ZM120.433 88.0591L119.803 87.9581C120.006 86.6942 120.236 85.4176 120.489 84.1643L121.115 84.2905C120.863 85.5356 120.634 86.8035 120.433 88.0591ZM307.418 83.9804C307.162 82.733 306.878 81.4765 306.573 80.2454L307.192 80.0918C307.499 81.3311 307.785 82.5963 308.043 83.852L307.418 83.9804ZM121.948 80.5528L121.328 80.4013C121.631 79.1589 121.965 77.9052 122.318 76.6749L122.932 76.8515C122.58 78.0735 122.249 79.3188 121.948 80.5528ZM305.577 76.5478C305.221 75.3285 304.836 74.099 304.431 72.8935L305.036 72.6903C305.444 73.9039 305.832 75.1417 306.189 76.3691L305.577 76.5478ZM124.065 73.1936L123.459 72.9922C123.863 71.7767 124.298 70.551 124.752 69.349L125.349 69.5747C124.898 70.7687 124.466 71.9862 124.065 73.1936ZM303.139 69.2887C302.685 68.1013 302.203 66.9105 301.705 65.7491L302.292 65.4975C302.793 66.6667 303.278 67.8655 303.735 69.0609L303.139 69.2887ZM126.778 66.0121L126.191 65.7622C126.693 64.5828 127.225 63.3971 127.774 62.2384L128.351 62.5118C127.805 63.6629 127.276 64.8406 126.778 66.0121ZM300.129 62.2689C299.583 61.1247 299.006 59.9758 298.415 58.8541L298.978 58.556C299.575 59.6853 300.156 60.8418 300.705 61.994L300.129 62.2689ZM130.064 59.0789L129.499 58.7824C130.093 57.6483 130.72 56.5103 131.36 55.3999L131.913 55.719C131.277 56.822 130.654 57.9525 130.064 59.0789ZM296.562 55.5102C295.924 54.4113 295.256 53.3119 294.576 52.2423L295.115 51.8998C295.799 52.9766 296.472 54.0834 297.114 55.1895L296.562 55.5102ZM133.896 52.4376L133.357 52.0963C134.041 51.0136 134.757 49.9303 135.484 48.8766L136.009 49.2393C135.287 50.286 134.576 51.362 133.896 52.4376ZM292.46 49.056C291.737 48.0126 290.982 46.9696 290.218 45.9566L290.727 45.572C291.496 46.5919 292.256 47.6417 292.984 48.6922L292.46 49.056ZM138.248 46.1291L137.738 45.7458C138.507 44.7218 139.307 43.7001 140.115 42.7085L140.61 43.1122C139.807 44.097 139.012 45.1121 138.248 46.1291ZM287.852 42.9487C287.048 41.9664 286.212 40.9869 285.368 40.0374L285.845 39.6132C286.694 40.569 287.536 41.5551 288.346 42.5441L287.852 42.9487ZM143.09 40.1928L142.613 39.7699C143.46 38.8123 144.338 37.8582 145.224 36.934L145.685 37.376C144.805 38.2939 143.932 39.2418 143.09 40.1928ZM282.769 37.227C281.886 36.3105 280.974 35.4006 280.058 34.5225L280.499 34.0615C281.421 34.9455 282.339 35.8615 283.228 36.7841L282.769 37.227ZM148.389 34.6656L147.947 34.2055C148.867 33.3192 149.819 32.439 150.776 31.589L151.199 32.0662C150.249 32.9106 149.304 33.7852 148.389 34.6656ZM277.241 31.9281C276.288 31.0848 275.306 30.2504 274.322 29.4482L274.726 28.9534C275.716 29.761 276.704 30.6009 277.664 31.45L277.241 31.9281ZM154.111 29.582L153.706 29.0882C154.696 28.277 155.715 27.4761 156.734 26.7075L157.118 27.2171C156.106 27.9806 155.094 28.7764 154.111 29.582ZM271.305 27.087C270.287 26.3227 269.241 25.5694 268.196 24.8482L268.558 24.3226C269.61 25.0488 270.663 25.807 271.688 26.5764L271.305 27.087ZM160.217 24.9746L159.854 24.45C160.905 23.7208 161.984 23.0043 163.061 22.3204L163.403 22.8594C162.334 23.5385 161.262 24.2502 160.217 24.9746ZM264.998 22.7356C263.922 22.0558 262.819 21.3889 261.717 20.7535L262.036 20.2006C263.144 20.8402 264.256 21.5116 265.339 22.1959L264.998 22.7356ZM166.67 20.8746L166.35 20.3223C167.453 19.6822 168.585 19.0551 169.715 18.4586L170.013 19.0231C168.89 19.6157 167.766 20.2386 166.67 20.8746ZM258.358 18.9048C257.232 18.3142 256.077 17.7383 254.927 17.1933L255.199 16.6163C256.358 17.1649 257.52 17.7447 258.654 18.3394L258.358 18.9048ZM173.427 17.3089L173.152 16.7326C174.303 16.1838 175.481 15.6505 176.655 15.1474L176.906 15.7342C175.74 16.2338 174.569 16.7636 173.427 17.3089ZM251.427 15.6219C250.255 15.1236 249.056 14.6431 247.866 14.1933L248.091 13.5961C249.29 14.0489 250.496 14.5328 251.676 15.0343L251.427 15.6219ZM180.444 14.302L180.217 13.7054C181.411 13.25 182.632 12.8127 183.845 12.4054L184.048 13.0108C182.843 13.4152 181.63 13.8497 180.444 14.302ZM244.248 12.9104C243.042 12.5103 241.812 12.1296 240.591 11.7787L240.768 11.1653C241.997 11.5185 243.235 11.9017 244.449 12.3044L244.248 12.9104ZM187.701 11.8665L187.523 11.2537C188.75 10.8965 190.002 10.5595 191.244 10.252L191.397 10.8717C190.163 11.1771 188.92 11.5119 187.701 11.8665ZM236.892 10.7966C235.66 10.4959 234.403 10.2162 233.155 9.96512L233.281 9.33923C234.537 9.59202 235.803 9.87379 237.043 10.1763L236.892 10.7966ZM195.13 10.0281L195.002 9.40279C196.253 9.14657 197.528 8.91218 198.792 8.70599L198.895 9.33594C197.639 9.54087 196.373 9.77372 195.13 10.0281ZM229.389 9.2856C228.134 9.08548 226.858 8.90813 225.597 8.75882L225.672 8.12483C226.942 8.27522 228.226 8.45367 229.489 8.65534L229.389 9.2856ZM202.684 8.79639L202.607 8.16269C203.876 8.0081 205.166 7.877 206.44 7.77353L206.492 8.40971C205.226 8.51273 203.945 8.64272 202.684 8.79639ZM221.788 8.38478C220.523 8.28613 219.238 8.21163 217.967 8.16348L217.991 7.52543C219.27 7.57406 220.564 7.64903 221.838 7.74829L221.788 8.38478ZM210.313 8.17579L210.287 7.53806C211.562 7.48538 212.858 7.45764 214.139 7.45546L214.14 8.09381C212.868 8.09599 211.58 8.12358 210.313 8.17579Z" fill="#CCCCCC"/>
<path d="M180.504 162.968C214.507 162.968 242.072 135.387 242.072 101.366C242.072 67.344 214.507 39.7639 180.504 39.7639C146.501 39.7639 118.936 67.344 118.936 101.366C118.936 135.387 146.501 162.968 180.504 162.968Z" fill="#3F3D56"/>
<path d="M158.652 146.37C176.711 146.37 191.35 126.221 191.35 101.366C191.35 76.5105 176.711 56.3613 158.652 56.3613C140.593 56.3613 125.954 76.5105 125.954 101.366C125.954 126.221 140.593 146.37 158.652 146.37Z" fill="white"/>
<path d="M147.813 125.263C152.853 125.263 156.939 118.833 156.939 110.9C156.939 102.968 152.853 96.537 147.813 96.537C142.773 96.537 138.687 102.968 138.687 110.9C138.687 118.833 142.773 125.263 147.813 125.263Z" fill="#3F3D56"/>
<path d="M301.468 73.0279C304.815 73.0279 307.529 70.3128 307.529 66.9635C307.529 63.6142 304.815 60.8991 301.468 60.8991C298.12 60.8991 295.406 63.6142 295.406 66.9635C295.406 70.3128 298.12 73.0279 301.468 73.0279Z" fill="#F2692E"/>
<path d="M231.454 17.8741C236.387 17.8741 240.386 13.8729 240.386 8.93706C240.386 4.00126 236.387 0 231.454 0C226.521 0 222.522 4.00126 222.522 8.93706C222.522 13.8729 226.521 17.8741 231.454 17.8741Z" fill="#F2692E"/>
<path d="M225.536 204.022C228.884 204.022 231.597 201.307 231.597 197.958C231.597 194.608 228.884 191.893 225.536 191.893C222.189 191.893 219.475 194.608 219.475 197.958C219.475 201.307 222.189 204.022 225.536 204.022Z" fill="#F2692E"/>
</g>
<defs>
<clipPath id="clip0_78_230">
<rect width="310" height="222.564" fill="white"/>
</clipPath>
</defs>
</svg>
