<svg width="310" height="282" viewBox="0 0 310 282" fill="none" xmlns="http://www.w3.org/2000/svg">
<g clip-path="url(#clip0_78_92)">
<path d="M178.656 281.447H89.1146C76.0905 281.447 65.496 270.838 65.496 257.797V23.6509C65.496 10.609 76.0905 0 89.1146 0H178.656C191.68 0 202.274 10.609 202.274 23.6509V257.797C202.274 270.838 191.68 281.447 178.656 281.447Z" fill="#D7D7D8"/>
<path d="M178.721 275.045H89.0496C79.4102 275.045 71.5652 267.189 71.5652 257.537V23.4512C71.5652 13.7987 79.4102 5.9429 89.0496 5.9429H178.721C188.36 5.9429 196.205 13.7987 196.205 23.4512V257.537C196.205 267.189 188.36 275.045 178.721 275.045Z" fill="white"/>
<path d="M146.561 21.5244H121.204C117.857 21.5244 115.135 18.7991 115.135 15.4469C115.135 12.0947 117.857 9.36935 121.204 9.36935H146.561C149.909 9.36935 152.631 12.0947 152.631 15.4469C152.631 18.7991 149.909 21.5244 146.561 21.5244Z" fill="#D7D7D8"/>
<path d="M139.792 129.592V146.284H91.6508C87.056 146.284 83.3143 142.541 83.3143 137.936C83.3143 133.33 87.056 129.592 91.6508 129.592H139.792Z" fill="#001C96"/>
<path d="M176.12 129.592H91.6508C87.056 129.592 83.3143 133.335 83.3143 137.936C83.3143 142.537 87.056 146.284 91.6508 146.284H176.12C180.719 146.284 184.456 142.541 184.456 137.936C184.456 133.33 180.719 129.592 176.12 129.592ZM176.12 143.498H91.6508C88.5907 143.498 86.0962 141.005 86.0962 137.936C86.0962 134.867 88.5907 132.378 91.6508 132.378H176.12C179.184 132.378 181.674 134.871 181.674 137.936C181.674 141 179.184 143.498 176.12 143.498Z" fill="#D7D7D8"/>
<path d="M310 281.447C310 281.754 309.754 282 309.448 282H0.55175C0.245737 282 0 281.754 0 281.447C0 281.141 0.245737 280.895 0.55175 280.895H309.448C309.754 280.895 310 281.141 310 281.447Z" fill="#2E2E43"/>
<path d="M243.453 250.344L235.5 255.435L242.712 266.733L250.666 261.641L243.453 250.344Z" fill="#F3A3A6"/>
<path d="M218.229 98.4758L208.181 101.911L208.024 87.3839L217.167 87.2817L218.229 98.4758Z" fill="#F3A3A6"/>
<path d="M209.197 91.3953C214.746 91.3953 219.244 86.8908 219.244 81.3342C219.244 75.7776 214.746 71.273 209.197 71.273C203.648 71.273 199.149 75.7776 199.149 81.3342C199.149 86.8908 203.648 91.3953 209.197 91.3953Z" fill="#F3A3A6"/>
<path d="M211.946 80.3081C210.268 80.2756 209.141 78.5902 208.469 77.0395C207.796 75.4981 207.106 73.7152 205.543 73.0884C204.263 72.5777 202.056 76.1434 201.036 75.2149C199.975 74.2445 200.944 69.1745 202.052 68.2598C203.16 67.3452 204.681 67.1502 206.109 67.0619C209.609 66.8623 213.128 67.1037 216.569 67.7862C218.692 68.2041 220.89 68.8495 222.434 70.3677C224.395 72.2945 224.924 75.2288 225.091 77.9727C225.267 80.7817 225.132 83.7253 223.797 86.2046C222.457 88.6793 219.624 90.5225 216.875 89.9282C216.583 88.4378 216.842 86.9103 216.935 85.3874C217.028 83.8739 216.893 82.2396 215.957 81.0417C215.02 79.8438 213.045 79.3888 211.983 80.4706" fill="#2F2E43"/>
<path d="M224.344 83.6556C225.341 82.9081 226.533 82.2767 227.771 82.416C229.111 82.5599 230.251 83.6556 230.608 84.9556C230.965 86.2557 230.594 87.695 229.783 88.7721C228.972 89.8493 227.752 90.5643 226.454 90.9311C225.703 91.1446 224.882 91.2328 224.159 90.9311C223.097 90.4853 222.513 89.1435 222.916 88.0617" fill="#2F2E43"/>
<path d="M186.955 178.705C186.325 182.015 187.581 185.024 189.77 185.419C191.953 185.813 194.239 183.445 194.874 180.135C195.148 178.816 195.088 177.451 194.698 176.156L202.427 124.267L192.014 122.428L188.587 175.06C187.748 176.137 187.187 177.386 186.955 178.719V178.705Z" fill="#F3A3A6"/>
<path d="M207.996 95.2443L200.902 95.3232C195.894 96.1357 194.564 98.8333 193.483 103.792C191.828 111.355 189.714 121.435 190.159 121.574C190.868 121.806 203.002 127.359 209.146 125.985L208 95.2443H207.996Z" fill="#F2692E"/>
<path d="M216.708 260.166L207.269 260.271L207.419 273.679L216.858 273.573L216.708 260.166Z" fill="#F3A3A6"/>
<path d="M198.292 281.902C197.295 281.916 196.418 281.902 195.751 281.847C193.238 281.647 190.831 279.818 189.612 278.75C189.065 278.272 188.884 277.492 189.158 276.823C189.352 276.345 189.751 275.978 190.252 275.825L196.859 273.856L207.509 266.488L207.63 266.702C207.676 266.781 208.752 268.67 209.118 269.952C209.257 270.439 209.229 270.843 209.025 271.159C208.886 271.377 208.691 271.507 208.534 271.586C208.728 271.786 209.34 272.194 211.223 272.473C213.958 272.881 214.51 270.031 214.529 269.91L214.547 269.812L214.626 269.757C215.92 268.898 216.713 268.512 216.991 268.591C217.167 268.638 217.45 268.726 218.312 276.452C218.391 276.693 218.957 278.467 218.604 280.175C218.224 282.032 210.133 281.48 208.52 281.355C208.473 281.359 202.427 281.861 198.282 281.902H198.296H198.292Z" fill="#2F2E43"/>
<path d="M233.144 279.674C232.036 279.688 231.016 279.562 230.288 279.442C229.574 279.321 229.009 278.759 228.888 278.044C228.795 277.529 228.948 277.014 229.287 276.624L233.849 271.451L238.987 259.556L239.204 259.672C239.283 259.714 241.194 260.749 242.186 261.641C242.561 261.98 242.751 262.337 242.751 262.718C242.751 262.978 242.654 263.192 242.557 263.336C242.83 263.401 243.563 263.419 245.306 262.662C247.842 261.557 246.804 258.846 246.757 258.739L246.72 258.646L246.762 258.563C247.407 257.151 247.879 256.399 248.153 256.316C248.329 256.269 248.612 256.181 253.429 262.282C253.624 262.444 255.043 263.647 255.646 265.281C256.299 267.059 249.154 270.876 247.708 271.623C247.666 271.66 240.197 277.218 237.127 278.81C235.908 279.442 234.457 279.651 233.135 279.66L233.149 279.674H233.144Z" fill="#2F2E43"/>
<path d="M222.397 147.932L195.969 148.224L193.845 172.869L205.348 263.721L218.841 263.568L212.864 211.089L235.277 258.284L247.175 249.741L229.593 205.643C229.593 205.643 235.273 166.996 230.367 157.44C225.466 147.885 222.402 147.918 222.402 147.918V147.932H222.397Z" fill="#2F2E43"/>
<path d="M235.555 149.288L193.581 149.756L205.571 95.2768L223.862 95.0679L235.555 149.288Z" fill="#F2692E"/>
<path d="M239.654 178.12C240.359 181.421 239.167 184.453 236.993 184.894C234.814 185.34 232.477 183.023 231.777 179.722C231.475 178.408 231.503 177.043 231.86 175.738L222.977 124.03L233.344 121.959L237.939 174.508C238.801 175.566 239.39 176.806 239.654 178.129V178.12Z" fill="#F3A3A6"/>
<path d="M216.773 95.1468L223.867 95.0679C228.888 95.7736 230.279 98.4386 231.475 103.374C233.298 110.9 235.63 120.924 235.194 121.077C234.484 121.319 222.485 127.141 216.314 125.906L216.782 95.1468H216.773Z" fill="#F2692E"/>
</g>
<defs>
<clipPath id="clip0_78_92">
<rect width="310" height="282" fill="white"/>
</clipPath>
</defs>
</svg>
