<svg width="101" height="107" viewBox="0 0 101 107" fill="none" xmlns="http://www.w3.org/2000/svg">
<rect x="15" width="70" height="70" rx="10" fill="#F2692E"/>
<path d="M0.752968 85.2793V85.1973H2.06547V85.2793C2.06547 85.8809 2.26827 86.332 2.67387 86.6328C3.07947 86.9336 3.64685 87.084 4.37601 87.084C5.10518 87.084 5.66345 86.929 6.05082 86.6191C6.43819 86.3092 6.63187 85.9036 6.63187 85.4023C6.63187 84.9466 6.44275 84.582 6.06449 84.3086C5.69079 84.0352 4.98213 83.748 3.93851 83.4473C2.85388 83.1328 2.08598 82.766 1.6348 82.3467C1.18363 81.9229 0.958046 81.3236 0.958046 80.5488C0.958046 79.7741 1.25427 79.1292 1.84672 78.6143C2.43917 78.0993 3.25948 77.8418 4.30766 77.8418C5.35583 77.8418 6.18982 78.113 6.80961 78.6553C7.4294 79.1976 7.7393 79.888 7.7393 80.7266V80.8086H6.4268V80.7266C6.4268 80.1979 6.24906 79.7718 5.89359 79.4482C5.53812 79.1247 5.00948 78.9629 4.30766 78.9629C3.60583 78.9629 3.08858 79.1019 2.7559 79.3799C2.42322 79.6579 2.25687 80.0361 2.25687 80.5146C2.25687 80.9476 2.42777 81.2894 2.76957 81.54C3.11137 81.7907 3.81547 82.0664 4.88187 82.3672C5.94828 82.668 6.72302 83.0439 7.20609 83.4951C7.68917 83.9463 7.9307 84.582 7.9307 85.4023C7.9307 86.2227 7.61169 86.8949 6.97367 87.4189C6.33565 87.943 5.46976 88.2051 4.37601 88.2051C3.28226 88.2051 2.40499 87.943 1.74418 87.4189C1.08337 86.8949 0.752968 86.1816 0.752968 85.2793ZM10.2609 85.4502V80.8086H11.5324V85.4639C11.5324 86.0381 11.66 86.4505 11.9152 86.7012C12.175 86.9473 12.5419 87.0703 13.0158 87.0703C13.4214 87.0703 13.7792 86.9609 14.0891 86.7422C14.399 86.5234 14.6405 86.2409 14.8137 85.8945V80.8086H16.0852V88H14.9367L14.882 87.0771H14.841C14.5812 87.4053 14.2622 87.665 13.884 87.8564C13.5103 88.0433 13.0956 88.1367 12.6398 88.1367C11.9152 88.1367 11.3365 87.9316 10.9035 87.5215C10.4751 87.1068 10.2609 86.4163 10.2609 85.4502ZM18.9486 88V77.5H20.2201V81.6562C20.4297 81.36 20.71 81.123 21.0609 80.9453C21.4164 80.763 21.8448 80.6719 22.3461 80.6719C23.2575 80.6719 23.9867 81.0137 24.5336 81.6973C25.0804 82.3809 25.3539 83.2467 25.3539 84.2949V84.5137C25.3539 85.5618 25.0804 86.4277 24.5336 87.1113C23.9867 87.7949 23.2575 88.1367 22.3461 88.1367C21.8448 88.1367 21.405 88.0319 21.0267 87.8223C20.653 87.6126 20.375 87.3597 20.1927 87.0635H20.1517L20.097 88H18.9486ZM20.2201 85.8672C20.3614 86.1862 20.5915 86.471 20.9105 86.7217C21.2295 86.9723 21.6169 87.0977 22.0726 87.0977C22.7562 87.0977 23.2575 86.8493 23.5765 86.3525C23.8955 85.8558 24.055 85.2428 24.055 84.5137V84.2949C24.055 83.5658 23.8955 82.9528 23.5765 82.4561C23.2575 81.9593 22.7562 81.7109 22.0726 81.7109C21.6169 81.7109 21.2295 81.8363 20.9105 82.0869C20.5915 82.3376 20.3614 82.6224 20.2201 82.9414V85.8672ZM27.7866 88V80.8086H28.9351L28.9898 81.7314H29.0308C29.286 81.4079 29.5936 81.1504 29.9536 80.959C30.3182 80.7676 30.7215 80.6719 31.1636 80.6719C31.6467 80.6719 32.0637 80.7676 32.4146 80.959C32.7655 81.1504 33.0321 81.4603 33.2144 81.8887H33.2554C33.5562 81.4603 33.8889 81.1504 34.2534 80.959C34.618 80.7676 35.0373 80.6719 35.5112 80.6719C36.2586 80.6719 36.842 80.8792 37.2612 81.2939C37.6805 81.7041 37.8902 82.3923 37.8902 83.3584V88H36.6187V83.3447C36.6187 82.7705 36.4956 82.3604 36.2495 82.1143C36.0034 81.8636 35.6548 81.7383 35.2036 81.7383C34.8117 81.7383 34.4676 81.8477 34.1714 82.0664C33.8797 82.2852 33.6473 82.5677 33.4741 82.9141V88H32.2027V83.3447C32.2027 82.7705 32.0796 82.3604 31.8335 82.1143C31.5874 81.8636 31.2388 81.7383 30.7876 81.7383C30.3957 81.7383 30.0516 81.8477 29.7554 82.0664C29.4637 82.2852 29.2313 82.5677 29.0581 82.9141V88H27.7866ZM40.7468 88V80.8086H42.0182V88H40.7468ZM40.5895 78.6348C40.5895 78.4206 40.6579 78.2406 40.7946 78.0947C40.9313 77.9489 41.1273 77.876 41.3825 77.876C41.6377 77.876 41.8337 77.9489 41.9704 78.0947C42.1071 78.2406 42.1755 78.4206 42.1755 78.6348C42.1755 78.849 42.1071 79.029 41.9704 79.1748C41.8337 79.3206 41.6377 79.3936 41.3825 79.3936C41.1273 79.3936 40.9313 79.3206 40.7946 79.1748C40.6579 79.029 40.5895 78.849 40.5895 78.6348ZM44.4784 85.8809H45.7498V85.915C45.7498 86.3298 45.9025 86.6419 46.2079 86.8516C46.5132 87.0612 46.9165 87.166 47.4178 87.166C47.9191 87.166 48.3133 87.0658 48.6004 86.8652C48.8921 86.6647 49.0379 86.4049 49.0379 86.0859C49.0379 85.7669 48.9217 85.5231 48.6893 85.3545C48.4569 85.1813 47.9533 85.0036 47.1786 84.8213C46.4038 84.639 45.7886 84.3838 45.3329 84.0557C44.8771 83.723 44.6493 83.2604 44.6493 82.668C44.6493 82.0755 44.8931 81.5833 45.3807 81.1914C45.8729 80.7995 46.5291 80.6035 47.3495 80.6035C48.1698 80.6035 48.8306 80.7995 49.3319 81.1914C49.8332 81.5788 50.0838 82.1051 50.0838 82.7705V82.8047H48.8192V82.7432C48.8192 82.4014 48.6984 82.1325 48.4569 81.9365C48.2199 81.7406 47.8508 81.6426 47.3495 81.6426C46.8482 81.6426 46.4813 81.7337 46.2489 81.916C46.021 82.0983 45.9071 82.3262 45.9071 82.5996C45.9071 82.873 46.0392 83.0895 46.3036 83.249C46.5679 83.4085 47.0874 83.5794 47.8621 83.7617C48.6369 83.944 49.2339 84.2061 49.6532 84.5479C50.077 84.8896 50.2889 85.3796 50.2889 86.0176C50.2889 86.6556 50.0496 87.1797 49.5711 87.5898C49.0926 88 48.3748 88.2051 47.4178 88.2051C46.4608 88.2051 45.7316 87.9977 45.2303 87.583C44.729 87.1637 44.4784 86.6077 44.4784 85.915V85.8809ZM52.2227 85.8809H53.4941V85.915C53.4941 86.3298 53.6468 86.6419 53.9521 86.8516C54.2575 87.0612 54.6608 87.166 55.1621 87.166C55.6634 87.166 56.0576 87.0658 56.3447 86.8652C56.6364 86.6647 56.7822 86.4049 56.7822 86.0859C56.7822 85.7669 56.666 85.5231 56.4336 85.3545C56.2012 85.1813 55.6976 85.0036 54.9229 84.8213C54.1481 84.639 53.5329 84.3838 53.0771 84.0557C52.6214 83.723 52.3936 83.2604 52.3936 82.668C52.3936 82.0755 52.6374 81.5833 53.125 81.1914C53.6172 80.7995 54.2734 80.6035 55.0938 80.6035C55.9141 80.6035 56.5749 80.7995 57.0762 81.1914C57.5775 81.5788 57.8281 82.1051 57.8281 82.7705V82.8047H56.5635V82.7432C56.5635 82.4014 56.4427 82.1325 56.2012 81.9365C55.9642 81.7406 55.5951 81.6426 55.0938 81.6426C54.5924 81.6426 54.2256 81.7337 53.9932 81.916C53.7653 82.0983 53.6514 82.3262 53.6514 82.5996C53.6514 82.873 53.7835 83.0895 54.0479 83.249C54.3122 83.4085 54.8317 83.5794 55.6064 83.7617C56.3812 83.944 56.9782 84.2061 57.3975 84.5479C57.8213 84.8896 58.0332 85.3796 58.0332 86.0176C58.0332 86.6556 57.7939 87.1797 57.3154 87.5898C56.8369 88 56.1191 88.2051 55.1621 88.2051C54.2051 88.2051 53.4759 87.9977 52.9746 87.583C52.4733 87.1637 52.2227 86.6077 52.2227 85.915V85.8809ZM60.4933 88V80.8086H61.7648V88H60.4933ZM60.3361 78.6348C60.3361 78.4206 60.4045 78.2406 60.5412 78.0947C60.6779 77.9489 60.8739 77.876 61.1291 77.876C61.3843 77.876 61.5802 77.9489 61.717 78.0947C61.8537 78.2406 61.922 78.4206 61.922 78.6348C61.922 78.849 61.8537 79.029 61.717 79.1748C61.5802 79.3206 61.3843 79.3936 61.1291 79.3936C60.8739 79.3936 60.6779 79.3206 60.5412 79.1748C60.4045 79.029 60.3361 78.849 60.3361 78.6348ZM64.2591 84.5137V84.2949C64.2591 83.2103 64.5667 82.3239 65.182 81.6357C65.7972 80.9476 66.6198 80.6035 67.6497 80.6035C68.6797 80.6035 69.5023 80.9476 70.1175 81.6357C70.7327 82.3239 71.0404 83.2103 71.0404 84.2949V84.5137C71.0404 85.5983 70.7327 86.4847 70.1175 87.1729C69.5023 87.861 68.6797 88.2051 67.6497 88.2051C66.6198 88.2051 65.7972 87.861 65.182 87.1729C64.5667 86.4847 64.2591 85.5983 64.2591 84.5137ZM65.5579 84.2949V84.5137C65.5579 85.2565 65.7334 85.8854 66.0843 86.4004C66.4352 86.9108 66.957 87.166 67.6497 87.166C68.3424 87.166 68.8642 86.9108 69.2152 86.4004C69.5661 85.8854 69.7415 85.2565 69.7415 84.5137V84.2949C69.7415 83.5521 69.5661 82.9255 69.2152 82.415C68.8642 81.9001 68.3424 81.6426 67.6497 81.6426C66.957 81.6426 66.4352 81.9001 66.0843 82.415C65.7334 82.9255 65.5579 83.5521 65.5579 84.2949ZM73.4731 88V80.8086H74.6216L74.6762 81.7314H74.7173C74.977 81.4033 75.2938 81.1458 75.6675 80.959C76.0457 80.7676 76.4627 80.6719 76.9184 80.6719C77.643 80.6719 78.2195 80.8792 78.6479 81.2939C79.0809 81.7041 79.2973 82.3923 79.2973 83.3584V88H78.0259V83.3447C78.0259 82.7705 77.896 82.3604 77.6362 82.1143C77.381 81.8636 77.0164 81.7383 76.5425 81.7383C76.1369 81.7383 75.7791 81.8477 75.4692 82.0664C75.1593 82.2852 74.9178 82.5677 74.7446 82.9141V88H73.4731ZM85.2293 79.127V78.0469H92.9402V79.127H89.741V88H88.4285V79.127H85.2293ZM93.5 84.5137V84.2949C93.5 83.2103 93.8076 82.3239 94.4228 81.6357C95.038 80.9476 95.8606 80.6035 96.8906 80.6035C97.9205 80.6035 98.7431 80.9476 99.3584 81.6357C99.9736 82.3239 100.281 83.2103 100.281 84.2949V84.5137C100.281 85.5983 99.9736 86.4847 99.3584 87.1729C98.7431 87.861 97.9205 88.2051 96.8906 88.2051C95.8606 88.2051 95.038 87.861 94.4228 87.1729C93.8076 86.4847 93.5 85.5983 93.5 84.5137ZM94.7988 84.2949V84.5137C94.7988 85.2565 94.9742 85.8854 95.3252 86.4004C95.6761 86.9108 96.1979 87.166 96.8906 87.166C97.5833 87.166 98.1051 86.9108 98.456 86.4004C98.8069 85.8854 98.9824 85.2565 98.9824 84.5137V84.2949C98.9824 83.5521 98.8069 82.9255 98.456 82.415C98.1051 81.9001 97.5833 81.6426 96.8906 81.6426C96.1979 81.6426 95.6761 81.9001 95.3252 82.415C94.9742 82.9255 94.7988 83.5521 94.7988 84.2949ZM16.9632 99.3379V98.709C16.9632 97.1777 17.3551 95.9837 18.1389 95.127C18.9274 94.2702 19.914 93.8418 21.0989 93.8418C22.2838 93.8418 23.2112 94.1676 23.8811 94.8193C24.5556 95.4665 24.8929 96.248 24.8929 97.1641V97.2324H23.5804V97.1641C23.5804 96.5306 23.3753 96.0065 22.9651 95.5918C22.555 95.1725 21.9329 94.9629 21.0989 94.9629C20.2832 94.9629 19.611 95.2705 19.0823 95.8857C18.5537 96.501 18.2893 97.4421 18.2893 98.709V99.3379C18.2893 100.505 18.5514 101.421 19.0755 102.086C19.6041 102.751 20.2786 103.084 21.0989 103.084C21.8828 103.084 22.4752 102.872 22.8763 102.448C23.2773 102.024 23.5097 101.503 23.5735 100.883L23.5804 100.814H24.8929L24.886 100.883C24.7949 101.794 24.4371 102.576 23.8128 103.228C23.1884 103.879 22.2838 104.205 21.0989 104.205C19.914 104.205 18.9274 103.777 18.1389 102.92C17.3551 102.063 16.9632 100.869 16.9632 99.3379ZM26.895 100.514V100.295C26.895 99.2103 27.2026 98.3239 27.8178 97.6357C28.433 96.9476 29.2556 96.6035 30.2856 96.6035C31.3155 96.6035 32.1381 96.9476 32.7534 97.6357C33.3686 98.3239 33.6762 99.2103 33.6762 100.295V100.514C33.6762 101.598 33.3686 102.485 32.7534 103.173C32.1381 103.861 31.3155 104.205 30.2856 104.205C29.2556 104.205 28.433 103.861 27.8178 103.173C27.2026 102.485 26.895 101.598 26.895 100.514ZM28.1938 100.295V100.514C28.1938 101.257 28.3692 101.885 28.7202 102.4C29.0711 102.911 29.5929 103.166 30.2856 103.166C30.9783 103.166 31.5001 102.911 31.851 102.4C32.2019 101.885 32.3774 101.257 32.3774 100.514V100.295C32.3774 99.5521 32.2019 98.9255 31.851 98.415C31.5001 97.9001 30.9783 97.6426 30.2856 97.6426C29.5929 97.6426 29.0711 97.9001 28.7202 98.415C28.3692 98.9255 28.1938 99.5521 28.1938 100.295ZM36.109 104V96.8086H37.2574L37.3121 97.7314H37.3531C37.6129 97.4033 37.9296 97.1458 38.3033 96.959C38.6816 96.7676 39.0986 96.6719 39.5543 96.6719C40.2789 96.6719 40.8554 96.8792 41.2838 97.2939C41.7167 97.7041 41.9332 98.3923 41.9332 99.3584V104H40.6617V99.3447C40.6617 98.7705 40.5318 98.3604 40.2721 98.1143C40.0169 97.8636 39.6523 97.7383 39.1783 97.7383C38.7727 97.7383 38.415 97.8477 38.1051 98.0664C37.7952 98.2852 37.5536 98.5677 37.3805 98.9141V104H36.109ZM43.7166 97.7793V96.8086H47.8181V97.7793H43.7166ZM45.0017 102.223V97.3965V97.1914V95.0312H46.2732V102.223C46.2732 102.542 46.337 102.77 46.4646 102.906C46.5922 103.043 46.7927 103.111 47.0662 103.111C47.1938 103.111 47.3191 103.098 47.4422 103.07C47.5652 103.043 47.6905 103.007 47.8181 102.961V104C47.6996 104.055 47.5447 104.103 47.3533 104.144C47.1619 104.185 46.9522 104.205 46.7244 104.205C46.2003 104.205 45.781 104.046 45.4666 103.727C45.1567 103.408 45.0017 102.906 45.0017 102.223ZM50.0116 104V96.8086H51.1601L51.2148 97.7314H51.2558C51.4381 97.4307 51.6773 97.1686 51.9736 96.9453C52.2698 96.7174 52.623 96.6035 53.0331 96.6035C53.1334 96.6035 53.2382 96.6149 53.3476 96.6377C53.457 96.6605 53.5344 96.681 53.58 96.6992V97.875C53.4889 97.8568 53.3932 97.8431 53.2929 97.834C53.1926 97.8249 53.0833 97.8203 52.9648 97.8203C52.5546 97.8203 52.206 97.9274 51.9189 98.1416C51.6318 98.3558 51.4198 98.6224 51.2831 98.9414V104H50.0116ZM55.0694 100.514V100.295C55.0694 99.2103 55.377 98.3239 55.9923 97.6357C56.6075 96.9476 57.4301 96.6035 58.46 96.6035C59.49 96.6035 60.3126 96.9476 60.9278 97.6357C61.543 98.3239 61.8507 99.2103 61.8507 100.295V100.514C61.8507 101.598 61.543 102.485 60.9278 103.173C60.3126 103.861 59.49 104.205 58.46 104.205C57.4301 104.205 56.6075 103.861 55.9923 103.173C55.377 102.485 55.0694 101.598 55.0694 100.514ZM56.3682 100.295V100.514C56.3682 101.257 56.5437 101.885 56.8946 102.4C57.2455 102.911 57.7673 103.166 58.46 103.166C59.1527 103.166 59.6746 102.911 60.0255 102.4C60.3764 101.885 60.5518 101.257 60.5518 100.514V100.295C60.5518 99.5521 60.3764 98.9255 60.0255 98.415C59.6746 97.9001 59.1527 97.6426 58.46 97.6426C57.7673 97.6426 57.2455 97.9001 56.8946 98.415C56.5437 98.9255 56.3682 99.5521 56.3682 100.295ZM64.3381 104V93.5H65.6096V104H64.3381ZM68.5824 104V93.5H69.8539V104H68.5824ZM72.3414 100.514V100.295C72.3414 99.2103 72.6376 98.3239 73.23 97.6357C73.827 96.9476 74.6155 96.6035 75.5953 96.6035C76.5751 96.6035 77.3293 96.9248 77.858 97.5674C78.3866 98.21 78.6509 99.0781 78.6509 100.172V100.691H73.1207V99.6797H77.3726V99.5156C77.3726 98.9961 77.2245 98.554 76.9283 98.1895C76.6321 97.8249 76.206 97.6426 75.65 97.6426C74.9755 97.6426 74.4719 97.9001 74.1392 98.415C73.8065 98.9255 73.6402 99.5521 73.6402 100.295V100.514C73.6402 101.257 73.8157 101.885 74.1666 102.4C74.5175 102.911 75.0621 103.166 75.8004 103.166C76.2561 103.166 76.648 103.066 76.9761 102.865C77.3043 102.665 77.5709 102.428 77.7759 102.154L78.5963 102.804C78.3684 103.146 78.0152 103.465 77.5367 103.761C77.0627 104.057 76.4839 104.205 75.8004 104.205C74.6838 104.205 73.827 103.861 73.23 103.173C72.6376 102.485 72.3414 101.598 72.3414 100.514ZM81.0495 104V96.8086H82.198L82.2527 97.7314H82.2937C82.476 97.4307 82.7152 97.1686 83.0114 96.9453C83.3077 96.7174 83.6609 96.6035 84.071 96.6035C84.1713 96.6035 84.2761 96.6149 84.3855 96.6377C84.4948 96.6605 84.5723 96.681 84.6179 96.6992V97.875C84.5267 97.8568 84.431 97.8431 84.3308 97.834C84.2305 97.8249 84.1211 97.8203 84.0027 97.8203C83.5925 97.8203 83.2439 97.9274 82.9568 98.1416C82.6696 98.3558 82.4577 98.6224 82.321 98.9414V104H81.0495Z" fill="black"/>
<path d="M26 21.5C26 19.5109 26.7902 17.6032 28.1967 16.1967C29.6032 14.7902 31.5109 14 33.5 14H40.946C42.338 14 43.676 14.552 44.66 15.539L48.5 19.379L42.32 25.559C42.1803 25.6991 42.0143 25.8102 41.8316 25.8859C41.6488 25.9616 41.4528 26.0004 41.255 26H26V21.5ZM26 29V48.5C26 50.4891 26.7902 52.3968 28.1967 53.8033C29.6032 55.2098 31.5109 56 33.5 56H47.018C46.8829 54.3877 47.3158 52.7789 48.2416 51.452C49.1675 50.1251 50.5281 49.1636 52.088 48.734C51.3025 47.8494 50.7165 46.8063 50.3697 45.6753C50.0228 44.5443 49.9232 43.352 50.0777 42.1791C50.2321 41.0063 50.637 39.8804 51.2649 38.8777C51.8927 37.8751 52.7288 37.0193 53.7165 36.3682C54.7042 35.7171 55.8204 35.2861 56.9893 35.1043C58.1582 34.9225 59.3525 34.9942 60.4913 35.3146C61.6301 35.635 62.6866 36.1965 63.5893 36.9611C64.492 37.7257 65.2197 38.6755 65.723 39.746C66.8365 38.7348 68.2565 38.1255 69.7565 38.0151C71.2566 37.9047 72.7505 38.2997 74 39.137V27.5C74 25.5109 73.2098 23.6032 71.8033 22.1967C70.3968 20.7902 68.4891 20 66.5 20H52.121L44.441 27.68C44.0228 28.0987 43.5262 28.4308 42.9795 28.6573C42.4328 28.8838 41.8468 29.0003 41.255 29H26ZM63.5 43.25C63.5 43.9394 63.3642 44.6221 63.1004 45.2591C62.8365 45.896 62.4498 46.4748 61.9623 46.9623C61.4748 47.4498 60.896 47.8365 60.2591 48.1004C59.6221 48.3642 58.9394 48.5 58.25 48.5C57.5606 48.5 56.8779 48.3642 56.2409 48.1004C55.604 47.8365 55.0252 47.4498 54.5377 46.9623C54.0502 46.4748 53.6635 45.896 53.3996 45.2591C53.1358 44.6221 53 43.9394 53 43.25C53 41.8576 53.5531 40.5223 54.5377 39.5377C55.5223 38.5531 56.8576 38 58.25 38C59.6424 38 60.9777 38.5531 61.9623 39.5377C62.9469 40.5223 63.5 41.8576 63.5 43.25ZM68 55.439C68 58.709 65.429 62 59 62C52.571 62 50 58.718 50 55.439C50 53.264 51.728 51.5 53.858 51.5H64.142C66.272 51.5 68 53.264 68 55.439ZM69.431 60.5H69.5C74.858 60.5 77 57.677 77 54.875C77 53.012 75.56 51.5 73.787 51.5H69.788C70.556 52.625 71 53.987 71 55.439C71 57.185 70.502 58.958 69.431 60.5ZM74 44.75C74 45.7446 73.6049 46.6984 72.9017 47.4016C72.1984 48.1049 71.2446 48.5 70.25 48.5C69.2554 48.5 68.3016 48.1049 67.5984 47.4016C66.8951 46.6984 66.5 45.7446 66.5 44.75C66.5 43.7554 66.8951 42.8016 67.5984 42.0984C68.3016 41.3951 69.2554 41 70.25 41C71.2446 41 72.1984 41.3951 72.9017 42.0984C73.6049 42.8016 74 43.7554 74 44.75Z" fill="white"/>
</svg>
