<svg width="96" height="107" viewBox="0 0 96 107" fill="none" xmlns="http://www.w3.org/2000/svg">
<rect x="19.3373" width="64.4578" height="64.4578" rx="10" fill="#1A4BCB"/>
<path d="M38.6747 51.5663V47.2691C38.6747 44.9897 39.5802 42.8037 41.1919 41.192C42.8037 39.5802 44.9897 38.6747 47.2691 38.6747H54.7891M66.6064 53.7149V53.7364M66.6064 47.2691C67.5696 47.266 68.5039 46.9399 69.2599 46.343C70.0158 45.746 70.5496 44.9127 70.7759 43.9765C71.0021 43.0402 70.9078 42.0551 70.5079 41.1788C70.108 40.3025 69.4257 39.5857 68.5702 39.1431C67.7155 38.7053 66.7377 38.5695 65.796 38.7579C64.8543 38.9463 64.004 39.4479 63.3835 40.1809M42.9719 21.486C42.9719 23.7653 43.8773 25.9514 45.4891 27.5631C47.1009 29.1749 49.2869 30.0804 51.5662 30.0804C53.8456 30.0804 56.0316 29.1749 57.6434 27.5631C59.2552 25.9514 60.1606 23.7653 60.1606 21.486C60.1606 19.2066 59.2552 17.0206 57.6434 15.4088C56.0316 13.7971 53.8456 12.8916 51.5662 12.8916C49.2869 12.8916 47.1009 13.7971 45.4891 15.4088C43.8773 17.0206 42.9719 19.2066 42.9719 21.486Z" stroke="white" stroke-width="5" stroke-linecap="round" stroke-linejoin="round"/>
<path d="M28.4163 83.9036V73.9504H31.3694C32.6454 73.9504 33.7073 74.372 34.5549 75.2151C35.4071 76.0582 35.8332 77.1907 35.8332 78.6125V79.2415C35.8332 80.6633 35.4071 81.7958 34.5549 82.6389C33.7073 83.482 32.6454 83.9036 31.3694 83.9036H28.4163ZM29.7288 82.8235H31.3694C32.3264 82.8235 33.0875 82.5068 33.6526 81.8733C34.2222 81.2398 34.5071 80.3625 34.5071 79.2415V78.6125C34.5071 77.4915 34.2222 76.6142 33.6526 75.9807C33.0875 75.3472 32.3264 75.0305 31.3694 75.0305H29.7288V82.8235ZM38.0404 80.4172V80.1985C38.0404 79.1139 38.3481 78.2275 38.9633 77.5393C39.5785 76.8512 40.4011 76.5071 41.4311 76.5071C42.461 76.5071 43.2836 76.8512 43.8988 77.5393C44.5141 78.2275 44.8217 79.1139 44.8217 80.1985V80.4172C44.8217 81.5019 44.5141 82.3883 43.8988 83.0764C43.2836 83.7646 42.461 84.1086 41.4311 84.1086C40.4011 84.1086 39.5785 83.7646 38.9633 83.0764C38.3481 82.3883 38.0404 81.5019 38.0404 80.4172ZM39.3393 80.1985V80.4172C39.3393 81.1601 39.5147 81.789 39.8656 82.304C40.2165 82.8144 40.7384 83.0696 41.4311 83.0696C42.1238 83.0696 42.6456 82.8144 42.9965 82.304C43.3474 81.789 43.5229 81.1601 43.5229 80.4172V80.1985C43.5229 79.4556 43.3474 78.829 42.9965 78.3186C42.6456 77.8036 42.1238 77.5461 41.4311 77.5461C40.7384 77.5461 40.2165 77.8036 39.8656 78.3186C39.5147 78.829 39.3393 79.4556 39.3393 80.1985ZM47.1861 81.3538V76.7122H48.4576V81.3674C48.4576 81.9417 48.5852 82.3541 48.8404 82.6047C49.1002 82.8508 49.467 82.9739 49.941 82.9739C50.3466 82.9739 50.7043 82.8645 51.0142 82.6458C51.3241 82.427 51.5657 82.1444 51.7388 81.7981V76.7122H53.0103V83.9036H51.8619L51.8072 82.9807H51.7662C51.5064 83.3088 51.1874 83.5686 50.8091 83.76C50.4354 83.9469 50.0207 84.0403 49.565 84.0403C48.8404 84.0403 48.2616 83.8352 47.8287 83.425C47.4003 83.0103 47.1861 82.3199 47.1861 81.3538ZM55.8738 83.9036V73.4036H57.1452V77.5598C57.3549 77.2636 57.6351 77.0266 57.9861 76.8489C58.3415 76.6666 58.7699 76.5754 59.2712 76.5754C60.1827 76.5754 60.9118 76.9172 61.4587 77.6008C62.0056 78.2844 62.279 79.1503 62.279 80.1985V80.4172C62.279 81.4654 62.0056 82.3313 61.4587 83.0149C60.9118 83.6985 60.1827 84.0403 59.2712 84.0403C58.7699 84.0403 58.3301 83.9355 57.9519 83.7258C57.5782 83.5162 57.3002 83.2633 57.1179 82.967H57.0769L57.0222 83.9036H55.8738ZM57.1452 81.7708C57.2865 82.0898 57.5167 82.3746 57.8357 82.6252C58.1547 82.8759 58.5421 83.0012 58.9978 83.0012C59.6814 83.0012 60.1827 82.7528 60.5017 82.2561C60.8207 81.7594 60.9802 81.1464 60.9802 80.4172V80.1985C60.9802 79.4693 60.8207 78.8564 60.5017 78.3596C60.1827 77.8629 59.6814 77.6145 58.9978 77.6145C58.5421 77.6145 58.1547 77.7398 57.8357 77.9905C57.5167 78.2411 57.2865 78.526 57.1452 78.845V81.7708ZM63.7001 77.6829V76.7122H67.8016V77.6829H63.7001ZM64.9852 82.1262V77.3V77.095V74.9348H66.2567V82.1262C66.2567 82.4452 66.3205 82.6731 66.4481 82.8098C66.5757 82.9465 66.7763 83.0149 67.0497 83.0149C67.1773 83.0149 67.3026 83.0012 67.4257 82.9739C67.5487 82.9465 67.674 82.9101 67.8016 82.8645V83.9036C67.6832 83.9583 67.5282 84.0061 67.3368 84.0471C67.1454 84.0881 66.9358 84.1086 66.7079 84.1086C66.1838 84.1086 65.7645 83.9491 65.4501 83.6301C65.1402 83.3111 64.9852 82.8098 64.9852 82.1262ZM6.65009 95.2415V94.6125C6.65009 93.0813 7.04201 91.8873 7.82587 91.0305C8.61428 90.1737 9.60093 89.7454 10.7858 89.7454C11.9707 89.7454 12.8981 90.0712 13.5681 90.7229C14.2425 91.37 14.5798 92.1516 14.5798 93.0676V93.136H13.2673V93.0676C13.2673 92.4342 13.0622 91.9101 12.652 91.4954C12.2419 91.0761 11.6198 90.8665 10.7858 90.8665C9.97007 90.8665 9.29787 91.1741 8.76923 91.7893C8.24058 92.4045 7.97626 93.3456 7.97626 94.6125V95.2415C7.97626 96.4081 8.2383 97.3241 8.76239 97.9895C9.29104 98.6549 9.96552 98.9875 10.7858 98.9875C11.5697 98.9875 12.1621 98.7756 12.5632 98.3518C12.9642 97.928 13.1966 97.4062 13.2604 96.7864L13.2673 96.718H14.5798L14.5729 96.7864C14.4818 97.6978 14.124 98.4794 13.4997 99.1311C12.8753 99.7828 11.9707 100.109 10.7858 100.109C9.60093 100.109 8.61428 99.6803 7.82587 98.8235C7.04201 97.9667 6.65009 96.7727 6.65009 95.2415ZM17.0672 99.9036V89.4036H18.3387V99.9036H17.0672ZM20.8604 97.7844C20.8604 97.0553 21.1497 96.4879 21.7285 96.0823C22.3073 95.6767 23.0433 95.4739 23.9365 95.4739H25.5635V94.9817C25.5635 94.5487 25.4518 94.1978 25.2285 93.929C25.0052 93.6555 24.6201 93.5188 24.0732 93.5188C23.5264 93.5188 23.1344 93.6327 22.8975 93.8606C22.665 94.0839 22.5488 94.3437 22.5488 94.6399V94.6741H21.2842V94.6399C21.2842 94.0702 21.5371 93.5735 22.043 93.1497C22.5534 92.7213 23.2415 92.5071 24.1074 92.5071C24.9733 92.5071 25.6432 92.7144 26.1172 93.1292C26.5957 93.5439 26.835 94.1614 26.835 94.9817V98.2629C26.835 98.5592 26.8578 98.8394 26.9033 99.1038C26.9489 99.3635 27.0127 99.5937 27.0947 99.7942V99.9036H25.8643C25.8005 99.7896 25.7412 99.6415 25.6865 99.4592C25.6364 99.2769 25.6045 99.0946 25.5908 98.9124C25.4222 99.2086 25.1488 99.4706 24.7705 99.6985C24.3968 99.9264 23.9137 100.04 23.3213 100.04C22.6377 100.04 22.0566 99.8466 21.5781 99.4592C21.0996 99.0719 20.8604 98.5136 20.8604 97.7844ZM22.1318 97.7161C22.1318 98.1262 22.2503 98.4475 22.4873 98.6799C22.7243 98.9124 23.0934 99.0286 23.5947 99.0286C24.096 99.0286 24.5495 98.8554 24.9551 98.509C25.3607 98.1627 25.5635 97.7958 25.5635 97.4084V96.3762H24.0732C23.4352 96.3762 22.9522 96.497 22.624 96.7385C22.2959 96.9801 22.1318 97.3059 22.1318 97.7161ZM29.6574 99.9036V92.7122H30.8058L30.8605 93.635H30.9015C31.0838 93.3342 31.3231 93.0722 31.6193 92.8489C31.9155 92.621 32.2687 92.5071 32.6789 92.5071C32.7791 92.5071 32.884 92.5185 32.9933 92.5413C33.1027 92.564 33.1802 92.5846 33.2257 92.6028V93.7786C33.1346 93.7603 33.0389 93.7467 32.9386 93.7375C32.8384 93.7284 32.729 93.7239 32.6105 93.7239C32.2004 93.7239 31.8517 93.831 31.5646 94.0452C31.2775 94.2594 31.0656 94.526 30.9289 94.845V99.9036H29.6574ZM35.3441 99.9036V92.7122H36.6156V99.9036H35.3441ZM35.1868 90.5383C35.1868 90.3241 35.2552 90.1441 35.3919 89.9983C35.5286 89.8525 35.7246 89.7795 35.9798 89.7795C36.235 89.7795 36.431 89.8525 36.5677 89.9983C36.7044 90.1441 36.7728 90.3241 36.7728 90.5383C36.7728 90.7525 36.7044 90.9325 36.5677 91.0784C36.431 91.2242 36.235 91.2971 35.9798 91.2971C35.7246 91.2971 35.5286 91.2242 35.3919 91.0784C35.2552 90.9325 35.1868 90.7525 35.1868 90.5383ZM39.8686 99.9036V91.7004C39.8686 90.9075 40.0851 90.3036 40.5181 89.8889C40.951 89.4742 41.5412 89.2668 42.2886 89.2668C42.4344 89.2668 42.5825 89.276 42.7329 89.2942C42.8833 89.3124 43.0268 89.3398 43.1636 89.3762L43.0952 90.4016C42.9949 90.3834 42.8878 90.3674 42.7739 90.3538C42.66 90.3401 42.5438 90.3333 42.4253 90.3333C42.0151 90.3333 41.6984 90.4472 41.4751 90.675C41.2518 90.9029 41.1401 91.2447 41.1401 91.7004V93.1223V93.2727V99.9036H39.8686ZM38.6997 93.6829V92.7122H40.3472H40.6616H42.6987V93.6829H38.6997ZM43.7036 99.9036V92.7122H44.9751V99.9036H43.7036ZM43.5464 90.5383C43.5464 90.3241 43.6147 90.1441 43.7515 89.9983C43.8882 89.8525 44.0841 89.7795 44.3393 89.7795C44.5946 89.7795 44.7905 89.8525 44.9272 89.9983C45.064 90.1441 45.1323 90.3241 45.1323 90.5383C45.1323 90.7525 45.064 90.9325 44.9272 91.0784C44.7905 91.2242 44.5946 91.2971 44.3393 91.2971C44.0841 91.2971 43.8882 91.2242 43.7515 91.0784C43.6147 90.9325 43.5464 90.7525 43.5464 90.5383ZM47.4694 96.4172V96.1985C47.4694 95.1139 47.7633 94.2275 48.3512 93.5393C48.9437 92.8512 49.7571 92.5071 50.7916 92.5071C51.7487 92.5071 52.4756 92.7668 52.9723 93.2864C53.4691 93.8014 53.7174 94.3778 53.7174 95.0159V95.05H52.487V95.0159C52.487 94.6285 52.3525 94.2867 52.0836 93.9905C51.8148 93.6943 51.3841 93.5461 50.7916 93.5461C50.0989 93.5461 49.5885 93.8036 49.2604 94.3186C48.9323 94.829 48.7682 95.4556 48.7682 96.1985V96.4172C48.7682 97.1601 48.9323 97.789 49.2604 98.304C49.5885 98.8144 50.0989 99.0696 50.7916 99.0696C51.3841 99.0696 51.8148 98.9215 52.0836 98.6252C52.3525 98.329 52.487 97.9872 52.487 97.5999V97.5657H53.7174V97.5999C53.7174 98.2379 53.4691 98.8167 52.9723 99.3362C52.4756 99.8512 51.7487 100.109 50.7916 100.109C49.7571 100.109 48.9437 99.7646 48.3512 99.0764C47.7633 98.3883 47.4694 97.5019 47.4694 96.4172ZM55.6443 97.7844C55.6443 97.0553 55.9337 96.4879 56.5125 96.0823C57.0913 95.6767 57.8273 95.4739 58.7205 95.4739H60.3475V94.9817C60.3475 94.5487 60.2358 94.1978 60.0125 93.929C59.7892 93.6555 59.4041 93.5188 58.8572 93.5188C58.3104 93.5188 57.9184 93.6327 57.6815 93.8606C57.449 94.0839 57.3328 94.3437 57.3328 94.6399V94.6741H56.0682V94.6399C56.0682 94.0702 56.3211 93.5735 56.827 93.1497C57.3374 92.7213 58.0255 92.5071 58.8914 92.5071C59.7573 92.5071 60.4272 92.7144 60.9012 93.1292C61.3797 93.5439 61.619 94.1614 61.619 94.9817V98.2629C61.619 98.5592 61.6417 98.8394 61.6873 99.1038C61.7329 99.3635 61.7967 99.5937 61.8787 99.7942V99.9036H60.6483C60.5844 99.7896 60.5252 99.6415 60.4705 99.4592C60.4204 99.2769 60.3885 99.0946 60.3748 98.9124C60.2062 99.2086 59.9328 99.4706 59.5545 99.6985C59.1808 99.9264 58.6977 100.04 58.1053 100.04C57.4217 100.04 56.8406 99.8466 56.3621 99.4592C55.8836 99.0719 55.6443 98.5136 55.6443 97.7844ZM56.9158 97.7161C56.9158 98.1262 57.0343 98.4475 57.2713 98.6799C57.5083 98.9124 57.8774 99.0286 58.3787 99.0286C58.88 99.0286 59.3335 98.8554 59.7391 98.509C60.1447 98.1627 60.3475 97.7958 60.3475 97.4084V96.3762H58.8572C58.2192 96.3762 57.7361 96.497 57.408 96.7385C57.0799 96.9801 56.9158 97.3059 56.9158 97.7161ZM63.4297 93.6829V92.7122H67.5312V93.6829H63.4297ZM64.7148 98.1262V93.3V93.095V90.9348H65.9863V98.1262C65.9863 98.4452 66.0501 98.6731 66.1777 98.8098C66.3053 98.9465 66.5058 99.0149 66.7793 99.0149C66.9069 99.0149 67.0322 99.0012 67.1552 98.9739C67.2783 98.9465 67.4036 98.9101 67.5312 98.8645V99.9036C67.4127 99.9583 67.2578 100.006 67.0664 100.047C66.875 100.088 66.6653 100.109 66.4375 100.109C65.9134 100.109 65.4941 99.9491 65.1797 99.6301C64.8698 99.3111 64.7148 98.8098 64.7148 98.1262ZM69.7863 99.9036V92.7122H71.0577V99.9036H69.7863ZM69.629 90.5383C69.629 90.3241 69.6974 90.1441 69.8341 89.9983C69.9708 89.8525 70.1668 89.7795 70.422 89.7795C70.6772 89.7795 70.8732 89.8525 71.0099 89.9983C71.1466 90.1441 71.215 90.3241 71.215 90.5383C71.215 90.7525 71.1466 90.9325 71.0099 91.0784C70.8732 91.2242 70.6772 91.2971 70.422 91.2971C70.1668 91.2971 69.9708 91.2242 69.8341 91.0784C69.6974 90.9325 69.629 90.7525 69.629 90.5383ZM73.552 96.4172V96.1985C73.552 95.1139 73.8597 94.2275 74.4749 93.5393C75.0901 92.8512 75.9127 92.5071 76.9427 92.5071C77.9726 92.5071 78.7952 92.8512 79.4104 93.5393C80.0257 94.2275 80.3333 95.1139 80.3333 96.1985V96.4172C80.3333 97.5019 80.0257 98.3883 79.4104 99.0764C78.7952 99.7646 77.9726 100.109 76.9427 100.109C75.9127 100.109 75.0901 99.7646 74.4749 99.0764C73.8597 98.3883 73.552 97.5019 73.552 96.4172ZM74.8509 96.1985V96.4172C74.8509 97.1601 75.0263 97.789 75.3772 98.304C75.7281 98.8144 76.25 99.0696 76.9427 99.0696C77.6354 99.0696 78.1572 98.8144 78.5081 98.304C78.859 97.789 79.0345 97.1601 79.0345 96.4172V96.1985C79.0345 95.4556 78.859 94.829 78.5081 94.3186C78.1572 93.8036 77.6354 93.5461 76.9427 93.5461C76.25 93.5461 75.7281 93.8036 75.3772 94.3186C75.0263 94.829 74.8509 95.4556 74.8509 96.1985ZM82.7661 99.9036V92.7122H83.9145L83.9692 93.635H84.0102C84.27 93.3069 84.5867 93.0494 84.9604 92.8625C85.3387 92.6711 85.7556 92.5754 86.2114 92.5754C86.936 92.5754 87.5125 92.7828 87.9409 93.1975C88.3738 93.6077 88.5903 94.2958 88.5903 95.262V99.9036H87.3188V95.2483C87.3188 94.6741 87.1889 94.2639 86.9291 94.0178C86.6739 93.7672 86.3094 93.6418 85.8354 93.6418C85.4298 93.6418 85.072 93.7512 84.7622 93.97C84.4523 94.1887 84.2107 94.4713 84.0375 94.8176V99.9036H82.7661Z" fill="black"/>
</svg>
