<svg width="30" height="30" viewBox="0 0 30 30" fill="none" xmlns="http://www.w3.org/2000/svg">
<path fill-rule="evenodd" clip-rule="evenodd" d="M15 0C11.0218 5.92805e-08 7.20644 1.58035 4.3934 4.3934C1.58035 7.20644 0 11.0218 0 15C0 18.9782 1.58035 22.7936 4.3934 25.6066C7.20644 28.4196 11.0218 30 15 30H22.5C24.83 30 25.995 30 26.9133 29.62C27.5202 29.3687 28.0715 29.0004 28.5359 28.5359C29.0004 28.0715 29.3687 27.5202 29.62 26.9133C30 25.995 30 24.83 30 22.5V15C30 11.0218 28.4196 7.20644 25.6066 4.3934C22.7936 1.58035 18.9782 0 15 0ZM8.33333 13.3333C8.33333 12.8913 8.50893 12.4674 8.82149 12.1548C9.13405 11.8423 9.55797 11.6667 10 11.6667H20C20.442 11.6667 20.8659 11.8423 21.1785 12.1548C21.4911 12.4674 21.6667 12.8913 21.6667 13.3333C21.6667 13.7754 21.4911 14.1993 21.1785 14.5118C20.8659 14.8244 20.442 15 20 15H10C9.55797 15 9.13405 14.8244 8.82149 14.5118C8.50893 14.1993 8.33333 13.7754 8.33333 13.3333ZM13.3333 20C13.3333 19.558 13.5089 19.134 13.8215 18.8215C14.134 18.5089 14.558 18.3333 15 18.3333H20C20.442 18.3333 20.8659 18.5089 21.1785 18.8215C21.4911 19.134 21.6667 19.558 21.6667 20C21.6667 20.442 21.4911 20.8659 21.1785 21.1785C20.8659 21.4911 20.442 21.6667 20 21.6667H15C14.558 21.6667 14.134 21.4911 13.8215 21.1785C13.5089 20.8659 13.3333 20.442 13.3333 20Z" fill="#F2692E"/>
</svg>
