<svg width="89" height="107" viewBox="0 0 89 107" fill="none" xmlns="http://www.w3.org/2000/svg">
<rect x="12.8915" width="64.4578" height="64.4578" rx="10" fill="#1A4BCB"/>
<g clip-path="url(#clip0_225_149)">
<path d="M27.9317 15.0402H40.8233V27.9317H27.9317V15.0402ZM62.3092 15.0402V27.9317H49.4177V15.0402H62.3092ZM49.4177 38.6747H53.7149V34.3775H49.4177V30.0803H53.7149V34.3775H58.012V30.0803H62.3092V34.3775H58.012V38.6747H62.3092V45.1205H58.012V49.4177H53.7149V45.1205H47.2691V49.4177H42.9719V40.8233H49.4177V38.6747ZM53.7149 38.6747V45.1205H58.012V38.6747H53.7149ZM27.9317 49.4177V36.5261H40.8233V49.4177H27.9317ZM32.2289 19.3374V23.6346H36.5261V19.3374H32.2289ZM53.7149 19.3374V23.6346H58.012V19.3374H53.7149ZM32.2289 40.8233V45.1205H36.5261V40.8233H32.2289ZM27.9317 30.0803H32.2289V34.3775H27.9317V30.0803ZM38.6747 30.0803H47.2691V38.6747H42.9719V34.3775H38.6747V30.0803ZM42.9719 19.3374H47.2691V27.9317H42.9719V19.3374ZM23.6345 10.743V19.3374H19.3373V10.743C19.3373 9.6033 19.7901 8.5103 20.596 7.70442C21.4018 6.89854 22.4948 6.4458 23.6345 6.4458H32.2289V10.743H23.6345ZM66.6064 6.4458C67.7461 6.4458 68.8391 6.89854 69.645 7.70442C70.4509 8.5103 70.9036 9.6033 70.9036 10.743V19.3374H66.6064V10.743H58.012V6.4458H66.6064ZM23.6345 45.1205V53.7149H32.2289V58.0121H23.6345C22.4948 58.0121 21.4018 57.5593 20.596 56.7534C19.7901 55.9476 19.3373 54.8546 19.3373 53.7149V45.1205H23.6345ZM66.6064 53.7149V45.1205H70.9036V53.7149C70.9036 54.8546 70.4509 55.9476 69.645 56.7534C68.8391 57.5593 67.7461 58.0121 66.6064 58.0121H58.012V53.7149H66.6064Z" fill="white"/>
</g>
<path d="M28.5733 83.9036V73.9504H30.2686L33.2218 81.4358C33.2764 81.5725 33.3266 81.7161 33.3722 81.8665C33.4223 82.0123 33.4656 82.1536 33.502 82.2903H33.5567C33.5932 82.1536 33.6342 82.0123 33.6798 81.8665C33.7299 81.7161 33.7823 81.5725 33.837 81.4358L36.7901 73.9504H38.4854V83.9036H37.2139V76.7258C37.2139 76.5891 37.2162 76.4364 37.2208 76.2678C37.2253 76.0946 37.2367 75.9397 37.255 75.803H37.2003C37.1729 75.9397 37.1319 76.0946 37.0772 76.2678C37.0225 76.4364 36.9679 76.5891 36.9132 76.7258L34.0831 83.9036H32.9483L30.1182 76.7258C30.0636 76.5891 30.0089 76.4364 29.9542 76.2678C29.8995 76.0946 29.8585 75.9397 29.8311 75.803H29.7764C29.7947 75.9397 29.8061 76.0946 29.8106 76.2678C29.8152 76.4364 29.8175 76.5891 29.8175 76.7258V83.9036H28.5733ZM41.1028 81.7844C41.1028 81.0553 41.3922 80.4879 41.9709 80.0823C42.5497 79.6767 43.2857 79.4739 44.1789 79.4739H45.8059V78.9817C45.8059 78.5487 45.6942 78.1978 45.4709 77.929C45.2476 77.6555 44.8625 77.5188 44.3157 77.5188C43.7688 77.5188 43.3769 77.6327 43.1399 77.8606C42.9075 78.0839 42.7913 78.3437 42.7913 78.6399V78.6741H41.5266V78.6399C41.5266 78.0702 41.7795 77.5735 42.2854 77.1497C42.7958 76.7213 43.484 76.5071 44.3498 76.5071C45.2157 76.5071 45.8857 76.7144 46.3596 77.1292C46.8381 77.5439 47.0774 78.1614 47.0774 78.9817V82.2629C47.0774 82.5592 47.1002 82.8394 47.1457 83.1038C47.1913 83.3635 47.2551 83.5937 47.3372 83.7942V83.9036H46.1067C46.0429 83.7896 45.9836 83.6415 45.9289 83.4592C45.8788 83.2769 45.8469 83.0946 45.8332 82.9124C45.6646 83.2086 45.3912 83.4706 45.0129 83.6985C44.6392 83.9264 44.1562 84.0403 43.5637 84.0403C42.8801 84.0403 42.2991 83.8466 41.8205 83.4592C41.342 83.0719 41.1028 82.5136 41.1028 81.7844ZM42.3743 81.7161C42.3743 82.1262 42.4927 82.4475 42.7297 82.6799C42.9667 82.9124 43.3358 83.0286 43.8372 83.0286C44.3385 83.0286 44.7919 82.8554 45.1975 82.509C45.6031 82.1627 45.8059 81.7958 45.8059 81.4084V80.3762H44.3157C43.6776 80.3762 43.1946 80.497 42.8664 80.7385C42.5383 80.9801 42.3743 81.3059 42.3743 81.7161ZM49.8998 83.9036V76.7122H51.0482L51.1029 77.635H51.144C51.3262 77.3342 51.5655 77.0722 51.8617 76.8489C52.1579 76.621 52.5111 76.5071 52.9213 76.5071C53.0216 76.5071 53.1264 76.5185 53.2357 76.5413C53.3451 76.564 53.4226 76.5846 53.4682 76.6028V77.7786C53.377 77.7603 53.2813 77.7467 53.1811 77.7375C53.0808 77.7284 52.9714 77.7239 52.8529 77.7239C52.4428 77.7239 52.0941 77.831 51.807 78.0452C51.5199 78.2594 51.308 78.526 51.1713 78.845V83.9036H49.8998ZM55.525 83.9036V73.4036H56.7964V80.0208L59.8726 76.7122H61.315L56.7964 81.511V83.9036H55.525ZM60.1597 83.9036L57.357 80.1848L58.15 79.3098L61.65 83.9036H60.1597ZM5.29258 99.9036L9.07969 89.8821H10.2555L14.0426 99.9036H12.6754L9.94102 92.384C9.88633 92.2336 9.83848 92.0878 9.79747 91.9465C9.75645 91.8053 9.71999 91.6594 9.68809 91.509H9.61973C9.58783 91.6594 9.55137 91.8053 9.51036 91.9465C9.46934 92.0878 9.42149 92.2336 9.3668 92.384L6.60508 99.9036H5.29258ZM6.91954 97.3059L7.32286 96.2258H11.9986L12.3951 97.3059H6.91954ZM14.7595 93.6829V92.7122H18.8611V93.6829H14.7595ZM16.0447 98.1262V93.3V93.095V90.9348H17.3162V98.1262C17.3162 98.4452 17.38 98.6731 17.5076 98.8098C17.6352 98.9465 17.8357 99.0149 18.1091 99.0149C18.2368 99.0149 18.3621 99.0012 18.4851 98.9739C18.6082 98.9465 18.7335 98.9101 18.8611 98.8645V99.9036C18.7426 99.9583 18.5877 100.006 18.3963 100.047C18.2048 100.088 17.9952 100.109 17.7673 100.109C17.2433 100.109 16.824 99.9491 16.5095 99.6301C16.1996 99.3111 16.0447 98.8098 16.0447 98.1262ZM20.0429 93.6829V92.7122H24.1445V93.6829H20.0429ZM21.3281 98.1262V93.3V93.095V90.9348H22.5995V98.1262C22.5995 98.4452 22.6633 98.6731 22.7909 98.8098C22.9185 98.9465 23.1191 99.0149 23.3925 99.0149C23.5201 99.0149 23.6454 99.0012 23.7685 98.9739C23.8915 98.9465 24.0169 98.9101 24.1445 98.8645V99.9036C24.026 99.9583 23.871 100.006 23.6796 100.047C23.4882 100.088 23.2786 100.109 23.0507 100.109C22.5266 100.109 22.1073 99.9491 21.7929 99.6301C21.483 99.3111 21.3281 98.8098 21.3281 98.1262ZM25.9073 96.4172V96.1985C25.9073 95.1139 26.2035 94.2275 26.796 93.5393C27.393 92.8512 28.1814 92.5071 29.1612 92.5071C30.141 92.5071 30.8953 92.8284 31.4239 93.4709C31.9526 94.1135 32.2169 94.9817 32.2169 96.0754V96.595H26.6866V95.5833H30.9386V95.4192C30.9386 94.8997 30.7904 94.4576 30.4942 94.093C30.198 93.7284 29.7719 93.5461 29.2159 93.5461C28.5414 93.5461 28.0378 93.8036 27.7052 94.3186C27.3725 94.829 27.2061 95.4556 27.2061 96.1985V96.4172C27.2061 97.1601 27.3816 97.789 27.7325 98.304C28.0834 98.8144 28.628 99.0696 29.3663 99.0696C29.822 99.0696 30.214 98.9693 30.5421 98.7688C30.8702 98.5683 31.1368 98.3313 31.3419 98.0579L32.1622 98.7073C31.9343 99.0491 31.5811 99.3681 31.1026 99.6643C30.6287 99.9605 30.0499 100.109 29.3663 100.109C28.2498 100.109 27.393 99.7646 26.796 99.0764C26.2035 98.3883 25.9073 97.5019 25.9073 96.4172ZM34.6155 99.9036V92.7122H35.7639L35.8186 93.635H35.8596C36.1194 93.3069 36.4361 93.0494 36.8098 92.8625C37.1881 92.6711 37.6051 92.5754 38.0608 92.5754C38.7854 92.5754 39.3619 92.7828 39.7903 93.1975C40.2232 93.6077 40.4397 94.2958 40.4397 95.262V99.9036H39.1682V95.2483C39.1682 94.6741 39.0383 94.2639 38.7786 94.0178C38.5234 93.7672 38.1588 93.6418 37.6848 93.6418C37.2792 93.6418 36.9215 93.7512 36.6116 93.97C36.3017 94.1887 36.0601 94.4713 35.887 94.8176V99.9036H34.6155ZM42.8041 96.4172V96.1985C42.8041 95.1503 43.0775 94.2844 43.6244 93.6008C44.1713 92.9172 44.9005 92.5754 45.8119 92.5754C46.3132 92.5754 46.7393 92.6666 47.0902 92.8489C47.4457 93.0266 47.7283 93.2636 47.9379 93.5598V89.4036H49.2094V99.9036H48.0609L48.0063 98.967H47.9652C47.7829 99.2633 47.5027 99.5162 47.1244 99.7258C46.7507 99.9355 46.3132 100.04 45.8119 100.04C44.9005 100.04 44.1713 99.6985 43.6244 99.0149C43.0775 98.3313 42.8041 97.4654 42.8041 96.4172ZM44.1029 96.4172C44.1029 97.1464 44.2624 97.7594 44.5815 98.2561C44.9005 98.7528 45.4018 99.0012 46.0854 99.0012C46.5411 99.0012 46.9285 98.8759 47.2475 98.6252C47.5665 98.3746 47.7966 98.0898 47.9379 97.7708V94.845C47.7966 94.526 47.5665 94.2411 47.2475 93.9905C46.9285 93.7398 46.5411 93.6145 46.0854 93.6145C45.4018 93.6145 44.9005 93.8629 44.5815 94.3596C44.2624 94.8564 44.1029 95.4693 44.1029 96.1985V96.4172ZM51.6763 97.7844C51.6763 97.0553 51.9657 96.4879 52.5445 96.0823C53.1233 95.6767 53.8593 95.4739 54.7525 95.4739H56.3795V94.9817C56.3795 94.5487 56.2678 94.1978 56.0445 93.929C55.8212 93.6555 55.4361 93.5188 54.8892 93.5188C54.3424 93.5188 53.9504 93.6327 53.7134 93.8606C53.481 94.0839 53.3648 94.3437 53.3648 94.6399V94.6741H52.1002V94.6399C52.1002 94.0702 52.3531 93.5735 52.859 93.1497C53.3694 92.7213 54.0575 92.5071 54.9234 92.5071C55.7893 92.5071 56.4592 92.7144 56.9332 93.1292C57.4117 93.5439 57.6509 94.1614 57.6509 94.9817V98.2629C57.6509 98.5592 57.6737 98.8394 57.7193 99.1038C57.7649 99.3635 57.8287 99.5937 57.9107 99.7942V99.9036H56.6802C56.6164 99.7896 56.5572 99.6415 56.5025 99.4592C56.4524 99.2769 56.4205 99.0946 56.4068 98.9124C56.2382 99.2086 55.9647 99.4706 55.5865 99.6985C55.2128 99.9264 54.7297 100.04 54.1373 100.04C53.4537 100.04 52.8726 99.8466 52.3941 99.4592C51.9156 99.0719 51.6763 98.5136 51.6763 97.7844ZM52.9478 97.7161C52.9478 98.1262 53.0663 98.4475 53.3033 98.6799C53.5403 98.9124 53.9094 99.0286 54.4107 99.0286C54.912 99.0286 55.3655 98.8554 55.7711 98.509C56.1767 98.1627 56.3795 97.7958 56.3795 97.4084V96.3762H54.8892C54.2512 96.3762 53.7681 96.497 53.44 96.7385C53.1119 96.9801 52.9478 97.3059 52.9478 97.7161ZM60.4734 99.9036V92.7122H61.6218L61.6765 93.635H61.7175C61.9773 93.3069 62.294 93.0494 62.6677 92.8625C63.046 92.6711 63.4629 92.5754 63.9187 92.5754C64.6433 92.5754 65.2198 92.7828 65.6482 93.1975C66.0811 93.6077 66.2976 94.2958 66.2976 95.262V99.9036H65.0261V95.2483C65.0261 94.6741 64.8962 94.2639 64.6365 94.0178C64.3812 93.7672 64.0167 93.6418 63.5427 93.6418C63.1371 93.6418 62.7794 93.7512 62.4695 93.97C62.1596 94.1887 61.918 94.4713 61.7449 94.8176V99.9036H60.4734ZM68.662 96.4172V96.1985C68.662 95.1139 68.9559 94.2275 69.5438 93.5393C70.1363 92.8512 70.9498 92.5071 71.9843 92.5071C72.9413 92.5071 73.6682 92.7668 74.1649 93.2864C74.6617 93.8014 74.91 94.3778 74.91 95.0159V95.05H73.6796V95.0159C73.6796 94.6285 73.5451 94.2867 73.2763 93.9905C73.0074 93.6943 72.5767 93.5461 71.9843 93.5461C71.2916 93.5461 70.7811 93.8036 70.453 94.3186C70.1249 94.829 69.9608 95.4556 69.9608 96.1985V96.4172C69.9608 97.1601 70.1249 97.789 70.453 98.304C70.7811 98.8144 71.2916 99.0696 71.9843 99.0696C72.5767 99.0696 73.0074 98.9215 73.2763 98.6252C73.5451 98.329 73.6796 97.9872 73.6796 97.5999V97.5657H74.91V97.5999C74.91 98.2379 74.6617 98.8167 74.1649 99.3362C73.6682 99.8512 72.9413 100.109 71.9843 100.109C70.9498 100.109 70.1363 99.7646 69.5438 99.0764C68.9559 98.3883 68.662 97.5019 68.662 96.4172ZM76.8028 96.4172V96.1985C76.8028 95.1139 77.099 94.2275 77.6915 93.5393C78.2885 92.8512 79.0769 92.5071 80.0567 92.5071C81.0365 92.5071 81.7907 92.8284 82.3194 93.4709C82.848 94.1135 83.1124 94.9817 83.1124 96.0754V96.595H77.5821V95.5833H81.834V95.4192C81.834 94.8997 81.6859 94.4576 81.3897 94.093C81.0935 93.7284 80.6674 93.5461 80.1114 93.5461C79.4369 93.5461 78.9333 93.8036 78.6006 94.3186C78.2679 94.829 78.1016 95.4556 78.1016 96.1985V96.4172C78.1016 97.1601 78.2771 97.789 78.628 98.304C78.9789 98.8144 79.5235 99.0696 80.2618 99.0696C80.7175 99.0696 81.1094 98.9693 81.4375 98.7688C81.7657 98.5683 82.0323 98.3313 82.2374 98.0579L83.0577 98.7073C82.8298 99.0491 82.4766 99.3681 81.9981 99.6643C81.5241 99.9605 80.9454 100.109 80.2618 100.109C79.1452 100.109 78.2885 99.7646 77.6915 99.0764C77.099 98.3883 76.8028 97.5019 76.8028 96.4172Z" fill="black"/>
<defs>
<clipPath id="clip0_225_149">
<rect width="51.5663" height="51.5663" fill="white" transform="translate(19.3373 6.4458)"/>
</clipPath>
</defs>
</svg>
