<svg width="15" height="15" viewBox="0 0 15 15" fill="none" xmlns="http://www.w3.org/2000/svg">
<path d="M12.5 6.87506C12.3472 5.7752 11.8369 4.7561 11.0479 3.97475C10.2589 3.19339 9.23485 2.69313 8.13354 2.55103C7.03224 2.40893 5.91476 2.63286 4.95325 3.18834C3.99174 3.74382 3.23953 4.60002 2.8125 5.62506M2.5 3.12506V5.62506H5M2.5 8.12506C2.65285 9.22492 3.16308 10.244 3.9521 11.0254C4.74112 11.8067 5.76515 12.307 6.86646 12.4491C7.96776 12.5912 9.08524 12.3673 10.0467 11.8118C11.0083 11.2563 11.7605 10.4001 12.1875 9.37506M12.5 11.8751V9.37506H10" stroke="white" stroke-width="2" stroke-linecap="round" stroke-linejoin="round"/>
</svg>
