<svg width="71" height="83" viewBox="0 0 71 83" fill="none" xmlns="http://www.w3.org/2000/svg">
<rect x="11" width="50" height="50" rx="10" fill="#1A4BCB"/>
<path d="M17.2293 63.6562V63.5859H18.3777V63.6562C18.3777 64.168 18.5555 64.5527 18.9109 64.8105C19.2664 65.0645 19.7625 65.1914 20.3992 65.1914C21.0398 65.1914 21.5281 65.0605 21.8641 64.7988C22.2039 64.5332 22.3738 64.1895 22.3738 63.7676C22.3738 63.3809 22.2137 63.0723 21.8934 62.8418C21.573 62.6074 20.9461 62.3633 20.0125 62.1094C19.0594 61.8438 18.3855 61.5312 17.991 61.1719C17.6004 60.8086 17.4051 60.293 17.4051 59.625C17.4051 58.957 17.6648 58.4023 18.1844 57.9609C18.7039 57.5156 19.4227 57.293 20.3406 57.293C21.2586 57.293 21.9891 57.5293 22.532 58.002C23.075 58.4746 23.3465 59.0664 23.3465 59.7773V59.8477H22.198V59.7773C22.198 59.3281 22.0418 58.9668 21.7293 58.6934C21.4207 58.416 20.9578 58.2773 20.3406 58.2773C19.7273 58.2773 19.2742 58.3965 18.9813 58.6348C18.6922 58.8691 18.5477 59.1816 18.5477 59.5723C18.5477 59.9473 18.6961 60.2422 18.993 60.457C19.2898 60.6719 19.8895 60.9023 20.7918 61.1484C21.7371 61.4023 22.4266 61.7246 22.8602 62.1152C23.2977 62.5059 23.5164 63.0547 23.5164 63.7617C23.5164 64.4688 23.2352 65.0488 22.6727 65.502C22.1141 65.9512 21.3563 66.1758 20.3992 66.1758C19.4422 66.1758 18.6746 65.9512 18.0965 65.502C17.5184 65.0488 17.2293 64.4336 17.2293 63.6562ZM25.5782 66V57H26.6915V60.5449C26.918 60.2715 27.2013 60.0547 27.5411 59.8945C27.8809 59.7305 28.2559 59.6484 28.6661 59.6484C29.2716 59.6484 29.7638 59.8301 30.1427 60.1934C30.5255 60.5527 30.7169 61.1582 30.7169 62.0098V66H29.5977V61.998C29.5977 61.4941 29.4825 61.1328 29.252 60.9141C29.0255 60.6953 28.7032 60.5859 28.2852 60.5859C27.9259 60.5859 27.6095 60.6816 27.336 60.873C27.0626 61.0645 26.8477 61.3105 26.6915 61.6113V66H25.5782ZM32.7494 62.9766V62.7891C32.7494 61.8477 33.0111 61.0801 33.5345 60.4863C34.058 59.8887 34.7513 59.5898 35.6146 59.5898C36.4779 59.5898 37.142 59.8691 37.6068 60.4277C38.0755 60.9824 38.3099 61.7344 38.3099 62.6836V63.1406H33.4349V62.2559H37.1849V62.168C37.1849 61.6992 37.058 61.3047 36.8041 60.9844C36.5502 60.6641 36.1634 60.5039 35.6439 60.5039C35.0619 60.5039 34.6224 60.7246 34.3255 61.166C34.0326 61.6074 33.8861 62.1484 33.8861 62.7891V62.9766C33.8861 63.6172 34.0404 64.1582 34.349 64.5996C34.6615 65.041 35.1439 65.2617 35.7962 65.2617C36.1986 65.2617 36.5443 65.1758 36.8334 65.0039C37.1224 64.832 37.3568 64.6289 37.5365 64.3945L38.2572 64.9746C38.058 65.2676 37.7474 65.541 37.3255 65.7949C36.9076 66.0488 36.3978 66.1758 35.7962 66.1758C34.8119 66.1758 34.058 65.8789 33.5345 65.2852C33.0111 64.6875 32.7494 63.918 32.7494 62.9766ZM39.9967 62.9766V62.7891C39.9967 61.8477 40.2584 61.0801 40.7819 60.4863C41.3053 59.8887 41.9987 59.5898 42.862 59.5898C43.7252 59.5898 44.3893 59.8691 44.8541 60.4277C45.3229 60.9824 45.5573 61.7344 45.5573 62.6836V63.1406H40.6823V62.2559H44.4323V62.168C44.4323 61.6992 44.3053 61.3047 44.0514 60.9844C43.7975 60.6641 43.4108 60.5039 42.8913 60.5039C42.3092 60.5039 41.8698 60.7246 41.5729 61.166C41.2799 61.6074 41.1334 62.1484 41.1334 62.7891V62.9766C41.1334 63.6172 41.2877 64.1582 41.5963 64.5996C41.9088 65.041 42.3913 65.2617 43.0436 65.2617C43.4459 65.2617 43.7916 65.1758 44.0807 65.0039C44.3698 64.832 44.6041 64.6289 44.7838 64.3945L45.5045 64.9746C45.3053 65.2676 44.9948 65.541 44.5729 65.7949C44.1549 66.0488 43.6452 66.1758 43.0436 66.1758C42.0592 66.1758 41.3053 65.8789 40.7819 65.2852C40.2584 64.6875 39.9967 63.918 39.9967 62.9766ZM46.746 60.6211V59.7656H50.3554V60.6211H46.746ZM47.8769 64.4531V60.2812V60.1055V58.3125H48.9902V64.4531C48.9902 64.7266 49.0448 64.9219 49.1542 65.0391C49.2675 65.1562 49.4452 65.2148 49.6874 65.2148C49.7968 65.2148 49.9042 65.2031 50.0097 65.1797C50.1191 65.1562 50.2304 65.125 50.3437 65.0859V66C50.2382 66.0469 50.1015 66.0879 49.9335 66.123C49.7695 66.1582 49.5878 66.1758 49.3886 66.1758C48.9277 66.1758 48.5605 66.0371 48.287 65.7598C48.0136 65.4824 47.8769 65.0469 47.8769 64.4531ZM1.00609 77.6562V77.5859H2.15453V77.6562C2.15453 78.168 2.33226 78.5527 2.68773 78.8105C3.0432 79.0645 3.5393 79.1914 4.17601 79.1914C4.81664 79.1914 5.30492 79.0605 5.64086 78.7988C5.9807 78.5332 6.15062 78.1895 6.15062 77.7676C6.15062 77.3809 5.99047 77.0723 5.67015 76.8418C5.34984 76.6074 4.72289 76.3633 3.7893 76.1094C2.83617 75.8438 2.16234 75.5312 1.76781 75.1719C1.37719 74.8086 1.18187 74.293 1.18187 73.625C1.18187 72.957 1.44164 72.4023 1.96117 71.9609C2.4807 71.5156 3.19945 71.293 4.11742 71.293C5.03539 71.293 5.76586 71.5293 6.30883 72.002C6.8518 72.4746 7.12328 73.0664 7.12328 73.7773V73.8477H5.97484V73.7773C5.97484 73.3281 5.81859 72.9668 5.50609 72.6934C5.1975 72.416 4.73461 72.2773 4.11742 72.2773C3.50414 72.2773 3.05101 72.3965 2.75805 72.6348C2.46898 72.8691 2.32445 73.1816 2.32445 73.5723C2.32445 73.9473 2.47289 74.2422 2.76976 74.457C3.06664 74.6719 3.66625 74.9023 4.56859 75.1484C5.5139 75.4023 6.20336 75.7246 6.63695 76.1152C7.07445 76.5059 7.2932 77.0547 7.2932 77.7617C7.2932 78.4688 7.01195 79.0488 6.44945 79.502C5.89086 79.9512 5.13305 80.1758 4.17601 80.1758C3.21898 80.1758 2.4514 79.9512 1.87328 79.502C1.29515 79.0488 1.00609 78.4336 1.00609 77.6562ZM9.2964 77.7559V73.7656H10.4097V77.7676C10.4097 78.2715 10.523 78.6328 10.7495 78.8516C10.98 79.0664 11.3062 79.1738 11.728 79.1738C12.0874 79.1738 12.4038 79.0801 12.6773 78.8926C12.9507 78.7012 13.1636 78.4531 13.3159 78.1484V73.7656H14.4351V80H13.4214L13.3745 79.1914H13.3452C13.1109 79.4805 12.8277 79.707 12.4956 79.8711C12.1636 80.0352 11.7964 80.1172 11.3941 80.1172C10.7534 80.1172 10.2437 79.9355 9.86476 79.5723C9.48586 79.209 9.2964 78.6035 9.2964 77.7559ZM16.8953 80V71H18.0086V74.498C18.1961 74.2402 18.4461 74.0352 18.7586 73.8828C19.0711 73.7266 19.45 73.6484 19.8953 73.6484C20.6961 73.6484 21.3367 73.9453 21.8172 74.5391C22.2977 75.1289 22.5379 75.8789 22.5379 76.7891V76.9766C22.5379 77.8828 22.2977 78.6328 21.8172 79.2266C21.3367 79.8203 20.6961 80.1172 19.8953 80.1172C19.45 80.1172 19.0594 80.0273 18.7234 79.8477C18.3914 79.6641 18.1453 79.4434 17.9852 79.1855H17.95L17.9031 80H16.8953ZM18.0086 78.1367C18.1336 78.4102 18.3367 78.6562 18.618 78.875C18.9031 79.0898 19.2469 79.1973 19.6492 79.1973C20.2547 79.1973 20.698 78.9844 20.9793 78.5586C21.2605 78.1289 21.4012 77.6016 21.4012 76.9766V76.7891C21.4012 76.1602 21.2605 75.6328 20.9793 75.207C20.698 74.7773 20.2547 74.5625 19.6492 74.5625C19.2469 74.5625 18.9031 74.6719 18.618 74.8906C18.3367 75.1055 18.1336 75.3516 18.0086 75.6289V78.1367ZM24.6231 80V73.7656H25.6309L25.6778 74.5742H25.713C25.9395 74.2852 26.213 74.0586 26.5333 73.8945C26.8536 73.7305 27.211 73.6484 27.6055 73.6484C28.0313 73.6484 28.3985 73.7324 28.7071 73.9004C29.0157 74.0645 29.2501 74.332 29.4102 74.7031H29.4454C29.711 74.332 30.0059 74.0645 30.3302 73.9004C30.6583 73.7324 31.0313 73.6484 31.4493 73.6484C32.1055 73.6484 32.6192 73.8301 32.9903 74.1934C33.3614 74.5527 33.547 75.1582 33.547 76.0098V80H32.4337V75.998C32.4337 75.4941 32.3243 75.1328 32.1055 74.9141C31.8868 74.6953 31.5762 74.5859 31.1739 74.5859C30.8262 74.5859 30.5216 74.6816 30.2598 74.873C30.002 75.0645 29.797 75.3105 29.6446 75.6113V80H28.5255V75.998C28.5255 75.4941 28.4161 75.1328 28.1973 74.9141C27.9786 74.6953 27.67 74.5859 27.2716 74.5859C26.9239 74.5859 26.6192 74.6816 26.3575 74.873C26.0997 75.0645 25.8927 75.3105 25.7364 75.6113V80H24.6231ZM36.0013 80V73.7656H37.1146V80H36.0013ZM35.8724 71.9141C35.8724 71.7305 35.931 71.5762 36.0482 71.4512C36.1693 71.3223 36.3392 71.2578 36.558 71.2578C36.7767 71.2578 36.9447 71.3223 37.0619 71.4512C37.183 71.5762 37.2435 71.7305 37.2435 71.9141C37.2435 72.1016 37.183 72.2598 37.0619 72.3887C36.9447 72.5137 36.7767 72.5762 36.558 72.5762C36.3392 72.5762 36.1693 72.5137 36.0482 72.3887C35.931 72.2598 35.8724 72.1016 35.8724 71.9141ZM39.2233 78.166H40.3366V78.1953C40.3366 78.5508 40.4713 78.8203 40.7409 79.0039C41.0143 79.1836 41.3717 79.2734 41.8131 79.2734C42.2584 79.2734 42.608 79.1875 42.8619 79.0156C43.1159 78.8398 43.2428 78.6152 43.2428 78.3418C43.2428 78.0645 43.1412 77.8516 42.9381 77.7031C42.735 77.5547 42.2897 77.4043 41.6022 77.252C40.9108 77.0996 40.3698 76.8789 39.9791 76.5898C39.5924 76.2969 39.3991 75.8926 39.3991 75.377C39.3991 74.8652 39.6139 74.4395 40.0436 74.0996C40.4733 73.7598 41.0514 73.5898 41.778 73.5898C42.5045 73.5898 43.0866 73.7617 43.5241 74.1055C43.9655 74.4453 44.1862 74.9023 44.1862 75.4766V75.5059H43.0787V75.459C43.0787 75.1582 42.9733 74.9219 42.7623 74.75C42.5514 74.5781 42.2233 74.4922 41.778 74.4922C41.3327 74.4922 41.0084 74.5723 40.8053 74.7324C40.6022 74.8887 40.5006 75.084 40.5006 75.3184C40.5006 75.5566 40.6119 75.7461 40.8346 75.8867C41.0612 76.0234 41.5182 76.168 42.2057 76.3203C42.8971 76.4727 43.4264 76.6992 43.7936 77C44.1647 77.3008 44.3502 77.7266 44.3502 78.2773C44.3502 78.832 44.1373 79.2871 43.7116 79.6426C43.2897 79.998 42.6569 80.1758 41.8131 80.1758C40.9694 80.1758 40.3268 79.9961 39.8854 79.6367C39.444 79.2734 39.2233 78.793 39.2233 78.1953V78.166ZM46.0136 78.166H47.1269V78.1953C47.1269 78.5508 47.2616 78.8203 47.5312 79.0039C47.8046 79.1836 48.162 79.2734 48.6034 79.2734C49.0487 79.2734 49.3984 79.1875 49.6523 79.0156C49.9062 78.8398 50.0331 78.6152 50.0331 78.3418C50.0331 78.0645 49.9316 77.8516 49.7284 77.7031C49.5253 77.5547 49.08 77.4043 48.3925 77.252C47.7011 77.0996 47.1601 76.8789 46.7695 76.5898C46.3827 76.2969 46.1894 75.8926 46.1894 75.377C46.1894 74.8652 46.4042 74.4395 46.8339 74.0996C47.2636 73.7598 47.8417 73.5898 48.5683 73.5898C49.2948 73.5898 49.8769 73.7617 50.3144 74.1055C50.7558 74.4453 50.9765 74.9023 50.9765 75.4766V75.5059H49.8691V75.459C49.8691 75.1582 49.7636 74.9219 49.5527 74.75C49.3417 74.5781 49.0136 74.4922 48.5683 74.4922C48.123 74.4922 47.7987 74.5723 47.5956 74.7324C47.3925 74.8887 47.2909 75.084 47.2909 75.3184C47.2909 75.5566 47.4023 75.7461 47.6249 75.8867C47.8515 76.0234 48.3085 76.168 48.996 76.3203C49.6874 76.4727 50.2167 76.6992 50.5839 77C50.955 77.3008 51.1405 77.7266 51.1405 78.2773C51.1405 78.832 50.9277 79.2871 50.5019 79.6426C50.08 79.998 49.4472 80.1758 48.6034 80.1758C47.7597 80.1758 47.1171 79.9961 46.6757 79.6367C46.2343 79.2734 46.0136 78.793 46.0136 78.1953V78.166ZM53.2551 80V73.7656H54.3684V80H53.2551ZM53.1262 71.9141C53.1262 71.7305 53.1848 71.5762 53.302 71.4512C53.423 71.3223 53.593 71.2578 53.8117 71.2578C54.0305 71.2578 54.1984 71.3223 54.3156 71.4512C54.4367 71.5762 54.4973 71.7305 54.4973 71.9141C54.4973 72.1016 54.4367 72.2598 54.3156 72.3887C54.1984 72.5137 54.0305 72.5762 53.8117 72.5762C53.593 72.5762 53.423 72.5137 53.302 72.3887C53.1848 72.2598 53.1262 72.1016 53.1262 71.9141ZM56.5063 76.9766V76.7891C56.5063 75.8477 56.7778 75.0801 57.3208 74.4863C57.8638 73.8887 58.5884 73.5898 59.4946 73.5898C60.4009 73.5898 61.1255 73.8887 61.6684 74.4863C62.2114 75.0801 62.4829 75.8477 62.4829 76.7891V76.9766C62.4829 77.918 62.2114 78.6875 61.6684 79.2852C61.1255 79.8789 60.4009 80.1758 59.4946 80.1758C58.5884 80.1758 57.8638 79.8789 57.3208 79.2852C56.7778 78.6875 56.5063 77.918 56.5063 76.9766ZM57.643 76.7891V76.9766C57.643 77.6133 57.7973 78.1523 58.1059 78.5938C58.4184 79.0352 58.8813 79.2559 59.4946 79.2559C60.1079 79.2559 60.5688 79.0352 60.8774 78.5938C61.186 78.1523 61.3403 77.6133 61.3403 76.9766V76.7891C61.3403 76.1484 61.186 75.6074 60.8774 75.166C60.5688 74.7246 60.1079 74.5039 59.4946 74.5039C58.8813 74.5039 58.4184 74.7246 58.1059 75.166C57.7973 75.6074 57.643 76.1484 57.643 76.7891ZM64.5681 80V73.7656H65.5759L65.6228 74.5742H65.658C65.8884 74.2812 66.1697 74.0547 66.5017 73.8945C66.8337 73.7305 67.2029 73.6484 67.6091 73.6484C68.2459 73.6484 68.7537 73.8301 69.1326 74.1934C69.5154 74.5527 69.7068 75.1582 69.7068 76.0098V80H68.5877V75.998C68.5877 75.4941 68.4724 75.1328 68.242 74.9141C68.0154 74.6953 67.6931 74.5859 67.2752 74.5859C66.9158 74.5859 66.5994 74.6816 66.3259 74.873C66.0525 75.0645 65.8377 75.3105 65.6814 75.6113V80H64.5681Z" fill="black"/>
<path d="M49.8266 17.4989L41.0766 8.69683C40.9024 8.52144 40.6956 8.38231 40.468 8.28737C40.2404 8.19244 39.9964 8.14357 39.75 8.14355H24.75C23.9212 8.14355 23.1263 8.47475 22.5403 9.06429C21.9542 9.65383 21.625 10.4534 21.625 11.2872V38.9508C21.625 39.7846 21.9542 40.5842 22.5403 41.1737C23.1263 41.7632 23.9212 42.0944 24.75 42.0944H47.25C48.0788 42.0944 48.8737 41.7632 49.4597 41.1737C50.0458 40.5842 50.375 39.7846 50.375 38.9508V18.8318C50.375 18.332 50.1777 17.8526 49.8266 17.4989ZM41 13.9592L44.5938 17.5744H41V13.9592ZM25.375 38.3221V11.9159H37.25V19.4605C37.25 19.9608 37.4475 20.4405 37.7992 20.7942C38.1508 21.148 38.6277 21.3467 39.125 21.3467H46.625V38.3221H25.375Z" fill="white"/>
</svg>
