<svg width="70" height="107" viewBox="0 0 70 107" fill="none" xmlns="http://www.w3.org/2000/svg">
<rect width="70" height="70" rx="10" fill="#F2692E"/>
<path d="M3.08246 83.3379V82.709C3.08246 81.1777 3.47439 79.9837 4.25824 79.127C5.04666 78.2702 6.06293 77.8418 7.30707 77.8418C8.43272 77.8418 9.31456 78.1449 9.95258 78.751C10.5952 79.3525 10.9529 80.0635 11.0258 80.8838L11.0327 80.959H9.72016V80.8906C9.72016 80.4349 9.50824 79.9997 9.08442 79.585C8.66059 79.1702 8.06358 78.9629 7.2934 78.9629C6.42296 78.9629 5.72341 79.2956 5.19477 79.9609C4.67068 80.6263 4.40863 81.5423 4.40863 82.709V83.3379C4.40863 84.5046 4.67068 85.4206 5.19477 86.0859C5.72341 86.7513 6.46625 87.084 7.42328 87.084C7.92458 87.084 8.35753 87.0316 8.72211 86.9268C9.08669 86.8219 9.43305 86.6556 9.76117 86.4277V84.1035H7.28656V83.0234H11.0327V86.9062C10.7228 87.2253 10.2602 87.5215 9.64496 87.7949C9.02973 88.0684 8.28917 88.2051 7.42328 88.2051C6.10167 88.2051 5.04666 87.7767 4.25824 86.9199C3.47439 86.0632 3.08246 84.8691 3.08246 83.3379ZM13.8346 88V80.8086H15.1061V88H13.8346ZM13.6773 78.6348C13.6773 78.4206 13.7457 78.2406 13.8824 78.0947C14.0191 77.9489 14.2151 77.876 14.4703 77.876C14.7255 77.876 14.9215 77.9489 15.0582 78.0947C15.1949 78.2406 15.2633 78.4206 15.2633 78.6348C15.2633 78.849 15.1949 79.029 15.0582 79.1748C14.9215 79.3206 14.7255 79.3936 14.4703 79.3936C14.2151 79.3936 14.0191 79.3206 13.8824 79.1748C13.7457 79.029 13.6773 78.849 13.6773 78.6348ZM17.0193 80.8086H18.2498L19.9861 85.6074C20.0499 85.7897 20.1023 85.9606 20.1433 86.1201C20.1889 86.2796 20.2208 86.4049 20.239 86.4961H20.28C20.2983 86.4049 20.3279 86.2796 20.3689 86.1201C20.4145 85.9606 20.4692 85.7897 20.533 85.6074L22.2556 80.8086H23.4588L20.7244 88H19.7537L17.0193 80.8086ZM24.7841 84.5137V84.2949C24.7841 83.2103 25.0803 82.3239 25.6728 81.6357C26.2698 80.9476 27.0582 80.6035 28.038 80.6035C29.0178 80.6035 29.7721 80.9248 30.3007 81.5674C30.8294 82.21 31.0937 83.0781 31.0937 84.1719V84.6914H25.5634V83.6797H29.8154V83.5156C29.8154 82.9961 29.6672 82.554 29.371 82.1895C29.0748 81.8249 28.6487 81.6426 28.0927 81.6426C27.4182 81.6426 26.9146 81.9001 26.582 82.415C26.2493 82.9255 26.0829 83.5521 26.0829 84.2949V84.5137C26.0829 85.2565 26.2584 85.8854 26.6093 86.4004C26.9602 86.9108 27.5048 87.166 28.2431 87.166C28.6988 87.166 29.0907 87.0658 29.4189 86.8652C29.747 86.6647 30.0136 86.4277 30.2187 86.1543L31.039 86.8037C30.8111 87.1455 30.4579 87.4645 29.9794 87.7607C29.5055 88.057 28.9267 88.2051 28.2431 88.2051C27.1266 88.2051 26.2698 87.861 25.6728 87.1729C25.0803 86.4847 24.7841 85.5983 24.7841 84.5137ZM37.7981 84.7871V78.0469H39.1106V84.7871C39.1106 85.5618 39.3202 86.1383 39.7395 86.5166C40.1633 86.8949 40.717 87.084 41.4006 87.084C42.0842 87.084 42.6357 86.8949 43.0549 86.5166C43.4788 86.1383 43.6907 85.5618 43.6907 84.7871V78.0469H45.0032V84.7871C45.0032 85.9264 44.6523 86.7809 43.9504 87.3506C43.2532 87.9202 42.4032 88.2051 41.4006 88.2051C40.398 88.2051 39.5458 87.9202 38.844 87.3506C38.1467 86.7809 37.7981 85.9264 37.7981 84.7871ZM48.0648 88V78.0469H54.2309V79.127H49.3773V82.5244H53.5541V83.6045H49.3773V88H48.0648ZM56.6295 88V78.0469H58.3248L61.2779 85.5322C61.3326 85.6689 61.3827 85.8125 61.4283 85.9629C61.4784 86.1087 61.5217 86.25 61.5582 86.3867H61.6129C61.6493 86.25 61.6903 86.1087 61.7359 85.9629C61.786 85.8125 61.8384 85.6689 61.8931 85.5322L64.8463 78.0469H66.5416V88H65.2701V80.8223C65.2701 80.6855 65.2724 80.5329 65.2769 80.3643C65.2815 80.1911 65.2929 80.0361 65.3111 79.8994H65.2564C65.2291 80.0361 65.188 80.1911 65.1334 80.3643C65.0787 80.5329 65.024 80.6855 64.9693 80.8223L62.1392 88H61.0045L58.1744 80.8223C58.1197 80.6855 58.065 80.5329 58.0103 80.3643C57.9556 80.1911 57.9146 80.0361 57.8873 79.8994H57.8326C57.8508 80.0361 57.8622 80.1911 57.8668 80.3643C57.8713 80.5329 57.8736 80.6855 57.8736 80.8223V88H56.6295ZM22.7752 101.279V101.197H24.0877V101.279C24.0877 101.881 24.2905 102.332 24.6961 102.633C25.1017 102.934 25.669 103.084 26.3982 103.084C27.1274 103.084 27.6856 102.929 28.073 102.619C28.4604 102.309 28.6541 101.904 28.6541 101.402C28.6541 100.947 28.4649 100.582 28.0867 100.309C27.713 100.035 27.0043 99.748 25.9607 99.4473C24.8761 99.1328 24.1082 98.766 23.657 98.3467C23.2058 97.9229 22.9802 97.3236 22.9802 96.5488C22.9802 95.7741 23.2765 95.1292 23.8689 94.6143C24.4614 94.0993 25.2817 93.8418 26.3298 93.8418C27.378 93.8418 28.212 94.113 28.8318 94.6553C29.4516 95.1976 29.7615 95.888 29.7615 96.7266V96.8086H28.449V96.7266C28.449 96.1979 28.2712 95.7718 27.9158 95.4482C27.5603 95.1247 27.0317 94.9629 26.3298 94.9629C25.628 94.9629 25.1108 95.1019 24.7781 95.3799C24.4454 95.6579 24.2791 96.0361 24.2791 96.5146C24.2791 96.9476 24.45 97.2894 24.7918 97.54C25.1336 97.7907 25.8377 98.0664 26.9041 98.3672C27.9705 98.668 28.7452 99.0439 29.2283 99.4951C29.7114 99.9463 29.9529 100.582 29.9529 101.402C29.9529 102.223 29.6339 102.895 28.9959 103.419C28.3578 103.943 27.492 104.205 26.3982 104.205C25.3045 104.205 24.4272 103.943 23.7664 103.419C23.1056 102.895 22.7752 102.182 22.7752 101.279ZM32.4062 104V93.5H33.6777V104H32.4062ZM36.6573 104V96.8086H37.9288V104H36.6573ZM36.5001 94.6348C36.5001 94.4206 36.5684 94.2406 36.7052 94.0947C36.8419 93.9489 37.0378 93.876 37.293 93.876C37.5483 93.876 37.7442 93.9489 37.8809 94.0947C38.0177 94.2406 38.086 94.4206 38.086 94.6348C38.086 94.849 38.0177 95.029 37.8809 95.1748C37.7442 95.3206 37.5483 95.3936 37.293 95.3936C37.0378 95.3936 36.8419 95.3206 36.7052 95.1748C36.5684 95.029 36.5001 94.849 36.5001 94.6348ZM40.8538 106.844V96.8086H42.0022L42.0569 97.7451H42.0979C42.2802 97.4489 42.5582 97.196 42.9319 96.9863C43.3101 96.7767 43.7499 96.6719 44.2512 96.6719C45.1627 96.6719 45.8918 97.0137 46.4387 97.6973C46.9856 98.3809 47.259 99.2467 47.259 100.295V100.514C47.259 101.562 46.9856 102.428 46.4387 103.111C45.8918 103.795 45.1627 104.137 44.2512 104.137C43.7499 104.137 43.3215 104.048 42.9661 103.87C42.6151 103.688 42.3349 103.449 42.1252 103.152V106.844H40.8538ZM42.1252 101.867C42.2665 102.186 42.4967 102.471 42.8157 102.722C43.1347 102.972 43.522 103.098 43.9778 103.098C44.6614 103.098 45.1627 102.849 45.4817 102.353C45.8007 101.856 45.9602 101.243 45.9602 100.514V100.295C45.9602 99.5658 45.8007 98.9528 45.4817 98.4561C45.1627 97.9593 44.6614 97.7109 43.9778 97.7109C43.522 97.7109 43.1347 97.8363 42.8157 98.0869C42.4967 98.3376 42.2665 98.6224 42.1252 98.9414V101.867Z" fill="black"/>
<path d="M27 9L29 13H49L51 9H27ZM29 15V20C29 20 29 31 39 31C49 31 49 20 49 20V15H29ZM12.936 20.944C11.8765 20.9608 10.867 21.3974 10.1291 22.1579C9.39112 22.9183 8.98506 23.9405 9.00003 25V41C8.99954 41.5993 9.13371 42.191 9.39263 42.7315C9.65155 43.272 10.0286 43.7474 10.4959 44.1225C10.9633 44.4977 11.5089 44.7631 12.0926 44.899C12.6763 45.035 13.283 45.038 13.868 44.908L25 42.428V61L48.516 33.28C47.9481 33.1047 47.3583 33.0105 46.764 33H31L17 36.016V25C17.0076 24.4646 16.9076 23.9331 16.7059 23.4371C16.5043 22.941 16.2051 22.4905 15.8261 22.1123C15.4471 21.734 14.996 21.4357 14.4995 21.235C14.0031 21.0343 13.4714 20.9354 12.936 20.944ZM51.992 35.844L30.648 61H53V39.236C53 37.98 52.624 36.82 51.992 35.844Z" fill="white"/>
</svg>
