<svg width="96" height="107" viewBox="0 0 96 107" fill="none" xmlns="http://www.w3.org/2000/svg">
<rect x="16.3373" width="64.4578" height="64.4578" rx="10" fill="#1A4BCB"/>
<g clip-path="url(#clip0_1354_865)">
<path d="M48 53.6667C59.9662 53.6667 69.6667 43.9662 69.6667 32C69.6667 20.0339 59.9662 10.3334 48 10.3334C36.0338 10.3334 26.3333 20.0339 26.3333 32C26.3333 43.9662 36.0338 53.6667 48 53.6667Z" stroke="white" stroke-width="2" stroke-linecap="round" stroke-linejoin="round"/>
<path d="M48 40.6667V32" stroke="white" stroke-width="2" stroke-linecap="round" stroke-linejoin="round"/>
<circle cx="48" cy="23.3333" r="2.16667" fill="white"/>
</g>
<path d="M12.1043 79.2415V78.6125C12.1043 77.0813 12.4963 75.8873 13.2801 75.0305C14.0685 74.1737 15.0848 73.7454 16.329 73.7454C17.4546 73.7454 18.3364 74.0484 18.9745 74.6545C19.617 75.2561 19.9748 75.967 20.0477 76.7874L20.0545 76.8625H18.742V76.7942C18.742 76.3385 18.5301 75.9032 18.1063 75.4885C17.6825 75.0738 17.0855 74.8665 16.3153 74.8665C15.4448 74.8665 14.7453 75.1991 14.2166 75.8645C13.6926 76.5299 13.4305 77.4459 13.4305 78.6125V79.2415C13.4305 80.4081 13.6926 81.3241 14.2166 81.9895C14.7453 82.6549 15.4881 82.9875 16.4452 82.9875C16.9465 82.9875 17.3794 82.9351 17.744 82.8303C18.1086 82.7255 18.4549 82.5592 18.7831 82.3313V80.0071H16.3084V78.927H20.0545V82.8098C19.7446 83.1288 19.2821 83.425 18.6668 83.6985C18.0516 83.9719 17.311 84.1086 16.4452 84.1086C15.1235 84.1086 14.0685 83.6803 13.2801 82.8235C12.4963 81.9667 12.1043 80.7727 12.1043 79.2415ZM22.7266 81.3538V76.7122H23.9981V81.3674C23.9981 81.9417 24.1257 82.3541 24.3809 82.6047C24.6406 82.8508 25.0075 82.9739 25.4815 82.9739C25.8871 82.9739 26.2448 82.8645 26.5547 82.6458C26.8646 82.427 27.1061 82.1444 27.2793 81.7981V76.7122H28.5508V83.9036H27.4024L27.3477 82.9807H27.3066C27.0469 83.3088 26.7279 83.5686 26.3496 83.76C25.9759 83.9469 25.5612 84.0403 25.1055 84.0403C24.3809 84.0403 23.8021 83.8352 23.3691 83.425C22.9408 83.0103 22.7266 82.3199 22.7266 81.3538ZM31.4757 83.9036V76.7122H32.7472V83.9036H31.4757ZM31.3185 74.5383C31.3185 74.3241 31.3869 74.1441 31.5236 73.9983C31.6603 73.8525 31.8563 73.7795 32.1115 73.7795C32.3667 73.7795 32.5627 73.8525 32.6994 73.9983C32.8361 74.1441 32.9045 74.3241 32.9045 74.5383C32.9045 74.7525 32.8361 74.9325 32.6994 75.0784C32.5627 75.2242 32.3667 75.2971 32.1115 75.2971C31.8563 75.2971 31.6603 75.2242 31.5236 75.0784C31.3869 74.9325 31.3185 74.7525 31.3185 74.5383ZM35.2415 80.4172V80.1985C35.2415 79.1503 35.515 78.2844 36.0618 77.6008C36.6087 76.9172 37.3379 76.5754 38.2493 76.5754C38.7506 76.5754 39.1768 76.6666 39.5277 76.8489C39.8831 77.0266 40.1657 77.2636 40.3753 77.5598V73.4036H41.6468V83.9036H40.4984L40.4437 82.967H40.4027C40.2204 83.2633 39.9401 83.5162 39.5618 83.7258C39.1881 83.9355 38.7506 84.0403 38.2493 84.0403C37.3379 84.0403 36.6087 83.6985 36.0618 83.0149C35.515 82.3313 35.2415 81.4654 35.2415 80.4172ZM36.5404 80.4172C36.5404 81.1464 36.6999 81.7594 37.0189 82.2561C37.3379 82.7528 37.8392 83.0012 38.5228 83.0012C38.9785 83.0012 39.3659 82.8759 39.6849 82.6252C40.0039 82.3746 40.234 82.0898 40.3753 81.7708V78.845C40.234 78.526 40.0039 78.2411 39.6849 77.9905C39.3659 77.7398 38.9785 77.6145 38.5228 77.6145C37.8392 77.6145 37.3379 77.8629 37.0189 78.3596C36.6999 78.8564 36.5404 79.4693 36.5404 80.1985V80.4172ZM44.0796 80.4172V80.1985C44.0796 79.1139 44.3758 78.2275 44.9683 77.5393C45.5653 76.8512 46.3537 76.5071 47.3335 76.5071C48.3133 76.5071 49.0675 76.8284 49.5962 77.4709C50.1248 78.1135 50.3891 78.9817 50.3891 80.0754V80.595H44.8589V79.5833H49.1108V79.4192C49.1108 78.8997 48.9627 78.4576 48.6665 78.093C48.3703 77.7284 47.9442 77.5461 47.3882 77.5461C46.7137 77.5461 46.2101 77.8036 45.8774 78.3186C45.5447 78.829 45.3784 79.4556 45.3784 80.1985V80.4172C45.3784 81.1601 45.5539 81.789 45.9048 82.304C46.2557 82.8144 46.8003 83.0696 47.5386 83.0696C47.9943 83.0696 48.3862 82.9693 48.7143 82.7688C49.0425 82.5683 49.3091 82.3313 49.5141 82.0579L50.3345 82.7073C50.1066 83.0491 49.7534 83.3681 49.2749 83.6643C48.8009 83.9605 48.2222 84.1086 47.5386 84.1086C46.422 84.1086 45.5653 83.7646 44.9683 83.0764C44.3758 82.3883 44.0796 81.5019 44.0796 80.4172ZM52.8424 83.9036V73.4036H54.1139V83.9036H52.8424ZM57.0936 83.9036V76.7122H58.365V83.9036H57.0936ZM56.9363 74.5383C56.9363 74.3241 57.0047 74.1441 57.1414 73.9983C57.2781 73.8525 57.4741 73.7795 57.7293 73.7795C57.9845 73.7795 58.1805 73.8525 58.3172 73.9983C58.4539 74.1441 58.5223 74.3241 58.5223 74.5383C58.5223 74.7525 58.4539 74.9325 58.3172 75.0784C58.1805 75.2242 57.9845 75.2971 57.7293 75.2971C57.4741 75.2971 57.2781 75.2242 57.1414 75.0784C57.0047 74.9325 56.9363 74.7525 56.9363 74.5383ZM61.29 83.9036V76.7122H62.4384L62.4931 77.635H62.5341C62.7939 77.3069 63.1106 77.0494 63.4843 76.8625C63.8626 76.6711 64.2796 76.5754 64.7353 76.5754C65.4599 76.5754 66.0364 76.7828 66.4648 77.1975C66.8978 77.6077 67.1142 78.2958 67.1142 79.262V83.9036H65.8427V79.2483C65.8427 78.6741 65.7129 78.2639 65.4531 78.0178C65.1979 77.7672 64.8333 77.6418 64.3593 77.6418C63.9537 77.6418 63.596 77.7512 63.2861 77.97C62.9762 78.1887 62.7347 78.4713 62.5615 78.8176V83.9036H61.29ZM69.4786 80.4172V80.1985C69.4786 79.1139 69.7749 78.2275 70.3673 77.5393C70.9643 76.8512 71.7527 76.5071 72.7325 76.5071C73.7124 76.5071 74.4666 76.8284 74.9952 77.4709C75.5239 78.1135 75.7882 78.9817 75.7882 80.0754V80.595H70.2579V79.5833H74.5099V79.4192C74.5099 78.8997 74.3618 78.4576 74.0656 78.093C73.7693 77.7284 73.3432 77.5461 72.7872 77.5461C72.1128 77.5461 71.6092 77.8036 71.2765 78.3186C70.9438 78.829 70.7775 79.4556 70.7775 80.1985V80.4172C70.7775 81.1601 70.9529 81.789 71.3038 82.304C71.6547 82.8144 72.1993 83.0696 72.9376 83.0696C73.3934 83.0696 73.7853 82.9693 74.1134 82.7688C74.4415 82.5683 74.7081 82.3313 74.9132 82.0579L75.7335 82.7073C75.5057 83.0491 75.1525 83.3681 74.674 83.6643C74.2 83.9605 73.6212 84.1086 72.9376 84.1086C71.8211 84.1086 70.9643 83.7646 70.3673 83.0764C69.7749 82.3883 69.4786 81.5019 69.4786 80.4172ZM77.722 81.7844H78.9934V81.8186C78.9934 82.2333 79.1461 82.5455 79.4514 82.7551C79.7568 82.9648 80.1601 83.0696 80.6614 83.0696C81.1627 83.0696 81.5569 82.9693 81.844 82.7688C82.1357 82.5683 82.2815 82.3085 82.2815 81.9895C82.2815 81.6705 82.1653 81.4267 81.9329 81.2581C81.7005 81.0849 81.1969 80.9071 80.4221 80.7249C79.6474 80.5426 79.0322 80.2874 78.5764 79.9592C78.1207 79.6265 77.8929 79.164 77.8929 78.5715C77.8929 77.9791 78.1367 77.4869 78.6243 77.095C79.1165 76.703 79.7727 76.5071 80.593 76.5071C81.4134 76.5071 82.0742 76.703 82.5755 77.095C83.0768 77.4823 83.3274 78.0087 83.3274 78.6741V78.7083H82.0628V78.6467C82.0628 78.3049 81.942 78.0361 81.7005 77.8401C81.4635 77.6441 81.0944 77.5461 80.593 77.5461C80.0917 77.5461 79.7249 77.6373 79.4925 77.8196C79.2646 78.0019 79.1507 78.2297 79.1507 78.5032C79.1507 78.7766 79.2828 78.9931 79.5471 79.1526C79.8115 79.3121 80.331 79.483 81.1057 79.6653C81.8805 79.8476 82.4775 80.1096 82.8968 80.4514C83.3206 80.7932 83.5325 81.2831 83.5325 81.9211C83.5325 82.5592 83.2932 83.0833 82.8147 83.4934C82.3362 83.9036 81.6184 84.1086 80.6614 84.1086C79.7044 84.1086 78.9752 83.9013 78.4739 83.4866C77.9726 83.0673 77.722 82.5113 77.722 81.8186V81.7844Z" fill="black"/>
<defs>
<clipPath id="clip0_1354_865">
<rect width="52" height="52" fill="white" transform="translate(22 6)"/>
</clipPath>
</defs>
</svg>
