<svg width="96" height="107" viewBox="0 0 96 107" fill="none" xmlns="http://www.w3.org/2000/svg">
<rect x="16.3373" width="64.4578" height="64.4578" rx="10" fill="#F2692E"/>
<path d="M28.9153 81.1829V81.1008H30.2278V81.1829C30.2278 81.7844 30.4306 82.2356 30.8362 82.5364C31.2418 82.8372 31.8092 82.9875 32.5383 82.9875C33.2675 82.9875 33.8258 82.8326 34.2131 82.5227C34.6005 82.2128 34.7942 81.8072 34.7942 81.3059C34.7942 80.8502 34.6051 80.4856 34.2268 80.2122C33.8531 79.9387 33.1444 79.6516 32.1008 79.3508C31.0162 79.0364 30.2483 78.6695 29.7971 78.2502C29.3459 77.8264 29.1204 77.2271 29.1204 76.4524C29.1204 75.6777 29.4166 75.0328 30.009 74.5178C30.6015 74.0028 31.4218 73.7454 32.47 73.7454C33.5181 73.7454 34.3521 74.0165 34.9719 74.5588C35.5917 75.1012 35.9016 75.7916 35.9016 76.6301V76.7122H34.5891V76.6301C34.5891 76.1015 34.4114 75.6754 34.0559 75.3518C33.7004 75.0282 33.1718 74.8665 32.47 74.8665C31.7681 74.8665 31.2509 75.0055 30.9182 75.2834C30.5855 75.5614 30.4192 75.9397 30.4192 76.4182C30.4192 76.8512 30.5901 77.193 30.9319 77.4436C31.2737 77.6943 31.9778 77.97 33.0442 78.2708C34.1106 78.5715 34.8853 78.9475 35.3684 79.3987C35.8515 79.8499 36.093 80.4856 36.093 81.3059C36.093 82.1262 35.774 82.7984 35.136 83.3225C34.498 83.8466 33.6321 84.1086 32.5383 84.1086C31.4446 84.1086 30.5673 83.8466 29.9065 83.3225C29.2457 82.7984 28.9153 82.0852 28.9153 81.1829ZM38.4916 83.9036V73.4036H39.7631V77.6008C40.0183 77.2909 40.3419 77.0426 40.7338 76.8557C41.1257 76.6689 41.5541 76.5754 42.019 76.5754C42.6889 76.5754 43.238 76.7828 43.6664 77.1975C44.0994 77.6077 44.3158 78.2958 44.3158 79.262V83.9036H43.0443V79.2483C43.0443 78.6741 42.9145 78.2639 42.6547 78.0178C42.3995 77.7672 42.0349 77.6418 41.5609 77.6418C41.1553 77.6418 40.7976 77.7512 40.4877 77.97C40.1778 78.1887 39.9363 78.4713 39.7631 78.8176V83.9036H38.4916ZM46.6802 80.4172V80.1985C46.6802 79.1139 46.9765 78.2275 47.5689 77.5393C48.1659 76.8512 48.9543 76.5071 49.9341 76.5071C50.914 76.5071 51.6682 76.8284 52.1968 77.4709C52.7255 78.1135 52.9898 78.9817 52.9898 80.0754V80.595H47.4595V79.5833H51.7115V79.4192C51.7115 78.8997 51.5634 78.4576 51.2672 78.093C50.9709 77.7284 50.5448 77.5461 49.9888 77.5461C49.3144 77.5461 48.8108 77.8036 48.4781 78.3186C48.1454 78.829 47.9791 79.4556 47.9791 80.1985V80.4172C47.9791 81.1601 48.1545 81.789 48.5054 82.304C48.8563 82.8144 49.4009 83.0696 50.1392 83.0696C50.595 83.0696 50.9869 82.9693 51.315 82.7688C51.6431 82.5683 51.9097 82.3313 52.1148 82.0579L52.9351 82.7073C52.7073 83.0491 52.3541 83.3681 51.8756 83.6643C51.4016 83.9605 50.8228 84.1086 50.1392 84.1086C49.0227 84.1086 48.1659 83.7646 47.5689 83.0764C46.9765 82.3883 46.6802 81.5019 46.6802 80.4172ZM54.9577 80.4172V80.1985C54.9577 79.1139 55.254 78.2275 55.8464 77.5393C56.4434 76.8512 57.2318 76.5071 58.2116 76.5071C59.1915 76.5071 59.9457 76.8284 60.4743 77.4709C61.003 78.1135 61.2673 78.9817 61.2673 80.0754V80.595H55.737V79.5833H59.989V79.4192C59.989 78.8997 59.8409 78.4576 59.5447 78.093C59.2484 77.7284 58.8223 77.5461 58.2663 77.5461C57.5919 77.5461 57.0883 77.8036 56.7556 78.3186C56.4229 78.829 56.2566 79.4556 56.2566 80.1985V80.4172C56.2566 81.1601 56.432 81.789 56.7829 82.304C57.1338 82.8144 57.6784 83.0696 58.4167 83.0696C58.8725 83.0696 59.2644 82.9693 59.5925 82.7688C59.9206 82.5683 60.1872 82.3313 60.3923 82.0579L61.2126 82.7073C60.9848 83.0491 60.6316 83.3681 60.1531 83.6643C59.6791 83.9605 59.1003 84.1086 58.4167 84.1086C57.3002 84.1086 56.4434 83.7646 55.8464 83.0764C55.254 82.3883 54.9577 81.5019 54.9577 80.4172ZM62.6542 77.6829V76.7122H66.7557V77.6829H62.6542ZM63.9393 82.1262V77.3V77.095V74.9348H65.2108V82.1262C65.2108 82.4452 65.2746 82.6731 65.4022 82.8098C65.5298 82.9465 65.7304 83.0149 66.0038 83.0149C66.1314 83.0149 66.2567 83.0012 66.3798 82.9739C66.5028 82.9465 66.6281 82.9101 66.7557 82.8645V83.9036C66.6373 83.9583 66.4823 84.0061 66.2909 84.0471C66.0995 84.0881 65.8899 84.1086 65.662 84.1086C65.1379 84.1086 64.7186 83.9491 64.4042 83.6301C64.0943 83.3111 63.9393 82.8098 63.9393 82.1262ZM24.6808 97.1829V97.1008H25.9933V97.1829C25.9933 97.7844 26.1961 98.2356 26.6017 98.5364C27.0073 98.8372 27.5747 98.9875 28.3039 98.9875C29.033 98.9875 29.5913 98.8326 29.9787 98.5227C30.366 98.2128 30.5597 97.8072 30.5597 97.3059C30.5597 96.8502 30.3706 96.4856 29.9923 96.2122C29.6187 95.9387 28.91 95.6516 27.8664 95.3508C26.7817 95.0364 26.0138 94.6695 25.5627 94.2502C25.1115 93.8264 24.8859 93.2271 24.8859 92.4524C24.8859 91.6777 25.1821 91.0328 25.7746 90.5178C26.367 90.0028 27.1873 89.7454 28.2355 89.7454C29.2837 89.7454 30.1177 90.0165 30.7375 90.5588C31.3573 91.1012 31.6672 91.7916 31.6672 92.6301V92.7122H30.3547V92.6301C30.3547 92.1015 30.1769 91.6754 29.8215 91.3518C29.466 91.0282 28.9373 90.8665 28.2355 90.8665C27.5337 90.8665 27.0164 91.0055 26.6838 91.2834C26.3511 91.5614 26.1847 91.9397 26.1847 92.4182C26.1847 92.8512 26.3556 93.193 26.6974 93.4436C27.0392 93.6943 27.7433 93.97 28.8097 94.2708C29.8761 94.5715 30.6509 94.9475 31.134 95.3987C31.617 95.8499 31.8586 96.4856 31.8586 97.3059C31.8586 98.1262 31.5396 98.7984 30.9015 99.3225C30.2635 99.8466 29.3976 100.109 28.3039 100.109C27.2101 100.109 26.3328 99.8466 25.672 99.3225C25.0112 98.7984 24.6808 98.0852 24.6808 97.1829ZM33.8265 96.4172V96.1985C33.8265 95.1139 34.1227 94.2275 34.7152 93.5393C35.3122 92.8512 36.1006 92.5071 37.0804 92.5071C38.0602 92.5071 38.8144 92.8284 39.3431 93.4709C39.8717 94.1135 40.1361 94.9817 40.1361 96.0754V96.595H34.6058V95.5833H38.8577V95.4192C38.8577 94.8997 38.7096 94.4576 38.4134 94.093C38.1172 93.7284 37.6911 93.5461 37.1351 93.5461C36.4606 93.5461 35.957 93.8036 35.6243 94.3186C35.2917 94.829 35.1253 95.4556 35.1253 96.1985V96.4172C35.1253 97.1601 35.3008 97.789 35.6517 98.304C36.0026 98.8144 36.5472 99.0696 37.2855 99.0696C37.7412 99.0696 38.1331 98.9693 38.4613 98.7688C38.7894 98.5683 39.056 98.3313 39.2611 98.0579L40.0814 98.7073C39.8535 99.0491 39.5003 99.3681 39.0218 99.6643C38.5478 99.9605 37.9691 100.109 37.2855 100.109C36.1689 100.109 35.3122 99.7646 34.7152 99.0764C34.1227 98.3883 33.8265 97.5019 33.8265 96.4172ZM42.1382 97.7844C42.1382 97.0553 42.4276 96.4879 43.0063 96.0823C43.5851 95.6767 44.3211 95.4739 45.2143 95.4739H46.8413V94.9817C46.8413 94.5487 46.7296 94.1978 46.5063 93.929C46.283 93.6555 45.8979 93.5188 45.3511 93.5188C44.8042 93.5188 44.4123 93.6327 44.1753 93.8606C43.9429 94.0839 43.8266 94.3437 43.8266 94.6399V94.6741H42.562V94.6399C42.562 94.0702 42.8149 93.5735 43.3208 93.1497C43.8312 92.7213 44.5194 92.5071 45.3852 92.5071C46.2511 92.5071 46.921 92.7144 47.395 93.1292C47.8735 93.5439 48.1128 94.1614 48.1128 94.9817V98.2629C48.1128 98.5592 48.1356 98.8394 48.1811 99.1038C48.2267 99.3635 48.2905 99.5937 48.3725 99.7942V99.9036H47.1421C47.0783 99.7896 47.019 99.6415 46.9643 99.4592C46.9142 99.2769 46.8823 99.0946 46.8686 98.9124C46.7 99.2086 46.4266 99.4706 46.0483 99.6985C45.6746 99.9264 45.1916 100.04 44.5991 100.04C43.9155 100.04 43.3345 99.8466 42.8559 99.4592C42.3774 99.0719 42.1382 98.5136 42.1382 97.7844ZM43.4097 97.7161C43.4097 98.1262 43.5281 98.4475 43.7651 98.6799C44.0021 98.9124 44.3712 99.0286 44.8725 99.0286C45.3738 99.0286 45.8273 98.8554 46.2329 98.509C46.6385 98.1627 46.8413 97.7958 46.8413 97.4084V96.3762H45.3511C44.713 96.3762 44.23 96.497 43.9018 96.7385C43.5737 96.9801 43.4097 97.3059 43.4097 97.7161ZM50.9352 99.9036V92.7122H52.0836L52.1383 93.635H52.1793C52.3616 93.3342 52.6009 93.0722 52.8971 92.8489C53.1933 92.621 53.5465 92.5071 53.9567 92.5071C54.0569 92.5071 54.1618 92.5185 54.2711 92.5413C54.3805 92.564 54.458 92.5846 54.5036 92.6028V93.7786C54.4124 93.7603 54.3167 93.7467 54.2165 93.7375C54.1162 93.7284 54.0068 93.7239 53.8883 93.7239C53.4782 93.7239 53.1295 93.831 52.8424 94.0452C52.5553 94.2594 52.3434 94.526 52.2067 94.845V99.9036H50.9352ZM55.993 96.4172V96.1985C55.993 95.1139 56.2869 94.2275 56.8748 93.5393C57.4673 92.8512 58.2807 92.5071 59.3152 92.5071C60.2723 92.5071 60.9992 92.7668 61.4959 93.2864C61.9926 93.8014 62.241 94.3778 62.241 95.0159V95.05H61.0106V95.0159C61.0106 94.6285 60.8761 94.2867 60.6072 93.9905C60.3384 93.6943 59.9077 93.5461 59.3152 93.5461C58.6225 93.5461 58.1121 93.8036 57.784 94.3186C57.4559 94.829 57.2918 95.4556 57.2918 96.1985V96.4172C57.2918 97.1601 57.4559 97.789 57.784 98.304C58.1121 98.8144 58.6225 99.0696 59.3152 99.0696C59.9077 99.0696 60.3384 98.9215 60.6072 98.6252C60.8761 98.329 61.0106 97.9872 61.0106 97.5999V97.5657H62.241V97.5999C62.241 98.2379 61.9926 98.8167 61.4959 99.3362C60.9992 99.8512 60.2723 100.109 59.3152 100.109C58.2807 100.109 57.4673 99.7646 56.8748 99.0764C56.2869 98.3883 55.993 97.5019 55.993 96.4172ZM64.5644 99.9036V89.4036H65.8359V93.6008C66.0911 93.2909 66.4147 93.0426 66.8066 92.8557C67.1985 92.6689 67.6269 92.5754 68.0918 92.5754C68.7617 92.5754 69.3108 92.7828 69.7392 93.1975C70.1722 93.6077 70.3886 94.2958 70.3886 95.262V99.9036H69.1172V95.2483C69.1172 94.6741 68.9873 94.2639 68.7275 94.0178C68.4723 93.7672 68.1077 93.6418 67.6338 93.6418C67.2282 93.6418 66.8704 93.7512 66.5605 93.97C66.2506 94.1887 66.0091 94.4713 65.8359 94.8176V99.9036H64.5644Z" fill="black"/>
<path fill-rule="evenodd" clip-rule="evenodd" d="M66.1073 32.6762C65.0769 32.6762 64.2406 33.5126 64.2406 34.543C64.2406 35.5734 65.0769 36.4096 66.1073 36.4096C67.1377 36.4096 67.974 35.5734 67.974 34.543C67.974 33.5126 67.1377 32.6762 66.1073 32.6762ZM51.1737 47.61C50.1433 47.61 49.307 48.4461 49.307 49.4765C49.307 50.5069 50.1433 51.3433 51.1737 51.3433C52.2041 51.3433 53.0404 50.5069 53.0404 49.4765C53.0404 48.4461 52.2041 47.61 51.1737 47.61ZM58.6405 47.61C57.6101 47.61 56.7738 48.4461 56.7738 49.4765C56.7738 50.5069 57.6101 51.3433 58.6405 51.3433C59.6709 51.3433 60.5072 50.5069 60.5072 49.4765C60.5072 48.4461 59.6709 47.61 58.6405 47.61ZM66.1073 47.61C65.0769 47.61 64.2406 48.4461 64.2406 49.4765C64.2406 50.5069 65.0769 51.3433 66.1073 51.3433C67.1377 51.3433 67.974 50.5069 67.974 49.4765C67.974 48.4461 67.1377 47.61 66.1073 47.61ZM36.466 45.5173C35.7379 44.7874 34.5563 44.7874 33.8264 45.5173L32.5067 46.837L31.1869 45.5173C30.457 44.7874 29.2754 44.7874 28.5474 45.5173C27.8175 46.2453 27.8175 47.427 28.5474 48.1568L29.8672 49.4765L28.5474 50.7964C27.8175 51.5263 27.8175 52.7077 28.5474 53.4357C29.2754 54.1656 30.457 54.1656 31.1869 53.4357L32.5067 52.1161L33.8264 53.4357C34.5563 54.1656 35.7379 54.1656 36.466 53.4357C37.1958 52.7077 37.1958 51.5263 36.466 50.7964L35.1462 49.4765L36.466 48.1568C37.1958 47.427 37.1958 46.2453 36.466 45.5173ZM32.5067 17.7427C33.5371 17.7427 34.3734 16.9064 34.3734 15.8759C34.3734 14.8455 33.5371 14.0092 32.5067 14.0092C31.4763 14.0092 30.64 14.8455 30.64 15.8759C30.64 16.9064 31.4763 17.7427 32.5067 17.7427ZM66.1073 40.1431C65.0769 40.1431 64.2406 40.9795 64.2406 42.0099C64.2406 43.0403 65.0769 43.8764 66.1073 43.8764C67.1377 43.8764 67.974 43.0403 67.974 42.0099C67.974 40.9795 67.1377 40.1431 66.1073 40.1431ZM39.9735 14.0092C38.9431 14.0092 38.1068 14.8455 38.1068 15.8759C38.1068 16.9064 38.9431 17.7427 39.9735 17.7427C41.0039 17.7427 41.8402 16.9064 41.8402 15.8759C41.8402 14.8455 41.0039 14.0092 39.9735 14.0092ZM47.4403 14.0092C46.4099 14.0092 45.5736 14.8455 45.5736 15.8759C45.5736 16.9064 46.4099 17.7427 47.4403 17.7427C48.4707 17.7427 49.307 16.9064 49.307 15.8759C49.307 14.8455 48.4707 14.0092 47.4403 14.0092ZM32.5067 25.2094C33.5371 25.2094 34.3734 24.3732 34.3734 23.3428C34.3734 22.3124 33.5371 21.476 32.5067 21.476C31.4763 21.476 30.64 22.3124 30.64 23.3428C30.64 24.3732 31.4763 25.2094 32.5067 25.2094ZM32.5067 40.1431C33.5371 40.1431 34.3734 39.3068 34.3734 38.2763C34.3734 37.2459 33.5371 36.4096 32.5067 36.4096C31.4763 36.4096 30.64 37.2459 30.64 38.2763C30.64 39.3068 31.4763 40.1431 32.5067 40.1431ZM43.7069 47.61C42.6765 47.61 41.8402 48.4461 41.8402 49.4765C41.8402 50.5069 42.6765 51.3433 43.7069 51.3433C44.7373 51.3433 45.5736 50.5069 45.5736 49.4765C45.5736 48.4461 44.7373 47.61 43.7069 47.61ZM67.4271 24.6625L57.3207 14.5563C56.6487 13.8843 55.8852 14.0092 54.9071 14.0092C53.8767 14.0092 53.0404 14.8455 53.0404 15.8759V25.2094C53.0404 27.2702 54.7111 28.9429 56.7738 28.9429H66.1073C67.1377 28.9429 67.974 28.1066 67.974 27.0761C67.974 26.098 68.0991 25.3345 67.4271 24.6625ZM30.64 30.8095C30.64 29.779 31.4763 28.9429 32.5067 28.9429C33.5371 28.9429 34.3734 29.779 34.3734 30.8095C34.3734 31.8399 33.5371 32.6762 32.5067 32.6762C31.4763 32.6762 30.64 31.8399 30.64 30.8095Z" fill="white"/>
</svg>
