<svg width="96" height="107" viewBox="0 0 96 107" fill="none" xmlns="http://www.w3.org/2000/svg">
<rect x="16.3373" width="64.4578" height="64.4578" rx="10" fill="#1A4BCB"/>
<path d="M33 51.5V47.1667C33 44.8681 33.9131 42.6637 35.5384 41.0384C37.1637 39.4131 39.3681 38.5 41.6667 38.5H49.25M61.1667 53.6667V53.6883M61.1667 47.1667C62.138 47.1636 63.0802 46.8347 63.8424 46.2327C64.6047 45.6308 65.143 44.7905 65.3712 43.8463C65.5994 42.9022 65.5042 41.9088 65.101 41.0251C64.6977 40.1415 64.0097 39.4187 63.147 38.9723C62.2851 38.5308 61.2991 38.3939 60.3494 38.5839C59.3998 38.7739 58.5424 39.2796 57.9167 40.0188M37.3333 21.1667C37.3333 23.4652 38.2464 25.6696 39.8717 27.2949C41.4971 28.9202 43.7015 29.8333 46 29.8333C48.2985 29.8333 50.5029 28.9202 52.1283 27.2949C53.7536 25.6696 54.6667 23.4652 54.6667 21.1667C54.6667 18.8681 53.7536 16.6637 52.1283 15.0384C50.5029 13.4131 48.2985 12.5 46 12.5C43.7015 12.5 41.4971 13.4131 39.8717 15.0384C38.2464 16.6637 37.3333 18.8681 37.3333 21.1667Z" stroke="white" stroke-width="5" stroke-linecap="round" stroke-linejoin="round"/>
<path d="M14.8759 83.9036V73.9504H16.5712L19.5243 81.4358C19.579 81.5725 19.6292 81.7161 19.6747 81.8665C19.7249 82.0123 19.7682 82.1536 19.8046 82.2903H19.8593C19.8958 82.1536 19.9368 82.0123 19.9823 81.8665C20.0325 81.7161 20.0849 81.5725 20.1396 81.4358L23.0927 73.9504H24.788V83.9036H23.5165V76.7258C23.5165 76.5891 23.5188 76.4364 23.5234 76.2678C23.5279 76.0946 23.5393 75.9397 23.5575 75.803H23.5029C23.4755 75.9397 23.4345 76.0946 23.3798 76.2678C23.3251 76.4364 23.2704 76.5891 23.2157 76.7258L20.3857 83.9036H19.2509L16.4208 76.7258C16.3661 76.5891 16.3115 76.4364 16.2568 76.2678C16.2021 76.0946 16.1611 75.9397 16.1337 75.803H16.079C16.0973 75.9397 16.1087 76.0946 16.1132 76.2678C16.1178 76.4364 16.12 76.5891 16.12 76.7258V83.9036H14.8759ZM27.1319 86.7473V85.6672C27.2504 85.7037 27.3826 85.7333 27.5284 85.7561C27.6742 85.7789 27.8155 85.7903 27.9522 85.7903C28.2712 85.7903 28.5492 85.6695 28.7862 85.428C29.0232 85.191 29.2738 84.6737 29.5382 83.8762V83.8694L26.8585 76.7122H28.089L29.7911 81.4426C29.8549 81.6249 29.9119 81.7958 29.962 81.9553C30.0121 82.1148 30.0554 82.2629 30.0919 82.3997H30.1329C30.1739 82.2629 30.2195 82.1148 30.2696 81.9553C30.3243 81.7958 30.3813 81.6249 30.4405 81.4426L32.0265 76.7122H33.2296L30.3106 84.8606C30.0828 85.4986 29.7797 85.9954 29.4015 86.3508C29.0278 86.7063 28.5675 86.884 28.0206 86.884C27.8383 86.884 27.6765 86.8726 27.5352 86.8499C27.394 86.8271 27.2595 86.7929 27.1319 86.7473ZM39.4897 83.9036V73.9504H42.7846C43.8783 73.9504 44.7191 74.2262 45.307 74.7776C45.8949 75.3245 46.1889 76.0536 46.1889 76.9651C46.1889 77.8765 45.8949 78.6125 45.307 79.1731C44.7191 79.7291 43.8783 80.0071 42.7846 80.0071H40.8022V83.9036H39.4897ZM40.8022 78.927H42.7846C43.5593 78.927 44.1016 78.7379 44.4115 78.3596C44.7214 77.9768 44.8764 77.512 44.8764 76.9651C44.8764 76.4182 44.7214 75.9602 44.4115 75.5911C44.1016 75.2174 43.5593 75.0305 42.7846 75.0305H40.8022V78.927ZM48.3824 83.9036V76.7122H49.5308L49.5855 77.635H49.6265C49.8088 77.3342 50.0481 77.0722 50.3443 76.8489C50.6405 76.621 50.9937 76.5071 51.4039 76.5071C51.5041 76.5071 51.609 76.5185 51.7183 76.5413C51.8277 76.564 51.9052 76.5846 51.9507 76.6028V77.7786C51.8596 77.7603 51.7639 77.7467 51.6636 77.7375C51.5634 77.7284 51.454 77.7239 51.3355 77.7239C50.9254 77.7239 50.5767 77.831 50.2896 78.0452C50.0025 78.2594 49.7906 78.526 49.6539 78.845V83.9036H48.3824ZM53.4402 80.4172V80.1985C53.4402 79.1139 53.7478 78.2275 54.363 77.5393C54.9782 76.8512 55.8008 76.5071 56.8308 76.5071C57.8607 76.5071 58.6833 76.8512 59.2986 77.5393C59.9138 78.2275 60.2214 79.1139 60.2214 80.1985V80.4172C60.2214 81.5019 59.9138 82.3883 59.2986 83.0764C58.6833 83.7646 57.8607 84.1086 56.8308 84.1086C55.8008 84.1086 54.9782 83.7646 54.363 83.0764C53.7478 82.3883 53.4402 81.5019 53.4402 80.4172ZM54.739 80.1985V80.4172C54.739 81.1601 54.9144 81.789 55.2654 82.304C55.6163 82.8144 56.1381 83.0696 56.8308 83.0696C57.5235 83.0696 58.0453 82.8144 58.3962 82.304C58.7471 81.789 58.9226 81.1601 58.9226 80.4172V80.1985C58.9226 79.4556 58.7471 78.829 58.3962 78.3186C58.0453 77.8036 57.5235 77.5461 56.8308 77.5461C56.1381 77.5461 55.6163 77.8036 55.2654 78.3186C54.9144 78.829 54.739 79.4556 54.739 80.1985ZM62.9823 83.9036V75.7004C62.9823 74.9075 63.1988 74.3036 63.6317 73.8889C64.0647 73.4742 64.6548 73.2668 65.4022 73.2668C65.5481 73.2668 65.6962 73.276 65.8466 73.2942C65.997 73.3124 66.1405 73.3398 66.2772 73.3762L66.2089 74.4016C66.1086 74.3834 66.0015 74.3674 65.8876 74.3538C65.7737 74.3401 65.6574 74.3333 65.539 74.3333C65.1288 74.3333 64.8121 74.4472 64.5888 74.675C64.3654 74.9029 64.2538 75.2447 64.2538 75.7004V77.1223V77.2727V83.9036H62.9823ZM61.8134 77.6829V76.7122H63.4608H63.7753H65.8124V77.6829H61.8134ZM66.8173 83.9036V76.7122H68.0888V83.9036H66.8173ZM66.66 74.5383C66.66 74.3241 66.7284 74.1441 66.8651 73.9983C67.0018 73.8525 67.1978 73.7795 67.453 73.7795C67.7082 73.7795 67.9042 73.8525 68.0409 73.9983C68.1776 74.1441 68.246 74.3241 68.246 74.5383C68.246 74.7525 68.1776 74.9325 68.0409 75.0784C67.9042 75.2242 67.7082 75.2971 67.453 75.2971C67.1978 75.2971 67.0018 75.2242 66.8651 75.0784C66.7284 74.9325 66.66 74.7525 66.66 74.5383ZM71.0684 83.9036V73.4036H72.3399V83.9036H71.0684ZM74.8273 80.4172V80.1985C74.8273 79.1139 75.1236 78.2275 75.716 77.5393C76.313 76.8512 77.1014 76.5071 78.0813 76.5071C79.0611 76.5071 79.8153 76.8284 80.3439 77.4709C80.8726 78.1135 81.1369 78.9817 81.1369 80.0754V80.595H75.6066V79.5833H79.8586V79.4192C79.8586 78.8997 79.7105 78.4576 79.4143 78.093C79.118 77.7284 78.6919 77.5461 78.1359 77.5461C77.4615 77.5461 76.9579 77.8036 76.6252 78.3186C76.2925 78.829 76.1262 79.4556 76.1262 80.1985V80.4172C76.1262 81.1601 76.3016 81.789 76.6525 82.304C77.0035 82.8144 77.548 83.0696 78.2863 83.0696C78.7421 83.0696 79.134 82.9693 79.4621 82.7688C79.7902 82.5683 80.0568 82.3313 80.2619 82.0579L81.0822 82.7073C80.8544 83.0491 80.5012 83.3681 80.0227 83.6643C79.5487 83.9605 78.9699 84.1086 78.2863 84.1086C77.1698 84.1086 76.313 83.7646 75.716 83.0764C75.1236 82.3883 74.8273 81.5019 74.8273 80.4172Z" fill="black"/>
</svg>
