<svg width="89" height="107" viewBox="0 0 89 107" fill="none" xmlns="http://www.w3.org/2000/svg">
<rect x="12.8916" width="64.4578" height="64.4578" rx="10" fill="#F2692E"/>
<path d="M28.1973 73.9504H29.5919L32.2306 81.3196C32.2852 81.47 32.3308 81.6044 32.3673 81.7229C32.4037 81.8368 32.4425 81.9622 32.4835 82.0989H32.545C32.586 81.9622 32.6248 81.8368 32.6612 81.7229C32.7022 81.6044 32.7501 81.47 32.8048 81.3196L35.4708 73.9504H36.8106L33.0919 83.9719H31.9161L28.1973 73.9504ZM38.7239 83.9036V76.7122H39.9954V83.9036H38.7239ZM38.5666 74.5383C38.5666 74.3241 38.635 74.1441 38.7717 73.9983C38.9084 73.8525 39.1044 73.7795 39.3596 73.7795C39.6148 73.7795 39.8108 73.8525 39.9475 73.9983C40.0842 74.1441 40.1526 74.3241 40.1526 74.5383C40.1526 74.7525 40.0842 74.9325 39.9475 75.0784C39.8108 75.2242 39.6148 75.2971 39.3596 75.2971C39.1044 75.2971 38.9084 75.2242 38.7717 75.0784C38.635 74.9325 38.5666 74.7525 38.5666 74.5383ZM42.4897 80.4172V80.1985C42.4897 79.1139 42.7859 78.2275 43.3783 77.5393C43.9753 76.8512 44.7637 76.5071 45.7436 76.5071C46.7234 76.5071 47.4776 76.8284 48.0063 77.4709C48.5349 78.1135 48.7992 78.9817 48.7992 80.0754V80.595H43.269V79.5833H47.5209V79.4192C47.5209 78.8997 47.3728 78.4576 47.0766 78.093C46.7803 77.7284 46.3542 77.5461 45.7982 77.5461C45.1238 77.5461 44.6202 77.8036 44.2875 78.3186C43.9548 78.829 43.7885 79.4556 43.7885 80.1985V80.4172C43.7885 81.1601 43.9639 81.789 44.3148 82.304C44.6658 82.8144 45.2104 83.0696 45.9486 83.0696C46.4044 83.0696 46.7963 82.9693 47.1244 82.7688C47.4525 82.5683 47.7191 82.3313 47.9242 82.0579L48.7445 82.7073C48.5167 83.0491 48.1635 83.3681 47.685 83.6643C47.211 83.9605 46.6322 84.1086 45.9486 84.1086C44.8321 84.1086 43.9753 83.7646 43.3783 83.0764C42.7859 82.3883 42.4897 81.5019 42.4897 80.4172ZM50.357 76.7122H51.5875L52.9136 81.4426C52.9638 81.6249 53.0025 81.773 53.0298 81.887C53.0617 82.0009 53.0959 82.149 53.1324 82.3313H53.1734C53.2099 82.149 53.2418 82.0009 53.2691 81.887C53.301 81.773 53.3466 81.6249 53.4058 81.4426L54.9713 76.7122H56.0377L57.6509 81.4426C57.7147 81.6249 57.7603 81.773 57.7877 81.887C57.8196 82.0009 57.8537 82.149 57.8902 82.3313H57.9312C57.9677 82.149 57.9973 82.0009 58.0201 81.887C58.0474 81.773 58.0862 81.6249 58.1363 81.4426L59.4214 76.7122H60.5836L58.3619 83.9036H57.3707L55.8052 79.2551C55.746 79.0728 55.689 78.8905 55.6343 78.7083C55.5842 78.526 55.5364 78.3437 55.4908 78.1614H55.4498C55.4042 78.3437 55.3541 78.526 55.2994 78.7083C55.2492 78.8905 55.1946 79.0728 55.1353 79.2551L53.5699 83.9036H52.5787L50.357 76.7122ZM30.3643 99.9036V89.9504H33.3175C34.5935 89.9504 35.6554 90.372 36.503 91.2151C37.3552 92.0582 37.7813 93.1907 37.7813 94.6125V95.2415C37.7813 96.6633 37.3552 97.7958 36.503 98.6389C35.6554 99.482 34.5935 99.9036 33.3175 99.9036H30.3643ZM31.6768 98.8235H33.3175C34.2745 98.8235 35.0356 98.5068 35.6007 97.8733C36.1703 97.2398 36.4552 96.3625 36.4552 95.2415V94.6125C36.4552 93.4915 36.1703 92.6142 35.6007 91.9807C35.0356 91.3472 34.2745 91.0305 33.3175 91.0305H31.6768V98.8235ZM40.3508 97.3538V92.7122H41.6223V97.3674C41.6223 97.9417 41.7499 98.3541 42.0051 98.6047C42.2649 98.8508 42.6317 98.9739 43.1057 98.9739C43.5113 98.9739 43.8691 98.8645 44.1789 98.6458C44.4888 98.427 44.7304 98.1444 44.9036 97.7981V92.7122H46.175V99.9036H45.0266L44.9719 98.9807H44.9309C44.6711 99.3088 44.3521 99.5686 43.9739 99.76C43.6002 99.9469 43.1855 100.04 42.7297 100.04C42.0051 100.04 41.4263 99.8352 40.9934 99.425C40.565 99.0103 40.3508 98.3199 40.3508 97.3538ZM48.0268 93.6829V92.7122H52.1283V93.6829H48.0268ZM49.3119 98.1262V93.3V93.095V90.9348H50.5834V98.1262C50.5834 98.4452 50.6472 98.6731 50.7748 98.8098C50.9024 98.9465 51.1029 99.0149 51.3764 99.0149C51.504 99.0149 51.6293 99.0012 51.7523 98.9739C51.8754 98.9465 52.0007 98.9101 52.1283 98.8645V99.9036C52.0098 99.9583 51.8549 100.006 51.6635 100.047C51.4721 100.088 51.2624 100.109 51.0346 100.109C50.5105 100.109 50.0912 99.9491 49.7768 99.6301C49.4669 99.3111 49.3119 98.8098 49.3119 98.1262ZM53.6519 102.747V101.667C53.7704 101.704 53.9026 101.733 54.0484 101.756C54.1942 101.779 54.3355 101.79 54.4722 101.79C54.7912 101.79 55.0692 101.67 55.3062 101.428C55.5432 101.191 55.7938 100.674 56.0582 99.8762V99.8694L53.3785 92.7122H54.6089L56.3111 97.4426C56.3749 97.6249 56.4319 97.7958 56.482 97.9553C56.5321 98.1148 56.5754 98.2629 56.6119 98.3997H56.6529C56.6939 98.2629 56.7395 98.1148 56.7896 97.9553C56.8443 97.7958 56.9013 97.6249 56.9605 97.4426L58.5464 92.7122H59.7496L56.8306 100.861C56.6028 101.499 56.2997 101.995 55.9214 102.351C55.5477 102.706 55.0875 102.884 54.5406 102.884C54.3583 102.884 54.1965 102.873 54.0552 102.85C53.914 102.827 53.7795 102.793 53.6519 102.747Z" fill="black"/>
<path d="M40.6667 14.1667C40.6667 14.7957 40.1568 15.3056 39.5278 15.3056C38.8988 15.3056 38.3889 14.7957 38.3889 14.1667C38.3889 12.2797 39.9186 10.75 41.8056 10.75H48.6389C50.5259 10.75 52.0556 12.2797 52.0556 14.1667C52.0556 14.7957 51.5457 15.3056 50.9167 15.3056C50.2877 15.3056 49.7778 14.7957 49.7778 14.1667C49.7778 13.5377 49.2679 13.0278 48.6389 13.0278H41.8056C41.1766 13.0278 40.6667 13.5377 40.6667 14.1667ZM32.6944 13.0278C33.3234 13.0278 33.8333 13.5377 33.8333 14.1667C33.8333 14.7957 33.3234 15.3056 32.6944 15.3056C30.8075 15.3056 29.2778 16.8352 29.2778 18.7222V46.0556C29.2778 47.9425 30.8075 49.4722 32.6944 49.4722H57.75C59.637 49.4722 61.1667 47.9425 61.1667 46.0556V18.7222C61.1667 16.8352 59.637 15.3056 57.75 15.3056C57.121 15.3056 56.6111 14.7957 56.6111 14.1667C56.6111 13.5377 57.121 13.0278 57.75 13.0278C60.895 13.0278 63.4444 15.5773 63.4444 18.7222V46.0556C63.4444 49.2005 60.895 51.75 57.75 51.75H32.6944C29.5495 51.75 27 49.2005 27 46.0556V18.7222C27 15.5773 29.5495 13.0278 32.6944 13.0278Z" fill="white"/>
<path d="M52.3891 24.7502C52.8339 24.3054 53.555 24.3054 53.9998 24.7502C54.4445 25.195 54.4445 25.9161 53.9998 26.3608L42.6109 37.7497C42.1661 38.1945 41.445 38.1945 41.0002 37.7497L36.4447 33.1942C35.9999 32.7494 35.9999 32.0283 36.4447 31.5835C36.8895 31.1388 37.6106 31.1388 38.0553 31.5835L41.8056 35.3338L52.3891 24.7502Z" fill="white"/>
</svg>
