<svg width="96" height="107" viewBox="0 0 96 107" fill="none" xmlns="http://www.w3.org/2000/svg">
<rect x="16.3373" width="64.4578" height="64.4578" rx="10" fill="#777777"/>
<path d="M22.0118 83.9036V73.9504H23.7071L26.6602 81.4358C26.7149 81.5725 26.7651 81.7161 26.8106 81.8665C26.8608 82.0123 26.9041 82.1536 26.9405 82.2903H26.9952C27.0317 82.1536 27.0727 82.0123 27.1182 81.8665C27.1684 81.7161 27.2208 81.5725 27.2755 81.4358L30.2286 73.9504H31.9239V83.9036H30.6524V76.7258C30.6524 76.5891 30.6547 76.4364 30.6593 76.2678C30.6638 76.0946 30.6752 75.9397 30.6934 75.803H30.6388C30.6114 75.9397 30.5704 76.0946 30.5157 76.2678C30.461 76.4364 30.4063 76.5891 30.3516 76.7258L27.5216 83.9036H26.3868L23.5567 76.7258C23.502 76.5891 23.4473 76.4364 23.3927 76.2678C23.338 76.0946 23.297 75.9397 23.2696 75.803H23.2149C23.2332 75.9397 23.2446 76.0946 23.2491 76.2678C23.2537 76.4364 23.2559 76.5891 23.2559 76.7258V83.9036H22.0118ZM34.9993 83.9036V76.7122H36.2707V83.9036H34.9993ZM34.842 74.5383C34.842 74.3241 34.9104 74.1441 35.0471 73.9983C35.1838 73.8525 35.3798 73.7795 35.635 73.7795C35.8902 73.7795 36.0862 73.8525 36.2229 73.9983C36.3596 74.1441 36.428 74.3241 36.428 74.5383C36.428 74.7525 36.3596 74.9325 36.2229 75.0784C36.0862 75.2242 35.8902 75.2971 35.635 75.2971C35.3798 75.2971 35.1838 75.2242 35.0471 75.0784C34.9104 74.9325 34.842 74.7525 34.842 74.5383ZM38.7309 81.7844H40.0023V81.8186C40.0023 82.2333 40.155 82.5455 40.4604 82.7551C40.7657 82.9648 41.169 83.0696 41.6703 83.0696C42.1716 83.0696 42.5658 82.9693 42.8529 82.7688C43.1446 82.5683 43.2904 82.3085 43.2904 81.9895C43.2904 81.6705 43.1742 81.4267 42.9418 81.2581C42.7094 81.0849 42.2058 80.9071 41.4311 80.7249C40.6563 80.5426 40.0411 80.2874 39.5854 79.9592C39.1296 79.6265 38.9018 79.164 38.9018 78.5715C38.9018 77.9791 39.1456 77.4869 39.6332 77.095C40.1254 76.703 40.7816 76.5071 41.602 76.5071C42.4223 76.5071 43.0831 76.703 43.5844 77.095C44.0857 77.4823 44.3363 78.0087 44.3363 78.6741V78.7083H43.0717V78.6467C43.0717 78.3049 42.9509 78.0361 42.7094 77.8401C42.4724 77.6441 42.1033 77.5461 41.602 77.5461C41.1007 77.5461 40.7338 77.6373 40.5014 77.8196C40.2735 78.0019 40.1596 78.2297 40.1596 78.5032C40.1596 78.7766 40.2917 78.9931 40.5561 79.1526C40.8204 79.3121 41.3399 79.483 42.1147 79.6653C42.8894 79.8476 43.4864 80.1096 43.9057 80.4514C44.3295 80.7932 44.5414 81.2831 44.5414 81.9211C44.5414 82.5592 44.3022 83.0833 43.8236 83.4934C43.3451 83.9036 42.6273 84.1086 41.6703 84.1086C40.7133 84.1086 39.9841 83.9013 39.4828 83.4866C38.9815 83.0673 38.7309 82.5113 38.7309 81.8186V81.7844ZM46.4752 81.7844H47.7466V81.8186C47.7466 82.2333 47.8993 82.5455 48.2047 82.7551C48.51 82.9648 48.9133 83.0696 49.4146 83.0696C49.9159 83.0696 50.3101 82.9693 50.5972 82.7688C50.8889 82.5683 51.0347 82.3085 51.0347 81.9895C51.0347 81.6705 50.9185 81.4267 50.6861 81.2581C50.4537 81.0849 49.9501 80.9071 49.1754 80.7249C48.4006 80.5426 47.7854 80.2874 47.3297 79.9592C46.8739 79.6265 46.6461 79.164 46.6461 78.5715C46.6461 77.9791 46.8899 77.4869 47.3775 77.095C47.8697 76.703 48.5259 76.5071 49.3463 76.5071C50.1666 76.5071 50.8274 76.703 51.3287 77.095C51.83 77.4823 52.0806 78.0087 52.0806 78.6741V78.7083H50.816V78.6467C50.816 78.3049 50.6952 78.0361 50.4537 77.8401C50.2167 77.6441 49.8476 77.5461 49.3463 77.5461C48.845 77.5461 48.4781 77.6373 48.2457 77.8196C48.0178 78.0019 47.9039 78.2297 47.9039 78.5032C47.9039 78.7766 48.036 78.9931 48.3004 79.1526C48.5647 79.3121 49.0842 79.483 49.859 79.6653C50.6337 79.8476 51.2307 80.1096 51.65 80.4514C52.0738 80.7932 52.2857 81.2831 52.2857 81.9211C52.2857 82.5592 52.0465 83.0833 51.5679 83.4934C51.0894 83.9036 50.3716 84.1086 49.4146 84.1086C48.4576 84.1086 47.7284 83.9013 47.2271 83.4866C46.7258 83.0673 46.4752 82.5113 46.4752 81.8186V81.7844ZM54.7458 83.9036V76.7122H56.0173V83.9036H54.7458ZM54.5886 74.5383C54.5886 74.3241 54.657 74.1441 54.7937 73.9983C54.9304 73.8525 55.1264 73.7795 55.3816 73.7795C55.6368 73.7795 55.8327 73.8525 55.9695 73.9983C56.1062 74.1441 56.1745 74.3241 56.1745 74.5383C56.1745 74.7525 56.1062 74.9325 55.9695 75.0784C55.8327 75.2242 55.6368 75.2971 55.3816 75.2971C55.1264 75.2971 54.9304 75.2242 54.7937 75.0784C54.657 74.9325 54.5886 74.7525 54.5886 74.5383ZM58.9423 83.9036V76.7122H60.0907L60.1454 77.635H60.1864C60.4462 77.3069 60.7629 77.0494 61.1366 76.8625C61.5149 76.6711 61.9319 76.5754 62.3876 76.5754C63.1122 76.5754 63.6887 76.7828 64.1171 77.1975C64.55 77.6077 64.7665 78.2958 64.7665 79.262V83.9036H63.495V79.2483C63.495 78.6741 63.3651 78.2639 63.1054 78.0178C62.8501 77.7672 62.4856 77.6418 62.0116 77.6418C61.606 77.6418 61.2483 77.7512 60.9384 77.97C60.6285 78.1887 60.3869 78.4713 60.2138 78.8176V83.9036H58.9423ZM67.3975 85.845L68.1973 84.8879C68.3978 85.1204 68.6804 85.3254 69.045 85.5032C69.4096 85.6855 69.8197 85.7766 70.2754 85.7766C70.8907 85.7766 71.376 85.6012 71.7315 85.2502C72.087 84.8993 72.2647 84.4049 72.2647 83.7668V83.0559C72.0551 83.3521 71.7725 83.5914 71.417 83.7737C71.0661 83.9514 70.64 84.0403 70.1387 84.0403C69.2273 84.0403 68.4981 83.6985 67.9512 83.0149C67.4043 82.3313 67.1309 81.4654 67.1309 80.4172V80.1985C67.1309 79.1503 67.4043 78.2844 67.9512 77.6008C68.4981 76.9172 69.2273 76.5754 70.1387 76.5754C70.64 76.5754 71.0775 76.6803 71.4512 76.8899C71.8295 77.0995 72.1097 77.3525 72.292 77.6487H72.3331L72.3877 76.7122H73.5362V83.7668C73.5362 84.7694 73.2377 85.5396 72.6407 86.0774C72.0437 86.6152 71.2666 86.884 70.3096 86.884C69.7172 86.884 69.1703 86.7861 68.669 86.5901C68.1677 86.3941 67.7439 86.1458 67.3975 85.845ZM68.4297 80.4172C68.4297 81.1464 68.5892 81.7594 68.9082 82.2561C69.2273 82.7528 69.7286 83.0012 70.4122 83.0012C70.8679 83.0012 71.2553 82.8759 71.5743 82.6252C71.8933 82.3746 72.1234 82.0898 72.2647 81.7708V78.845C72.1234 78.526 71.8933 78.2411 71.5743 77.9905C71.2553 77.7398 70.8679 77.6145 70.4122 77.6145C69.7286 77.6145 69.2273 77.8629 68.9082 78.3596C68.5892 78.8564 68.4297 79.4693 68.4297 80.1985V80.4172ZM13.1943 99.9036L16.9814 89.8821H18.1572L21.9443 99.9036H20.5771L17.8427 92.384C17.788 92.2336 17.7402 92.0878 17.6991 91.9465C17.6581 91.8053 17.6217 91.6594 17.5898 91.509H17.5214C17.4895 91.6594 17.4531 91.8053 17.412 91.9465C17.371 92.0878 17.3232 92.2336 17.2685 92.384L14.5068 99.9036H13.1943ZM14.8212 97.3059L15.2245 96.2258H19.9003L20.2968 97.3059H14.8212ZM23.796 99.9036V92.7122H24.9444L24.9991 93.635H25.0401C25.2999 93.3069 25.6166 93.0494 25.9903 92.8625C26.3686 92.6711 26.7856 92.5754 27.2413 92.5754C27.9659 92.5754 28.5424 92.7828 28.9708 93.1975C29.4037 93.6077 29.6202 94.2958 29.6202 95.262V99.9036H28.3487V95.2483C28.3487 94.6741 28.2188 94.2639 27.9591 94.0178C27.7039 93.7672 27.3393 93.6418 26.8653 93.6418C26.4597 93.6418 26.102 93.7512 25.7921 93.97C25.4822 94.1887 25.2406 94.4713 25.0675 94.8176V99.9036H23.796ZM31.9504 97.7844H33.2219V97.8186C33.2219 98.2333 33.3746 98.5455 33.6799 98.7551C33.9853 98.9648 34.3886 99.0696 34.8899 99.0696C35.3912 99.0696 35.7854 98.9693 36.0725 98.7688C36.3642 98.5683 36.51 98.3085 36.51 97.9895C36.51 97.6705 36.3938 97.4267 36.1614 97.2581C35.929 97.0849 35.4254 96.9071 34.6506 96.7249C33.8759 96.5426 33.2607 96.2874 32.8049 95.9592C32.3492 95.6265 32.1213 95.164 32.1213 94.5715C32.1213 93.9791 32.3651 93.4869 32.8528 93.095C33.345 92.703 34.0012 92.5071 34.8215 92.5071C35.6418 92.5071 36.3026 92.703 36.804 93.095C37.3053 93.4823 37.5559 94.0087 37.5559 94.6741V94.7083H36.2913V94.6467C36.2913 94.3049 36.1705 94.0361 35.929 93.8401C35.692 93.6441 35.3228 93.5461 34.8215 93.5461C34.3202 93.5461 33.9534 93.6373 33.7209 93.8196C33.4931 94.0019 33.3791 94.2297 33.3791 94.5032C33.3791 94.7766 33.5113 94.9931 33.7756 95.1526C34.04 95.3121 34.5595 95.483 35.3342 95.6653C36.109 95.8476 36.706 96.1096 37.1252 96.4514C37.5491 96.7932 37.761 97.2831 37.761 97.9211C37.761 98.5592 37.5217 99.0833 37.0432 99.4934C36.5647 99.9036 35.8469 100.109 34.8899 100.109C33.9329 100.109 33.2037 99.9013 32.7024 99.4866C32.2011 99.0673 31.9504 98.5113 31.9504 97.8186V97.7844ZM44.0211 97.1829V97.1008H45.3336V97.1829C45.3336 97.7844 45.5364 98.2356 45.942 98.5364C46.3476 98.8372 46.9149 98.9875 47.6441 98.9875C48.3733 98.9875 48.9315 98.8326 49.3189 98.5227C49.7063 98.2128 49.9 97.8072 49.9 97.3059C49.9 96.8502 49.7108 96.4856 49.3326 96.2122C48.9589 95.9387 48.2502 95.6516 47.2066 95.3508C46.122 95.0364 45.3541 94.6695 44.9029 94.2502C44.4517 93.8264 44.2261 93.2271 44.2261 92.4524C44.2261 91.6777 44.5224 91.0328 45.1148 90.5178C45.7073 90.0028 46.5276 89.7454 47.5757 89.7454C48.6239 89.7454 49.4579 90.0165 50.0777 90.5588C50.6975 91.1012 51.0074 91.7916 51.0074 92.6301V92.7122H49.6949V92.6301C49.6949 92.1015 49.5172 91.6754 49.1617 91.3518C48.8062 91.0282 48.2776 90.8665 47.5757 90.8665C46.8739 90.8665 46.3567 91.0055 46.024 91.2834C45.6913 91.5614 45.525 91.9397 45.525 92.4182C45.525 92.8512 45.6959 93.193 46.0377 93.4436C46.3795 93.6943 47.0836 93.97 48.15 94.2708C49.2164 94.5715 49.9911 94.9475 50.4742 95.3987C50.9573 95.8499 51.1988 96.4856 51.1988 97.3059C51.1988 98.1262 50.8798 98.7984 50.2418 99.3225C49.6037 99.8466 48.7379 100.109 47.6441 100.109C46.5504 100.109 45.6731 99.8466 45.0123 99.3225C44.3515 98.7984 44.0211 98.0852 44.0211 97.1829ZM53.5974 99.9036V89.4036H54.8689V93.6008C55.1241 93.2909 55.4476 93.0426 55.8396 92.8557C56.2315 92.6689 56.6599 92.5754 57.1247 92.5754C57.7947 92.5754 58.3438 92.7828 58.7722 93.1975C59.2051 93.6077 59.4216 94.2958 59.4216 95.262V99.9036H58.1501V95.2483C58.1501 94.6741 58.0202 94.2639 57.7605 94.0178C57.5053 93.7672 57.1407 93.6418 56.6667 93.6418C56.2611 93.6418 55.9034 93.7512 55.5935 93.97C55.2836 94.1887 55.0421 94.4713 54.8689 94.8176V99.9036H53.5974ZM61.786 96.4172V96.1985C61.786 95.1139 62.0822 94.2275 62.6747 93.5393C63.2717 92.8512 64.0601 92.5071 65.0399 92.5071C66.0197 92.5071 66.774 92.8284 67.3026 93.4709C67.8313 94.1135 68.0956 94.9817 68.0956 96.0754V96.595H62.5653V95.5833H66.8173V95.4192C66.8173 94.8997 66.6692 94.4576 66.3729 94.093C66.0767 93.7284 65.6506 93.5461 65.0946 93.5461C64.4201 93.5461 63.9166 93.8036 63.5839 94.3186C63.2512 94.829 63.0849 95.4556 63.0849 96.1985V96.4172C63.0849 97.1601 63.2603 97.789 63.6112 98.304C63.9621 98.8144 64.5067 99.0696 65.245 99.0696C65.7007 99.0696 66.0927 98.9693 66.4208 98.7688C66.7489 98.5683 67.0155 98.3313 67.2206 98.0579L68.0409 98.7073C67.813 99.0491 67.4599 99.3681 66.9813 99.6643C66.5074 99.9605 65.9286 100.109 65.245 100.109C64.1285 100.109 63.2717 99.7646 62.6747 99.0764C62.0822 98.3883 61.786 97.5019 61.786 96.4172ZM70.0635 96.4172V96.1985C70.0635 95.1139 70.3597 94.2275 70.9522 93.5393C71.5492 92.8512 72.3376 92.5071 73.3174 92.5071C74.2972 92.5071 75.0515 92.8284 75.5801 93.4709C76.1088 94.1135 76.3731 94.9817 76.3731 96.0754V96.595H70.8428V95.5833H75.0948V95.4192C75.0948 94.8997 74.9467 94.4576 74.6504 94.093C74.3542 93.7284 73.9281 93.5461 73.3721 93.5461C72.6976 93.5461 72.1941 93.8036 71.8614 94.3186C71.5287 94.829 71.3624 95.4556 71.3624 96.1985V96.4172C71.3624 97.1601 71.5378 97.789 71.8887 98.304C72.2396 98.8144 72.7842 99.0696 73.5225 99.0696C73.9782 99.0696 74.3702 98.9693 74.6983 98.7688C75.0264 98.5683 75.293 98.3313 75.4981 98.0579L76.3184 98.7073C76.0905 99.0491 75.7374 99.3681 75.2588 99.6643C74.7849 99.9605 74.2061 100.109 73.5225 100.109C72.406 100.109 71.5492 99.7646 70.9522 99.0764C70.3597 98.3883 70.0635 97.5019 70.0635 96.4172ZM77.76 93.6829V92.7122H81.8615V93.6829H77.76ZM79.0451 98.1262V93.3V93.095V90.9348H80.3166V98.1262C80.3166 98.4452 80.3804 98.6731 80.508 98.8098C80.6356 98.9465 80.8361 99.0149 81.1096 99.0149C81.2372 99.0149 81.3625 99.0012 81.4855 98.9739C81.6086 98.9465 81.7339 98.9101 81.8615 98.8645V99.9036C81.743 99.9583 81.5881 100.006 81.3967 100.047C81.2053 100.088 80.9956 100.109 80.7678 100.109C80.2437 100.109 79.8244 99.9491 79.51 99.6301C79.2001 99.3111 79.0451 98.8098 79.0451 98.1262Z" fill="black"/>
<path fill-rule="evenodd" clip-rule="evenodd" d="M66.1073 32.6762C65.0769 32.6762 64.2406 33.5126 64.2406 34.543C64.2406 35.5734 65.0769 36.4096 66.1073 36.4096C67.1377 36.4096 67.974 35.5734 67.974 34.543C67.974 33.5126 67.1377 32.6762 66.1073 32.6762ZM51.1737 47.61C50.1433 47.61 49.307 48.4461 49.307 49.4765C49.307 50.5069 50.1433 51.3433 51.1737 51.3433C52.2041 51.3433 53.0404 50.5069 53.0404 49.4765C53.0404 48.4461 52.2041 47.61 51.1737 47.61ZM58.6405 47.61C57.6101 47.61 56.7738 48.4461 56.7738 49.4765C56.7738 50.5069 57.6101 51.3433 58.6405 51.3433C59.6709 51.3433 60.5072 50.5069 60.5072 49.4765C60.5072 48.4461 59.6709 47.61 58.6405 47.61ZM66.1073 47.61C65.0769 47.61 64.2406 48.4461 64.2406 49.4765C64.2406 50.5069 65.0769 51.3433 66.1073 51.3433C67.1377 51.3433 67.974 50.5069 67.974 49.4765C67.974 48.4461 67.1377 47.61 66.1073 47.61ZM36.466 45.5173C35.7379 44.7874 34.5563 44.7874 33.8264 45.5173L32.5067 46.837L31.1869 45.5173C30.457 44.7874 29.2754 44.7874 28.5474 45.5173C27.8175 46.2453 27.8175 47.427 28.5474 48.1568L29.8672 49.4765L28.5474 50.7964C27.8175 51.5263 27.8175 52.7077 28.5474 53.4357C29.2754 54.1656 30.457 54.1656 31.1869 53.4357L32.5067 52.1161L33.8264 53.4357C34.5563 54.1656 35.7379 54.1656 36.466 53.4357C37.1958 52.7077 37.1958 51.5263 36.466 50.7964L35.1462 49.4765L36.466 48.1568C37.1958 47.427 37.1958 46.2453 36.466 45.5173ZM32.5067 17.7427C33.5371 17.7427 34.3734 16.9064 34.3734 15.8759C34.3734 14.8455 33.5371 14.0092 32.5067 14.0092C31.4763 14.0092 30.64 14.8455 30.64 15.8759C30.64 16.9064 31.4763 17.7427 32.5067 17.7427ZM66.1073 40.1431C65.0769 40.1431 64.2406 40.9795 64.2406 42.0099C64.2406 43.0403 65.0769 43.8764 66.1073 43.8764C67.1377 43.8764 67.974 43.0403 67.974 42.0099C67.974 40.9795 67.1377 40.1431 66.1073 40.1431ZM39.9735 14.0092C38.9431 14.0092 38.1068 14.8455 38.1068 15.8759C38.1068 16.9064 38.9431 17.7427 39.9735 17.7427C41.0039 17.7427 41.8402 16.9064 41.8402 15.8759C41.8402 14.8455 41.0039 14.0092 39.9735 14.0092ZM47.4403 14.0092C46.4099 14.0092 45.5736 14.8455 45.5736 15.8759C45.5736 16.9064 46.4099 17.7427 47.4403 17.7427C48.4707 17.7427 49.307 16.9064 49.307 15.8759C49.307 14.8455 48.4707 14.0092 47.4403 14.0092ZM32.5067 25.2094C33.5371 25.2094 34.3734 24.3732 34.3734 23.3428C34.3734 22.3124 33.5371 21.476 32.5067 21.476C31.4763 21.476 30.64 22.3124 30.64 23.3428C30.64 24.3732 31.4763 25.2094 32.5067 25.2094ZM32.5067 40.1431C33.5371 40.1431 34.3734 39.3068 34.3734 38.2763C34.3734 37.2459 33.5371 36.4096 32.5067 36.4096C31.4763 36.4096 30.64 37.2459 30.64 38.2763C30.64 39.3068 31.4763 40.1431 32.5067 40.1431ZM43.7069 47.61C42.6765 47.61 41.8402 48.4461 41.8402 49.4765C41.8402 50.5069 42.6765 51.3433 43.7069 51.3433C44.7373 51.3433 45.5736 50.5069 45.5736 49.4765C45.5736 48.4461 44.7373 47.61 43.7069 47.61ZM67.4271 24.6625L57.3207 14.5563C56.6487 13.8843 55.8852 14.0092 54.9071 14.0092C53.8767 14.0092 53.0404 14.8455 53.0404 15.8759V25.2094C53.0404 27.2702 54.7111 28.9429 56.7738 28.9429H66.1073C67.1377 28.9429 67.974 28.1066 67.974 27.0761C67.974 26.098 68.0991 25.3345 67.4271 24.6625ZM30.64 30.8095C30.64 29.779 31.4763 28.9429 32.5067 28.9429C33.5371 28.9429 34.3734 29.779 34.3734 30.8095C34.3734 31.8399 33.5371 32.6762 32.5067 32.6762C31.4763 32.6762 30.64 31.8399 30.64 30.8095Z" fill="white"/>
</svg>
