<svg width="89" height="107" viewBox="0 0 89 107" fill="none" xmlns="http://www.w3.org/2000/svg">
<rect x="10.8916" width="64.4578" height="64.4578" rx="10" fill="#F2692E"/>
<g clip-path="url(#clip0_1354_878)">
<path d="M25.6667 14.6667H38.6667V27.6667H25.6667V14.6667ZM60.3333 14.6667V27.6667H47.3333V14.6667H60.3333ZM47.3333 38.5H51.6667V34.1667H47.3333V29.8333H51.6667V34.1667H56V29.8333H60.3333V34.1667H56V38.5H60.3333V45H56V49.3333H51.6667V45H45.1667V49.3333H40.8333V40.6667H47.3333V38.5ZM51.6667 38.5V45H56V38.5H51.6667ZM25.6667 49.3333V36.3333H38.6667V49.3333H25.6667ZM30 19V23.3333H34.3333V19H30ZM51.6667 19V23.3333H56V19H51.6667ZM30 40.6667V45H34.3333V40.6667H30ZM25.6667 29.8333H30V34.1667H25.6667V29.8333ZM36.5 29.8333H45.1667V38.5H40.8333V34.1667H36.5V29.8333ZM40.8333 19H45.1667V27.6667H40.8333V19ZM21.3333 10.3333V19H17V10.3333C17 9.18406 17.4565 8.08186 18.2692 7.2692C19.0819 6.45655 20.1841 6 21.3333 6H30V10.3333H21.3333ZM64.6667 6C65.8159 6 66.9181 6.45655 67.7308 7.2692C68.5435 8.08186 69 9.18406 69 10.3333V19H64.6667V10.3333H56V6H64.6667ZM21.3333 45V53.6667H30V58H21.3333C20.1841 58 19.0819 57.5435 18.2692 56.7308C17.4565 55.9181 17 54.8159 17 53.6667V45H21.3333ZM64.6667 53.6667V45H69V53.6667C69 54.8159 68.5435 55.9181 67.7308 56.7308C66.9181 57.5435 65.8159 58 64.6667 58H56V53.6667H64.6667Z" fill="white"/>
</g>
<path d="M28.4541 81.1829V81.1008H29.7666V81.1829C29.7666 81.7844 29.9694 82.2356 30.375 82.5364C30.7806 82.8372 31.348 82.9875 32.0772 82.9875C32.8063 82.9875 33.3646 82.8326 33.752 82.5227C34.1393 82.2128 34.333 81.8072 34.333 81.3059C34.333 80.8502 34.1439 80.4856 33.7656 80.2122C33.3919 79.9387 32.6833 79.6516 31.6397 79.3508C30.555 79.0364 29.7871 78.6695 29.3359 78.2502C28.8848 77.8264 28.6592 77.2271 28.6592 76.4524C28.6592 75.6777 28.9554 75.0328 29.5479 74.5178C30.1403 74.0028 30.9606 73.7454 32.0088 73.7454C33.057 73.7454 33.891 74.0165 34.5107 74.5588C35.1305 75.1012 35.4404 75.7916 35.4404 76.6301V76.7122H34.1279V76.6301C34.1279 76.1015 33.9502 75.6754 33.5947 75.3518C33.2393 75.0282 32.7106 74.8665 32.0088 74.8665C31.307 74.8665 30.7897 75.0055 30.457 75.2834C30.1244 75.5614 29.958 75.9397 29.958 76.4182C29.958 76.8512 30.1289 77.193 30.4707 77.4436C30.8125 77.6943 31.5166 77.97 32.583 78.2708C33.6494 78.5715 34.4242 78.9475 34.9072 79.3987C35.3903 79.8499 35.6318 80.4856 35.6318 81.3059C35.6318 82.1262 35.3128 82.7984 34.6748 83.3225C34.0368 83.8466 33.1709 84.1086 32.0772 84.1086C30.9834 84.1086 30.1061 83.8466 29.4453 83.3225C28.7845 82.7984 28.4541 82.0852 28.4541 81.1829ZM37.0187 77.6829V76.7122H41.1203V77.6829H37.0187ZM38.3039 82.1262V77.3V77.095V74.9348H39.5754V82.1262C39.5754 82.4452 39.6392 82.6731 39.7668 82.8098C39.8944 82.9465 40.0949 83.0149 40.3683 83.0149C40.4959 83.0149 40.6213 83.0012 40.7443 82.9739C40.8673 82.9465 40.9927 82.9101 41.1203 82.8645V83.9036C41.0018 83.9583 40.8468 84.0061 40.6554 84.0471C40.464 84.0881 40.2544 84.1086 40.0265 84.1086C39.5024 84.1086 39.0832 83.9491 38.7687 83.6301C38.4588 83.3111 38.3039 82.8098 38.3039 82.1262ZM42.9173 81.7844C42.9173 81.0553 43.2067 80.4879 43.7855 80.0823C44.3642 79.6767 45.1003 79.4739 45.9935 79.4739H47.6204V78.9817C47.6204 78.5487 47.5088 78.1978 47.2855 77.929C47.0622 77.6555 46.6771 77.5188 46.1302 77.5188C45.5833 77.5188 45.1914 77.6327 44.9544 77.8606C44.722 78.0839 44.6058 78.3437 44.6058 78.6399V78.6741H43.3411V78.6399C43.3411 78.0702 43.5941 77.5735 44.0999 77.1497C44.6103 76.7213 45.2985 76.5071 46.1644 76.5071C47.0303 76.5071 47.7002 76.7144 48.1741 77.1292C48.6527 77.5439 48.8919 78.1614 48.8919 78.9817V82.2629C48.8919 82.5592 48.9147 82.8394 48.9603 83.1038C49.0059 83.3635 49.0697 83.5937 49.1517 83.7942V83.9036H47.9212C47.8574 83.7896 47.7982 83.6415 47.7435 83.4592C47.6934 83.2769 47.6614 83.0946 47.6478 82.9124C47.4792 83.2086 47.2057 83.4706 46.8275 83.6985C46.4538 83.9264 45.9707 84.0403 45.3782 84.0403C44.6947 84.0403 44.1136 83.8466 43.6351 83.4592C43.1566 83.0719 42.9173 82.5136 42.9173 81.7844ZM44.1888 81.7161C44.1888 82.1262 44.3073 82.4475 44.5443 82.6799C44.7812 82.9124 45.1504 83.0286 45.6517 83.0286C46.153 83.0286 46.6064 82.8554 47.012 82.509C47.4176 82.1627 47.6204 81.7958 47.6204 81.4084V80.3762H46.1302C45.4922 80.3762 45.0091 80.497 44.681 80.7385C44.3529 80.9801 44.1888 81.3059 44.1888 81.7161ZM51.7143 83.9036V76.7122H52.8628L52.9175 77.635H52.9585C53.1408 77.3342 53.38 77.0722 53.6763 76.8489C53.9725 76.621 54.3257 76.5071 54.7358 76.5071C54.8361 76.5071 54.9409 76.5185 55.0503 76.5413C55.1597 76.564 55.2371 76.5846 55.2827 76.6028V77.7786C55.1916 77.7603 55.0959 77.7467 54.9956 77.7375C54.8953 77.7284 54.786 77.7239 54.6675 77.7239C54.2573 77.7239 53.9087 77.831 53.6216 78.0452C53.3345 78.2594 53.1225 78.526 52.9858 78.845V83.9036H51.7143ZM56.6696 77.6829V76.7122H60.7711V77.6829H56.6696ZM57.9547 82.1262V77.3V77.095V74.9348H59.2262V82.1262C59.2262 82.4452 59.29 82.6731 59.4176 82.8098C59.5452 82.9465 59.7457 83.0149 60.0192 83.0149C60.1468 83.0149 60.2721 83.0012 60.3952 82.9739C60.5182 82.9465 60.6435 82.9101 60.7711 82.8645V83.9036C60.6526 83.9583 60.4977 84.0061 60.3063 84.0471C60.1149 84.0881 59.9053 84.1086 59.6774 84.1086C59.1533 84.1086 58.734 83.9491 58.4196 83.6301C58.1097 83.3111 57.9547 82.8098 57.9547 82.1262ZM27.254 99.9036V89.9504H33.502V91.0305H28.5665V94.2297H32.8731V95.3098H28.5665V98.8235H33.5704V99.9036H27.254ZM35.012 99.9036L37.7463 95.925H37.8215L39.8518 92.7122H41.2873L38.6897 96.595H38.6145L36.4475 99.9036H35.012ZM35.1487 92.7122H36.6047L38.635 95.925H38.6897L41.4241 99.9036H39.968L37.801 96.595H37.7463L35.1487 92.7122ZM43.016 97.7844C43.016 97.0553 43.3054 96.4879 43.8842 96.0823C44.463 95.6767 45.199 95.4739 46.0922 95.4739H47.7191V94.9817C47.7191 94.5487 47.6075 94.1978 47.3842 93.929C47.1609 93.6555 46.7758 93.5188 46.2289 93.5188C45.682 93.5188 45.2901 93.6327 45.0531 93.8606C44.8207 94.0839 44.7045 94.3437 44.7045 94.6399V94.6741H43.4398V94.6399C43.4398 94.0702 43.6928 93.5735 44.1986 93.1497C44.7091 92.7213 45.3972 92.5071 46.2631 92.5071C47.129 92.5071 47.7989 92.7144 48.2729 93.1292C48.7514 93.5439 48.9906 94.1614 48.9906 94.9817V98.2629C48.9906 98.5592 49.0134 98.8394 49.059 99.1038C49.1046 99.3635 49.1684 99.5937 49.2504 99.7942V99.9036H48.0199C47.9561 99.7896 47.8969 99.6415 47.8422 99.4592C47.7921 99.2769 47.7602 99.0946 47.7465 98.9124C47.5779 99.2086 47.3044 99.4706 46.9262 99.6985C46.5525 99.9264 46.0694 100.04 45.477 100.04C44.7934 100.04 44.2123 99.8466 43.7338 99.4592C43.2553 99.0719 43.016 98.5136 43.016 97.7844ZM44.2875 97.7161C44.2875 98.1262 44.406 98.4475 44.643 98.6799C44.88 98.9124 45.2491 99.0286 45.7504 99.0286C46.2517 99.0286 46.7051 98.8554 47.1107 98.509C47.5163 98.1627 47.7191 97.7958 47.7191 97.4084V96.3762H46.2289C45.5909 96.3762 45.1078 96.497 44.7797 96.7385C44.4516 96.9801 44.2875 97.3059 44.2875 97.7161ZM51.813 99.9036V92.7122H52.9615L53.0162 93.635H53.0572C53.3124 93.3114 53.62 93.054 53.98 92.8625C54.3446 92.6711 54.7479 92.5754 55.19 92.5754C55.6731 92.5754 56.0901 92.6711 56.441 92.8625C56.7919 93.054 57.0585 93.3639 57.2408 93.7922H57.2818C57.5826 93.3639 57.9153 93.054 58.2798 92.8625C58.6444 92.6711 59.0637 92.5754 59.5377 92.5754C60.2851 92.5754 60.8684 92.7828 61.2877 93.1975C61.7069 93.6077 61.9166 94.2958 61.9166 95.262V99.9036H60.6451V95.2483C60.6451 94.6741 60.522 94.2639 60.2759 94.0178C60.0298 93.7672 59.6812 93.6418 59.23 93.6418C58.8381 93.6418 58.494 93.7512 58.1978 93.97C57.9061 94.1887 57.6737 94.4713 57.5005 94.8176V99.9036H56.2291V95.2483C56.2291 94.6741 56.106 94.2639 55.8599 94.0178C55.6138 93.7672 55.2652 93.6418 54.814 93.6418C54.4221 93.6418 54.078 93.7512 53.7818 93.97C53.4901 94.1887 53.2577 94.4713 53.0845 94.8176V99.9036H51.813Z" fill="black"/>
<defs>
<clipPath id="clip0_1354_878">
<rect width="52" height="52" fill="white" transform="translate(17.3373 6.4458)"/>
</clipPath>
</defs>
</svg>
