<svg width="96" height="107" viewBox="0 0 96 107" fill="none" xmlns="http://www.w3.org/2000/svg">
<rect x="15.3373" width="64.4578" height="64.4578" rx="10" fill="#1A4BCB"/>
<path d="M21.6837 81.1829V81.1008H22.9962V81.1829C22.9962 81.7844 23.199 82.2356 23.6046 82.5364C24.0102 82.8372 24.5776 82.9875 25.3067 82.9875C26.0359 82.9875 26.5942 82.8326 26.9815 82.5227C27.3689 82.2128 27.5626 81.8072 27.5626 81.3059C27.5626 80.8502 27.3735 80.4856 26.9952 80.2122C26.6215 79.9387 25.9128 79.6516 24.8692 79.3508C23.7846 79.0364 23.0167 78.6695 22.5655 78.2502C22.1143 77.8264 21.8888 77.2271 21.8888 76.4524C21.8888 75.6777 22.185 75.0328 22.7774 74.5178C23.3699 74.0028 24.1902 73.7454 25.2384 73.7454C26.2865 73.7454 27.1205 74.0165 27.7403 74.5588C28.3601 75.1012 28.67 75.7916 28.67 76.6301V76.7122H27.3575V76.6301C27.3575 76.1015 27.1798 75.6754 26.8243 75.3518C26.4688 75.0282 25.9402 74.8665 25.2384 74.8665C24.5365 74.8665 24.0193 75.0055 23.6866 75.2834C23.3539 75.5614 23.1876 75.9397 23.1876 76.4182C23.1876 76.8512 23.3585 77.193 23.7003 77.4436C24.0421 77.6943 24.7462 77.97 25.8126 78.2708C26.879 78.5715 27.6537 78.9475 28.1368 79.3987C28.6199 79.8499 28.8614 80.4856 28.8614 81.3059C28.8614 82.1262 28.5424 82.7984 27.9044 83.3225C27.2664 83.8466 26.4005 84.1086 25.3067 84.1086C24.213 84.1086 23.3357 83.8466 22.6749 83.3225C22.0141 82.7984 21.6837 82.0852 21.6837 81.1829ZM30.2483 77.6829V76.7122H34.3498V77.6829H30.2483ZM31.5334 82.1262V77.3V77.095V74.9348H32.8049V82.1262C32.8049 82.4452 32.8687 82.6731 32.9963 82.8098C33.1239 82.9465 33.3245 83.0149 33.5979 83.0149C33.7255 83.0149 33.8508 83.0012 33.9739 82.9739C34.0969 82.9465 34.2222 82.9101 34.3498 82.8645V83.9036C34.2314 83.9583 34.0764 84.0061 33.885 84.0471C33.6936 84.0881 33.484 84.1086 33.2561 84.1086C32.732 84.1086 32.3127 83.9491 31.9983 83.6301C31.6884 83.3111 31.5334 82.8098 31.5334 82.1262ZM36.475 81.3538V76.7122H37.7465V81.3674C37.7465 81.9417 37.8741 82.3541 38.1293 82.6047C38.3891 82.8508 38.7559 82.9739 39.2299 82.9739C39.6355 82.9739 39.9932 82.8645 40.3031 82.6458C40.613 82.427 40.8546 82.1444 41.0277 81.7981V76.7122H42.2992V83.9036H41.1508L41.0961 82.9807H41.0551C40.7953 83.3088 40.4763 83.5686 40.0981 83.76C39.7244 83.9469 39.3096 84.0403 38.8539 84.0403C38.1293 84.0403 37.5505 83.8352 37.1176 83.425C36.6892 83.0103 36.475 82.3199 36.475 81.3538ZM44.732 80.4172V80.1985C44.732 79.1503 45.0054 78.2844 45.5523 77.6008C46.0992 76.9172 46.8284 76.5754 47.7398 76.5754C48.2411 76.5754 48.6672 76.6666 49.0181 76.8489C49.3736 77.0266 49.6562 77.2636 49.8658 77.5598V73.4036H51.1373V83.9036H49.9888L49.9341 82.967H49.8931C49.7108 83.2633 49.4306 83.5162 49.0523 83.7258C48.6786 83.9355 48.2411 84.0403 47.7398 84.0403C46.8284 84.0403 46.0992 83.6985 45.5523 83.0149C45.0054 82.3313 44.732 81.4654 44.732 80.4172ZM46.0308 80.4172C46.0308 81.1464 46.1903 81.7594 46.5093 82.2561C46.8284 82.7528 47.3297 83.0012 48.0132 83.0012C48.469 83.0012 48.8563 82.8759 49.1754 82.6252C49.4944 82.3746 49.7245 82.0898 49.8658 81.7708V78.845C49.7245 78.526 49.4944 78.2411 49.1754 77.9905C48.8563 77.7398 48.469 77.6145 48.0132 77.6145C47.3297 77.6145 46.8284 77.8629 46.5093 78.3596C46.1903 78.8564 46.0308 79.4693 46.0308 80.1985V80.4172ZM53.57 80.4172V80.1985C53.57 79.1139 53.8663 78.2275 54.4587 77.5393C55.0557 76.8512 55.8441 76.5071 56.824 76.5071C57.8038 76.5071 58.558 76.8284 59.0866 77.4709C59.6153 78.1135 59.8796 78.9817 59.8796 80.0754V80.595H54.3493V79.5833H58.6013V79.4192C58.6013 78.8997 58.4532 78.4576 58.157 78.093C57.8607 77.7284 57.4346 77.5461 56.8786 77.5461C56.2042 77.5461 55.7006 77.8036 55.3679 78.3186C55.0352 78.829 54.8689 79.4556 54.8689 80.1985V80.4172C54.8689 81.1601 55.0443 81.789 55.3952 82.304C55.7462 82.8144 56.2907 83.0696 57.029 83.0696C57.4848 83.0696 57.8767 82.9693 58.2048 82.7688C58.5329 82.5683 58.7995 82.3313 59.0046 82.0579L59.8249 82.7073C59.5971 83.0491 59.2439 83.3681 58.7654 83.6643C58.2914 83.9605 57.7126 84.1086 57.029 84.1086C55.9125 84.1086 55.0557 83.7646 54.4587 83.0764C53.8663 82.3883 53.57 81.5019 53.57 80.4172ZM62.2782 83.9036V76.7122H63.4266L63.4813 77.635H63.5224C63.7821 77.3069 64.0988 77.0494 64.4725 76.8625C64.8508 76.6711 65.2678 76.5754 65.7235 76.5754C66.4481 76.5754 67.0246 76.7828 67.453 77.1975C67.886 77.6077 68.1024 78.2958 68.1024 79.262V83.9036H66.8309V79.2483C66.8309 78.6741 66.7011 78.2639 66.4413 78.0178C66.1861 77.7672 65.8215 77.6418 65.3475 77.6418C64.9419 77.6418 64.5842 77.7512 64.2743 77.97C63.9644 78.1887 63.7229 78.4713 63.5497 78.8176V83.9036H62.2782ZM69.8858 77.6829V76.7122H73.9874V77.6829H69.8858ZM71.1709 82.1262V77.3V77.095V74.9348H72.4424V82.1262C72.4424 82.4452 72.5062 82.6731 72.6338 82.8098C72.7614 82.9465 72.962 83.0149 73.2354 83.0149C73.363 83.0149 73.4883 83.0012 73.6114 82.9739C73.7344 82.9465 73.8597 82.9101 73.9874 82.8645V83.9036C73.8689 83.9583 73.7139 84.0061 73.5225 84.0471C73.3311 84.0881 73.1215 84.1086 72.8936 84.1086C72.3695 84.1086 71.9502 83.9491 71.6358 83.6301C71.3259 83.3111 71.1709 82.8098 71.1709 82.1262ZM24.6808 97.1829V97.1008H25.9933V97.1829C25.9933 97.7844 26.1961 98.2356 26.6017 98.5364C27.0073 98.8372 27.5747 98.9875 28.3039 98.9875C29.033 98.9875 29.5913 98.8326 29.9787 98.5227C30.366 98.2128 30.5597 97.8072 30.5597 97.3059C30.5597 96.8502 30.3706 96.4856 29.9923 96.2122C29.6187 95.9387 28.91 95.6516 27.8664 95.3508C26.7817 95.0364 26.0138 94.6695 25.5627 94.2502C25.1115 93.8264 24.8859 93.2271 24.8859 92.4524C24.8859 91.6777 25.1821 91.0328 25.7746 90.5178C26.367 90.0028 27.1873 89.7454 28.2355 89.7454C29.2837 89.7454 30.1177 90.0165 30.7375 90.5588C31.3573 91.1012 31.6672 91.7916 31.6672 92.6301V92.7122H30.3547V92.6301C30.3547 92.1015 30.1769 91.6754 29.8215 91.3518C29.466 91.0282 28.9373 90.8665 28.2355 90.8665C27.5337 90.8665 27.0164 91.0055 26.6838 91.2834C26.3511 91.5614 26.1847 91.9397 26.1847 92.4182C26.1847 92.8512 26.3556 93.193 26.6974 93.4436C27.0392 93.6943 27.7433 93.97 28.8097 94.2708C29.8761 94.5715 30.6509 94.9475 31.134 95.3987C31.617 95.8499 31.8586 96.4856 31.8586 97.3059C31.8586 98.1262 31.5396 98.7984 30.9015 99.3225C30.2635 99.8466 29.3976 100.109 28.3039 100.109C27.2101 100.109 26.3328 99.8466 25.672 99.3225C25.0112 98.7984 24.6808 98.0852 24.6808 97.1829ZM33.8265 96.4172V96.1985C33.8265 95.1139 34.1227 94.2275 34.7152 93.5393C35.3122 92.8512 36.1006 92.5071 37.0804 92.5071C38.0602 92.5071 38.8144 92.8284 39.3431 93.4709C39.8717 94.1135 40.1361 94.9817 40.1361 96.0754V96.595H34.6058V95.5833H38.8577V95.4192C38.8577 94.8997 38.7096 94.4576 38.4134 94.093C38.1172 93.7284 37.6911 93.5461 37.1351 93.5461C36.4606 93.5461 35.957 93.8036 35.6243 94.3186C35.2917 94.829 35.1253 95.4556 35.1253 96.1985V96.4172C35.1253 97.1601 35.3008 97.789 35.6517 98.304C36.0026 98.8144 36.5472 99.0696 37.2855 99.0696C37.7412 99.0696 38.1331 98.9693 38.4613 98.7688C38.7894 98.5683 39.056 98.3313 39.2611 98.0579L40.0814 98.7073C39.8535 99.0491 39.5003 99.3681 39.0218 99.6643C38.5478 99.9605 37.9691 100.109 37.2855 100.109C36.1689 100.109 35.3122 99.7646 34.7152 99.0764C34.1227 98.3883 33.8265 97.5019 33.8265 96.4172ZM42.1382 97.7844C42.1382 97.0553 42.4276 96.4879 43.0063 96.0823C43.5851 95.6767 44.3211 95.4739 45.2143 95.4739H46.8413V94.9817C46.8413 94.5487 46.7296 94.1978 46.5063 93.929C46.283 93.6555 45.8979 93.5188 45.3511 93.5188C44.8042 93.5188 44.4123 93.6327 44.1753 93.8606C43.9429 94.0839 43.8266 94.3437 43.8266 94.6399V94.6741H42.562V94.6399C42.562 94.0702 42.8149 93.5735 43.3208 93.1497C43.8312 92.7213 44.5194 92.5071 45.3852 92.5071C46.2511 92.5071 46.921 92.7144 47.395 93.1292C47.8735 93.5439 48.1128 94.1614 48.1128 94.9817V98.2629C48.1128 98.5592 48.1356 98.8394 48.1811 99.1038C48.2267 99.3635 48.2905 99.5937 48.3725 99.7942V99.9036H47.1421C47.0783 99.7896 47.019 99.6415 46.9643 99.4592C46.9142 99.2769 46.8823 99.0946 46.8686 98.9124C46.7 99.2086 46.4266 99.4706 46.0483 99.6985C45.6746 99.9264 45.1916 100.04 44.5991 100.04C43.9155 100.04 43.3345 99.8466 42.8559 99.4592C42.3774 99.0719 42.1382 98.5136 42.1382 97.7844ZM43.4097 97.7161C43.4097 98.1262 43.5281 98.4475 43.7651 98.6799C44.0021 98.9124 44.3712 99.0286 44.8725 99.0286C45.3738 99.0286 45.8273 98.8554 46.2329 98.509C46.6385 98.1627 46.8413 97.7958 46.8413 97.4084V96.3762H45.3511C44.713 96.3762 44.23 96.497 43.9018 96.7385C43.5737 96.9801 43.4097 97.3059 43.4097 97.7161ZM50.9352 99.9036V92.7122H52.0836L52.1383 93.635H52.1793C52.3616 93.3342 52.6009 93.0722 52.8971 92.8489C53.1933 92.621 53.5465 92.5071 53.9567 92.5071C54.0569 92.5071 54.1618 92.5185 54.2711 92.5413C54.3805 92.564 54.458 92.5846 54.5036 92.6028V93.7786C54.4124 93.7603 54.3167 93.7467 54.2165 93.7375C54.1162 93.7284 54.0068 93.7239 53.8883 93.7239C53.4782 93.7239 53.1295 93.831 52.8424 94.0452C52.5553 94.2594 52.3434 94.526 52.2067 94.845V99.9036H50.9352ZM55.993 96.4172V96.1985C55.993 95.1139 56.2869 94.2275 56.8748 93.5393C57.4673 92.8512 58.2807 92.5071 59.3152 92.5071C60.2723 92.5071 60.9992 92.7668 61.4959 93.2864C61.9926 93.8014 62.241 94.3778 62.241 95.0159V95.05H61.0106V95.0159C61.0106 94.6285 60.8761 94.2867 60.6072 93.9905C60.3384 93.6943 59.9077 93.5461 59.3152 93.5461C58.6225 93.5461 58.1121 93.8036 57.784 94.3186C57.4559 94.829 57.2918 95.4556 57.2918 96.1985V96.4172C57.2918 97.1601 57.4559 97.789 57.784 98.304C58.1121 98.8144 58.6225 99.0696 59.3152 99.0696C59.9077 99.0696 60.3384 98.9215 60.6072 98.6252C60.8761 98.329 61.0106 97.9872 61.0106 97.5999V97.5657H62.241V97.5999C62.241 98.2379 61.9926 98.8167 61.4959 99.3362C60.9992 99.8512 60.2723 100.109 59.3152 100.109C58.2807 100.109 57.4673 99.7646 56.8748 99.0764C56.2869 98.3883 55.993 97.5019 55.993 96.4172ZM64.5644 99.9036V89.4036H65.8359V93.6008C66.0911 93.2909 66.4147 93.0426 66.8066 92.8557C67.1985 92.6689 67.6269 92.5754 68.0918 92.5754C68.7617 92.5754 69.3108 92.7828 69.7392 93.1975C70.1722 93.6077 70.3886 94.2958 70.3886 95.262V99.9036H69.1172V95.2483C69.1172 94.6741 68.9873 94.2639 68.7275 94.0178C68.4723 93.7672 68.1077 93.6418 67.6338 93.6418C67.2282 93.6418 66.8704 93.7512 66.5605 93.97C66.2506 94.1887 66.0091 94.4713 65.8359 94.8176V99.9036H64.5644Z" fill="black"/>
<path d="M42.3652 36.7899C45.145 36.7899 47.7614 35.7042 49.7328 33.733C50.1038 33.3621 50.4431 32.9684 50.7499 32.555L50.4513 30.9285C50.4513 30.2894 49.9334 29.7716 49.2943 29.7716L46.4776 29.1976C45.9266 28.5106 45.4322 27.735 45.0982 27.1747C46.057 26.5455 46.8134 25.5978 47.2341 24.4668C47.9382 24.4233 48.4963 23.8399 48.4963 23.1247C48.4963 22.5317 48.1122 22.0292 47.5796 21.8497C47.3225 19.0119 45.0863 16.7935 42.3652 16.7935C39.6441 16.7935 37.4081 19.0119 37.1508 21.8497C36.6182 22.0292 36.234 22.5317 36.234 23.1247C36.234 23.8399 36.7922 24.4233 37.4963 24.4668C37.917 25.5977 38.6734 26.5455 39.6322 27.1747C39.2995 27.7331 38.8074 28.5051 38.2587 29.1904L35.436 29.7716C34.7969 29.7716 34.2791 30.2894 34.2791 30.9285L33.9811 32.5519C35.8815 35.1206 38.9318 36.7899 42.3652 36.7899Z" fill="white"/>
<path d="M56.276 36.2062C55.1598 37.7893 53.7911 39.1589 52.2078 40.2762C51.9131 40.4843 51.7179 40.8022 51.6724 41.1489C51.6269 41.4958 51.7282 41.8389 51.9581 42.1147L60.2852 51.932C60.8495 52.6091 61.6688 52.9998 62.5294 52.9998C63.3033 52.9998 64.0401 52.6891 64.6047 52.1246L68.1247 48.6046C68.7244 48.0047 69.0342 47.2219 68.9968 46.3998C68.9594 45.5772 68.5796 44.8249 67.9274 44.2813L58.1188 35.9593C57.8853 35.7646 57.5994 35.6595 57.3091 35.6595C56.9035 35.6596 56.5173 35.8639 56.276 36.2062Z" fill="white"/>
<path d="M42.3652 41.7307C50.8506 41.7307 57.7305 34.851 57.7305 26.3653C57.7305 17.8799 50.8506 11 42.3652 11C33.8797 11 27 17.8799 27 26.3654C27 34.8509 33.8799 41.7307 42.3652 41.7307ZM42.3652 14.8415C48.72 14.8415 53.8892 20.0108 53.8892 26.3655C53.8892 29.2795 52.8003 31.9423 51.0105 33.9736C49.9467 35.1808 48.6352 36.1633 47.1558 36.8426C45.6958 37.5129 44.0742 37.8893 42.3654 37.8893C40.6565 37.8893 39.0349 37.5126 37.575 36.8426C36.0955 36.1636 34.7839 35.1808 33.7203 33.9736C31.9304 31.9422 30.8413 29.2795 30.8413 26.3655C30.8411 20.0108 36.0106 14.8415 42.3652 14.8415Z" fill="white"/>
</svg>
