<?xml version="1.0" encoding="utf-8"?>
<!-- Generator: Adobe Illustrator 26.0.3, SVG Export Plug-In . SVG Version: 6.00 Build 0)  -->
<svg version="1.0" id="Layer_1" xmlns="http://www.w3.org/2000/svg" xmlns:xlink="http://www.w3.org/1999/xlink" x="0px" y="0px"
	 viewBox="0 0 871.2 631.1" style="enable-background:new 0 0 871.2 631.1;" xml:space="preserve">
<style type="text/css">
	.st0{fill:#0AACDA;}
	.st1{fill:#FAC123;}
	.st2{fill:#027BA5;}
	.st3{fill:#0199CF;}
	.st4{fill:#0396C7;}
	.st5{fill:#E4568B;}
	.st6{fill:#E36097;}
	.st7{fill:#D11E54;}
	.st8{fill:#E5116D;}
	.st9{fill:#007195;}
	.st10{fill:#C01E54;}
	.st11{fill:#0181B3;}
	.st12{fill:#EA3775;}
	.st13{fill:#F69A1C;}
	.st14{fill:#F8A71A;}
	.st15{fill:#55B5DB;}
	.st16{fill:#C81E55;}
	.st17{fill:#F3A21F;}
	.st18{fill:#E61565;}
	.st19{fill:#F8B219;}
	.st20{fill:#127996;}
	.st21{fill:#EA437A;}
	.st22{fill:#FFFFFF;}
</style>
<path class="st0" d="M76.3,278.2v-44.5c7.1,0,14.2,0,21.4,0c0.9-0.1,1.9,0.1,2.7,0.5c6.6,4.5,13.2,9.2,19.8,13.8
	c-3,2.2-6,4.5-9.1,6.7c-8,5.6-16,11.1-24,16.6L76.3,278.2z M92.1,262.9l14-14h-14V262.9z"/>
<path class="st1" d="M202.9,351.2c-2.6,10-7.9,18.4-14.9,25.9c-10.2,10.8-22.7,17.1-37.2,19.6c-1.3,0.1-2.7,0.1-4,0
	c0.1-2.8,0.1-5.6,0.2-8.4c2.7-1.9,5.5-3.7,8.2-5.5c15-10.3,30.1-20.6,45.2-30.8C201.1,351.5,202,351.3,202.9,351.2z"/>
<path class="st2" d="M107.4,329.1l-0.2-20.2h15.6v16.8l26.9-26.8l0.2,22c-2.7,2.7-5.3,5.4-8,8.1c-1-0.3-2-0.5-3-0.6
	c-9.6,0-19.2,0-28.9,0C109.1,328.5,108.3,328.7,107.4,329.1z"/>
<path class="st3" d="M135.5,397.3c-8.5,0.4-17-1.8-24.2-6.2c0-7,0-14,0-20.9c9.7,7.3,21.8,10.9,33.9,10.1c0.4,0.2,1,0.4,1.1,0.7
	c1.3,4-0.2,8.3-3.6,10.6C140.1,393.4,137.9,395.4,135.5,397.3z"/>
<path class="st4" d="M149.9,363.1c-2.5,0.5-4.9,1.5-7.4,1.5c-17.8-0.1-31.1-11-34.3-28.9c4,2.6,8.2,4.8,11.8,7.8
	c2.7,2.4,6.6,3.1,10,1.9c2.1,1.1,4.2,2,6.4,2.8c4.7,1.4,9,1,12.2-3.4c0.4-0.4,0.8-0.8,1.3-1.1L149.9,363.1z"/>
<path class="st5" d="M206.1,291.2c0,5.3,0.1,10.6,0,16c0,0.7-0.3,1.5-0.8,2c-6.3,6.4-12.7,12.8-19.1,19.2c-0.1-0.4-0.1-0.9-0.3-1
	c-4.1-2.7-8.1-5.4-12.2-8.1l21-21.2l10.9,7.8c0-1.9,0-3.1,0-4.2C205.9,298.2,206,294.7,206.1,291.2z"/>
<path class="st6" d="M149.9,320.9l-0.2-22l18.3-18.5l12.6,8.8c-2.7,2.9-5.4,5.9-8.3,8.8c-3.8,3.9-7.7,7.7-11.6,11.6l-10.5-6.5
	c0,5.2,0,9.8,0,14.4c0.1,0.8,0.3,1.6,0.6,2.3L149.9,320.9z"/>
<path class="st7" d="M180.6,289.2l-12.6-8.8c3.7-4,7.4-8,11.2-11.9c2.3-2.4,4.7-4.6,7-7l13.4,8.7c-5.8,6-11.6,11.9-17.4,17.9
	C181.7,288.5,181.2,288.9,180.6,289.2z"/>
<path class="st8" d="M173.8,319.2c4.1,2.7,8.2,5.4,12.2,8.1c0.2,0.2,0.2,0.7,0.3,1l-14.1,14.3c-1.1-0.3-2.2-0.5-3.3-0.6
	c-4.4-0.1-8.8,0-13.3-0.1c-1.1-0.2-2.1-0.5-3-1L173.8,319.2z"/>
<path class="st9" d="M122.9,308.9h-15.6c0.1-3.5,0-6.9,0.3-10.3c0.2-1.4,1.4-2.7,2.1-4.1l0.6-0.6l0.1,0.2l-0.1-0.2l0.6-0.6l0,0
	l0.6-0.6l0,0l12.1-7.8l1-0.1l10.2,6.6c-2.4,2.5-4.7,5.1-7.2,7.5C124.8,301.5,123.1,305.1,122.9,308.9z"/>
<path class="st10" d="M153.2,250c5.1-5.2,10.1-10.5,15.3-15.7c0.7-0.7,1.7-1.1,2.7-1.2c6.7-0.1,13.5,0,21.1,0l-17.5,17.6L153.2,250z
	"/>
<path class="st11" d="M129.9,345.4c-3.4,1.3-7.3,0.6-10-1.9c-3.6-3-7.8-5.2-11.8-7.8c-0.2-2.2-0.5-4.4-0.7-6.7
	c0.8-0.4,1.7-0.6,2.6-0.7c9.6,0,19.2,0,28.9,0c1,0.1,2,0.3,3,0.6c-3.9,4.1-7.7,8.2-11.7,12.2C128.6,342.7,128,343.9,129.9,345.4z"/>
<path class="st12" d="M96.2,379.1l-5.9-7.4c0.4-1,1.2-2.1,1.2-3.1c0.1-7.5,0.1-15.1,0-22.6c-0.1-1.7-0.3-3.3-0.5-5l1-0.7h1.1
	l0.2,1.1l0.4,1.2c2.6,8,5.9,15.4,11.6,21.7c1.6,1.8,3.4,3.5,5.2,5.3L96.2,379.1z"/>
<path class="st13" d="M92.1,290.1v16.5H76.3v-27L92.1,290.1z"/>
<path class="st14" d="M76.3,306.6h15.8v21.7H76.3V306.6z"/>
<path class="st15" d="M120.2,248c-6.6-4.6-13.2-9.2-19.8-13.8c-0.8-0.4-1.8-0.6-2.7-0.5c-7.1,0-14.2,0-21.4,0c0.6-0.3,1.3-0.5,2-0.6
	c19.1,0,38.2,0,57.2,0c0.5,0.1,0.9,0.2,1.4,0.3l-14,13.9L120.2,248z"/>
<path class="st16" d="M153.2,250l21.5,0.7L155,270.8l-5.1-3l-0.2,0c0-4.7,0-9.5,0-14.2L153.2,250z"/>
<path class="st17" d="M202.9,351.2c-0.9,0.1-1.8,0.3-2.6,0.7c-15.1,10.2-30.1,20.5-45.2,30.8c-2.7,1.9-5.5,3.7-8.2,5.5l0.1-8.4
	c17.4-1.8,29.9-10.8,37.9-26.3c1.2-2.4,3.2-4.3,4.8-6.5c1.4,0.4,2.9,1.1,4.3,1.1c3.4-0.1,6.7-0.6,10.1-1L202.9,351.2z"/>
<path class="st18" d="M152.7,341c0.9,0.5,2,0.8,3,1c4.4,0.1,8.8,0,13.3,0.1c1.1,0.1,2.2,0.3,3.3,0.6c-5.6,5.7-11.1,11.5-16.8,17.1
	c-1.5,1.5-3.6,2.2-5.5,3.3l-0.1-19.4L152.7,341z"/>
<path class="st19" d="M76.3,328.3h15.8c0.3,3.7,0.6,7.4,0.8,11.1l-0.8,0.9l-1,0.7l-11.9,7.9C76.9,342.3,75.9,335.3,76.3,328.3z"/>
<path class="st15" d="M149.7,253.6c0,4.8,0,9.5,0,14.2c-0.9,0.4-1.9,0.8-2.8,1.4c-3.9,2.6-7.7,5.2-11.5,7.8
	c-3.6,2.5-7.2,5.2-10.8,7.8l-1.1,0.1l-3-1.7L149.7,253.6z"/>
<path class="st20" d="M124.6,284.8c3.6-2.6,7.2-5.2,10.8-7.8c3.8-2.7,7.7-5.3,11.5-7.8c0.9-0.5,1.8-1,2.8-1.4l0.2-0.1v8.1
	l-15.1,15.5L124.6,284.8z"/>
<path class="st21" d="M79.1,348.9l11.9-7.9c0.3,1.7,0.4,3.3,0.5,5c0.1,7.5,0.1,15.1,0,22.6c0,1-0.8,2.1-1.2,3.1
	C85.1,364.9,81.3,357.2,79.1,348.9z"/>
<path class="st9" d="M120.2,248l2.7-0.7c-1.1,1.6-2.2,3.2-3.5,4.7c-6.6,7.2-13.2,14.3-19.9,21.5c-3-0.2-6.1-0.2-9.1-0.6
	c-1.2-0.1-2.3-1.1-3.4-1.6c8-5.5,16-11,24-16.6C114.1,252.5,117.1,250.2,120.2,248z"/>
<path class="st21" d="M199.6,270.2l-13.4-8.7l8.2-8.5c1.9,0.4,3.8,0.9,5.7,1s3.9,0.1,5.9,0.1c0.2,2.7,0.2,5.5,0.1,8.2
	c-0.3,1.2-0.9,2.4-1.8,3.3C202.8,267.3,201.2,268.7,199.6,270.2z"/>
<path class="st2" d="M87,271.3c1.1,0.6,2.2,1.5,3.4,1.6c3,0.4,6.1,0.4,9.1,0.6c-0.2,0.4-0.5,0.8-0.8,1.1c-4.8,4.1-7.5,9.1-6.7,15.5
	l-15.8-10.4v-1.5L87,271.3z"/>
<path class="st18" d="M96.2,379.1l14.2-9.6l0.9,0.6c0,7,0,14,0,20.9C105.5,388.2,100.4,384.1,96.2,379.1z"/>
<path class="st14" d="M204,347.2c-3.4,0.4-6.7,0.9-10.1,1c-1.4,0.1-2.9-0.7-4.3-1.1l16.4-15.6C206,336.6,205.7,342,204,347.2z"/>
<path class="st7" d="M206.1,291.2c-0.1,3.5-0.3,6.9-0.4,10.4c0,1.1,0,2.2,0,4.2l-10.9-7.8l10.3-10.8l1,0V291.2z"/>
<path class="st8" d="M150.9,319.8c-0.3-0.8-0.5-1.5-0.6-2.3c-0.1-4.6,0-9.2,0-14.4l10.5,6.5L150.9,319.8z"/>
<path class="st6" d="M206,254.2c-2,0.1-3.9,0-5.9-0.1c-2-0.2-3.8-0.7-5.7-1l11.6-12.2V254.2z"/>
<path class="st15" d="M147,379.9c0,2.8,0,5.6-0.1,8.4c0,2.8-0.1,5.6-0.2,8.5l-11.2,0.5c2.4-1.9,4.7-3.9,7.1-5.7
	c3.5-2.3,5-6.7,3.7-10.6c-0.1-0.3-0.7-0.5-1.1-0.8L147,379.9z"/>
<path class="st0" d="M120.6,283.2l3,1.7l-12.2,7.9L120.6,283.2z"/>
<path class="st6" d="M149.9,275.9v-8l5.1,3L149.9,275.9z"/>
<path class="st21" d="M92.1,340.3l0.8-0.9c0.1,0.3,0.2,0.6,0.3,0.9L92.1,340.3z"/>
<path class="st21" d="M93.7,342.5l-0.4-1.2L93.7,342.5z"/>
<path class="st0" d="M110.9,293.4l-0.6,0.6L110.9,293.4z"/>
<path class="st0" d="M110.2,293.9l-0.6,0.6L110.2,293.9z"/>
<path class="st0" d="M111.4,292.8l-0.6,0.6L111.4,292.8z"/>
<path class="st22" d="M702,239.7c20.9-12.2,48.9-11.5,68.8,2.4c11.7,8.1,20.4,21.5,20,36c-6.8,0-13.7,0-20.5,0
	c-0.3-5.6-2.5-11-6.4-15.1c-6.7-7.4-16.7-11.1-26.6-11.7s-20.5,2-28.1,8.6c-5.2,4.6-8.9,11.3-8.7,18.4c-0.2,6.7,3.5,13.1,8.8,17.1
	c7.9,6.1,17.8,8.7,27.5,10.2c12.8,2,25.9,4.6,37.2,11.1c8.3,4.7,15.3,12,18.5,21.1c3.4,9.8,3.4,21-1,30.5
	c-4.3,9.7-12.3,17.4-21.4,22.6c-12.3,7-26.8,9.9-40.9,8.9c-12.5-0.8-25-4.7-35.3-12c-11.5-7.9-20.2-21-19.9-35.3
	c6.9,0,13.7,0,20.6,0c0.1,5.9,2.6,11.6,6.8,15.8c6.9,7.1,16.6,10.8,26.2,12c10,1.2,20.6-0.1,29.5-5.1c5.5-2.9,9.8-7.4,12.5-13
	c3-6.4,2.7-13.8-0.7-20c-3.6-6.1-10.1-10-16.5-12.4c-12.5-4.9-26.1-5.3-38.9-9.2c-10-2.9-20-7.8-26.8-16c-3.8-4.7-6.4-10.2-7.6-16.1
	c-1.8-8.7-1.3-18.1,2.3-26.3C685.6,252.6,693.2,245,702,239.7z"/>
<path class="st22" d="M227.7,234.4c7.9,0,15.9,0,23.8,0c0.1,32,0,63.9,0,95.9c0.1,6.5-0.6,13.1,1.4,19.3
	c5.6,19.6,25.9,30.9,45.5,25.4c13.3-3.8,23.4-14.8,26.1-28.4c1-4.4,0.7-9,0.7-13.5c0-32.9,0-65.8,0-98.8c7.9,0,15.9,0,23.8,0
	c0,30.9,0,61.7,0,92.5c-0.1,7.8,0.5,15.7-1.4,23.4c-3,13.2-10.5,24.9-21.1,33.2c-17.1,13.6-41.6,16.8-61.8,8.5
	c-17.8-7.1-31.9-23.2-35.9-42.1c-1.7-7.2-1.2-14.6-1.3-21.9C227.7,296.9,227.7,265.6,227.7,234.4z"/>
<path class="st22" d="M382.5,234.4c17.1,0,34.3,0,51.4,0c6.4,0.1,12.9-0.4,19.2,1c11.5,2.4,21.6,9.1,28.2,18.7
	c11.1,16,10.7,37.3-0.9,52.9c-6.1,8.2-14.7,14-24.4,16.8c-5.5,1.6-11.3,1.7-17,1.7c-10.9,0-21.8,0-32.6,0c0,23.7,0,47.5,0,71.2
	c-7.9,0-15.9,0-23.8,0c-0.1-30.5-0.1-61,0-91.5c19.8-0.1,39.5,0.4,59.3,0c9.2-0.5,17.5-5.9,21.5-14.2c3.4-6.9,3.4-15.1,0-22
	c-4.2-8.6-13-14.1-22.6-14.2c-19.4,0-38.8,0-58.2,0C382.5,247.9,382.6,241.2,382.5,234.4z"/>
<path class="st22" d="M521.4,234.4c37,0,73.9,0,110.9,0c0,6.7,0,13.5,0,20.2c-37,0-74,0-111,0C521.4,247.9,521.3,241.1,521.4,234.4z
	"/>
<path class="st22" d="M521.3,304.7c31-0.1,62.1,0,93.1,0c0,6.7,0,13.4,0,20c-23.1,0.1-46.2,0-69.2,0c0,17.2,0,34.5,0,51.7
	c29,0,58,0,87,0c0.1,6.8,0.1,13.5,0,20.2c-37-0.1-73.9,0-110.9,0C521.4,366,521.4,335.3,521.3,304.7z"/>
</svg>
