<svg width="130" height="91" viewBox="0 0 130 91" fill="none" xmlns="http://www.w3.org/2000/svg">
<rect x="30" width="70" height="70" rx="10" fill="#F2692E"/>
<path d="M0.420624 88L4.20773 77.9785H5.38351L9.17062 88H7.80344L5.06906 80.4805C5.01437 80.3301 4.96652 80.1842 4.92551 80.043C4.88449 79.9017 4.84803 79.7559 4.81613 79.6055H4.74777C4.71587 79.7559 4.67941 79.9017 4.6384 80.043C4.59738 80.1842 4.54953 80.3301 4.49484 80.4805L1.73312 88H0.420624ZM2.04758 85.4023L2.4509 84.3223H7.12668L7.52316 85.4023H2.04758ZM9.88758 81.7793V80.8086H13.9891V81.7793H9.88758ZM11.1727 86.2227V81.3965V81.1914V79.0312H12.4442V86.2227C12.4442 86.5417 12.508 86.7695 12.6356 86.9062C12.7632 87.043 12.9637 87.1113 13.2372 87.1113C13.3648 87.1113 13.4901 87.0977 13.6132 87.0703C13.7362 87.043 13.8615 87.0065 13.9891 86.9609V88C13.8706 88.0547 13.7157 88.1025 13.5243 88.1436C13.3329 88.1846 13.1233 88.2051 12.8954 88.2051C12.3713 88.2051 11.952 88.0456 11.6376 87.7266C11.3277 87.4076 11.1727 86.9062 11.1727 86.2227ZM15.1709 81.7793V80.8086H19.2725V81.7793H15.1709ZM16.4561 86.2227V81.3965V81.1914V79.0312H17.7276V86.2227C17.7276 86.5417 17.7914 86.7695 17.919 86.9062C18.0466 87.043 18.2471 87.1113 18.5205 87.1113C18.6482 87.1113 18.7735 87.0977 18.8965 87.0703C19.0196 87.043 19.1449 87.0065 19.2725 86.9609V88C19.154 88.0547 18.9991 88.1025 18.8077 88.1436C18.6162 88.1846 18.4066 88.2051 18.1787 88.2051C17.6547 88.2051 17.2354 88.0456 16.9209 87.7266C16.611 87.4076 16.4561 86.9062 16.4561 86.2227ZM21.0354 84.5137V84.2949C21.0354 83.2103 21.3316 82.3239 21.924 81.6357C22.521 80.9476 23.3094 80.6035 24.2893 80.6035C25.2691 80.6035 26.0233 80.9248 26.552 81.5674C27.0806 82.21 27.3449 83.0781 27.3449 84.1719V84.6914H21.8146V83.6797H26.0666V83.5156C26.0666 82.9961 25.9185 82.554 25.6223 82.1895C25.326 81.8249 24.8999 81.6426 24.3439 81.6426C23.6695 81.6426 23.1659 81.9001 22.8332 82.415C22.5005 82.9255 22.3342 83.5521 22.3342 84.2949V84.5137C22.3342 85.2565 22.5096 85.8854 22.8605 86.4004C23.2115 86.9108 23.7561 87.166 24.4943 87.166C24.9501 87.166 25.342 87.0658 25.6701 86.8652C25.9982 86.6647 26.2648 86.4277 26.4699 86.1543L27.2902 86.8037C27.0624 87.1455 26.7092 87.4645 26.2307 87.7607C25.7567 88.057 25.1779 88.2051 24.4943 88.2051C23.3778 88.2051 22.521 87.861 21.924 87.1729C21.3316 86.4847 21.0354 85.5983 21.0354 84.5137ZM29.7435 88V80.8086H30.892L30.9466 81.7314H30.9877C31.2474 81.4033 31.5642 81.1458 31.9379 80.959C32.3161 80.7676 32.7331 80.6719 33.1888 80.6719C33.9134 80.6719 34.4899 80.8792 34.9183 81.2939C35.3513 81.7041 35.5677 82.3923 35.5677 83.3584V88H34.2962V83.3447C34.2962 82.7705 34.1664 82.3604 33.9066 82.1143C33.6514 81.8636 33.2868 81.7383 32.8129 81.7383C32.4073 81.7383 32.0495 81.8477 31.7396 82.0664C31.4297 82.2852 31.1882 82.5677 31.015 82.9141V88H29.7435ZM37.9321 84.5137V84.2949C37.9321 83.2467 38.2056 82.3809 38.7525 81.6973C39.2993 81.0137 40.0285 80.6719 40.94 80.6719C41.4413 80.6719 41.8674 80.763 42.2183 80.9453C42.5737 81.123 42.8563 81.36 43.0659 81.6562V77.5H44.3374V88H43.189L43.1343 87.0635H43.0933C42.911 87.3597 42.6307 87.6126 42.2525 87.8223C41.8788 88.0319 41.4413 88.1367 40.94 88.1367C40.0285 88.1367 39.2993 87.7949 38.7525 87.1113C38.2056 86.4277 37.9321 85.5618 37.9321 84.5137ZM39.231 84.5137C39.231 85.2428 39.3905 85.8558 39.7095 86.3525C40.0285 86.8493 40.5298 87.0977 41.2134 87.0977C41.6691 87.0977 42.0565 86.9723 42.3755 86.7217C42.6945 86.471 42.9247 86.1862 43.0659 85.8672V82.9414C42.9247 82.6224 42.6945 82.3376 42.3755 82.0869C42.0565 81.8363 41.6691 81.7109 41.2134 81.7109C40.5298 81.7109 40.0285 81.9593 39.7095 82.4561C39.3905 82.9528 39.231 83.5658 39.231 84.2949V84.5137ZM46.8044 85.8809C46.8044 85.1517 47.0938 84.5843 47.6725 84.1787C48.2513 83.7731 48.9873 83.5703 49.8805 83.5703H51.5075V83.0781C51.5075 82.6452 51.3958 82.2943 51.1725 82.0254C50.9492 81.752 50.5641 81.6152 50.0173 81.6152C49.4704 81.6152 49.0785 81.7292 48.8415 81.957C48.6091 82.1803 48.4929 82.4401 48.4929 82.7363V82.7705H47.2282V82.7363C47.2282 82.1667 47.4811 81.6699 47.987 81.2461C48.4974 80.8177 49.1856 80.6035 50.0514 80.6035C50.9173 80.6035 51.5873 80.8109 52.0612 81.2256C52.5397 81.6403 52.779 82.2578 52.779 83.0781V86.3594C52.779 86.6556 52.8018 86.9359 52.8473 87.2002C52.8929 87.46 52.9567 87.6901 53.0387 87.8906V88H51.8083C51.7445 87.8861 51.6852 87.738 51.6305 87.5557C51.5804 87.3734 51.5485 87.1911 51.5348 87.0088C51.3662 87.305 51.0928 87.5671 50.7145 87.7949C50.3408 88.0228 49.8578 88.1367 49.2653 88.1367C48.5817 88.1367 48.0007 87.943 47.5221 87.5557C47.0436 87.1683 46.8044 86.61 46.8044 85.8809ZM48.0759 85.8125C48.0759 86.2227 48.1943 86.5439 48.4313 86.7764C48.6683 87.0088 49.0374 87.125 49.5387 87.125C50.0401 87.125 50.4935 86.9518 50.8991 86.6055C51.3047 86.2591 51.5075 85.8923 51.5075 85.5049V84.4727H50.0173C49.3792 84.4727 48.8962 84.5934 48.568 84.835C48.2399 85.0765 48.0759 85.4023 48.0759 85.8125ZM55.6014 88V80.8086H56.7498L56.8045 81.7314H56.8455C57.1053 81.4033 57.422 81.1458 57.7957 80.959C58.174 80.7676 58.591 80.6719 59.0467 80.6719C59.7713 80.6719 60.3478 80.8792 60.7762 81.2939C61.2092 81.7041 61.4256 82.3923 61.4256 83.3584V88H60.1541V83.3447C60.1541 82.7705 60.0243 82.3604 59.7645 82.1143C59.5093 81.8636 59.1447 81.7383 58.6707 81.7383C58.2651 81.7383 57.9074 81.8477 57.5975 82.0664C57.2876 82.2852 57.0461 82.5677 56.8729 82.9141V88H55.6014ZM63.79 84.5137V84.2949C63.79 83.2103 64.084 82.3239 64.6719 81.6357C65.2643 80.9476 66.0778 80.6035 67.1123 80.6035C68.0693 80.6035 68.7962 80.8633 69.293 81.3828C69.7897 81.8978 70.0381 82.4743 70.0381 83.1123V83.1465H68.8076V83.1123C68.8076 82.7249 68.6732 82.3831 68.4043 82.0869C68.1354 81.7907 67.7048 81.6426 67.1123 81.6426C66.4196 81.6426 65.9092 81.9001 65.5811 82.415C65.2529 82.9255 65.0889 83.5521 65.0889 84.2949V84.5137C65.0889 85.2565 65.2529 85.8854 65.5811 86.4004C65.9092 86.9108 66.4196 87.166 67.1123 87.166C67.7048 87.166 68.1354 87.0179 68.4043 86.7217C68.6732 86.4255 68.8076 86.0837 68.8076 85.6963V85.6621H70.0381V85.6963C70.0381 86.3343 69.7897 86.9131 69.293 87.4326C68.7962 87.9476 68.0693 88.2051 67.1123 88.2051C66.0778 88.2051 65.2643 87.861 64.6719 87.1729C64.084 86.4847 63.79 85.5983 63.79 84.5137ZM71.9308 84.5137V84.2949C71.9308 83.2103 72.227 82.3239 72.8195 81.6357C73.4165 80.9476 74.2049 80.6035 75.1847 80.6035C76.1645 80.6035 76.9188 80.9248 77.4474 81.5674C77.9761 82.21 78.2404 83.0781 78.2404 84.1719V84.6914H72.7101V83.6797H76.9621V83.5156C76.9621 82.9961 76.814 82.554 76.5177 82.1895C76.2215 81.8249 75.7954 81.6426 75.2394 81.6426C74.5649 81.6426 74.0614 81.9001 73.7287 82.415C73.396 82.9255 73.2296 83.5521 73.2296 84.2949V84.5137C73.2296 85.2565 73.4051 85.8854 73.756 86.4004C74.1069 86.9108 74.6515 87.166 75.3898 87.166C75.8455 87.166 76.2375 87.0658 76.5656 86.8652C76.8937 86.6647 77.1603 86.4277 77.3654 86.1543L78.1857 86.8037C77.9578 87.1455 77.6046 87.4645 77.1261 87.7607C76.6522 88.057 76.0734 88.2051 75.3898 88.2051C74.2733 88.2051 73.4165 87.861 72.8195 87.1729C72.227 86.4847 71.9308 85.5983 71.9308 84.5137ZM85.0473 88V78.0469H88.2876C89.354 78.0469 90.1766 78.3135 90.7553 78.8467C91.3341 79.3799 91.6235 80.0885 91.6235 80.9727C91.6235 81.8568 91.3341 82.5723 90.7553 83.1191C90.1766 83.666 89.354 83.9395 88.2876 83.9395H86.3598V88H85.0473ZM86.3598 82.873H88.2876C89.0441 82.873 89.5705 82.6885 89.8667 82.3193C90.1629 81.9502 90.311 81.5013 90.311 80.9727C90.311 80.444 90.1629 80.002 89.8667 79.6465C89.5705 79.291 89.0441 79.1133 88.2876 79.1133H86.3598V82.873ZM90.6938 88L88.2602 83.4062L89.5591 83.208L92.1567 88H90.6938ZM93.8512 84.5137V84.2949C93.8512 83.2103 94.1474 82.3239 94.7399 81.6357C95.3369 80.9476 96.1253 80.6035 97.1051 80.6035C98.0849 80.6035 98.8392 80.9248 99.3678 81.5674C99.8965 82.21 100.161 83.0781 100.161 84.1719V84.6914H94.6305V83.6797H98.8825V83.5156C98.8825 82.9961 98.7343 82.554 98.4381 82.1895C98.1419 81.8249 97.7158 81.6426 97.1598 81.6426C96.4853 81.6426 95.9817 81.9001 95.6491 82.415C95.3164 82.9255 95.15 83.5521 95.15 84.2949V84.5137C95.15 85.2565 95.3255 85.8854 95.6764 86.4004C96.0273 86.9108 96.5719 87.166 97.3102 87.166C97.7659 87.166 98.1579 87.0658 98.486 86.8652C98.8141 86.6647 99.0807 86.4277 99.2858 86.1543L100.106 86.8037C99.8782 87.1455 99.525 87.4645 99.0465 87.7607C98.5726 88.057 97.9938 88.2051 97.3102 88.2051C96.1937 88.2051 95.3369 87.861 94.7399 87.1729C94.1474 86.4847 93.8512 85.5983 93.8512 84.5137ZM102.559 90.8438V80.8086H103.708L103.762 81.7451H103.804C103.986 81.4489 104.264 81.196 104.637 80.9863C105.016 80.7767 105.456 80.6719 105.957 80.6719C106.868 80.6719 107.597 81.0137 108.144 81.6973C108.691 82.3809 108.965 83.2467 108.965 84.2949V84.5137C108.965 85.5618 108.691 86.4277 108.144 87.1113C107.597 87.7949 106.868 88.1367 105.957 88.1367C105.456 88.1367 105.027 88.0479 104.672 87.8701C104.321 87.6878 104.04 87.4486 103.831 87.1523V90.8438H102.559ZM103.831 85.8672C103.972 86.1862 104.202 86.471 104.521 86.7217C104.84 86.9723 105.228 87.0977 105.683 87.0977C106.367 87.0977 106.868 86.8493 107.187 86.3525C107.506 85.8558 107.666 85.2428 107.666 84.5137V84.2949C107.666 83.5658 107.506 82.9528 107.187 82.4561C106.868 81.9593 106.367 81.7109 105.683 81.7109C105.228 81.7109 104.84 81.8363 104.521 82.0869C104.202 82.3376 103.972 82.6224 103.831 82.9414V85.8672ZM110.967 84.5137V84.2949C110.967 83.2103 111.274 82.3239 111.89 81.6357C112.505 80.9476 113.327 80.6035 114.357 80.6035C115.387 80.6035 116.21 80.9476 116.825 81.6357C117.44 82.3239 117.748 83.2103 117.748 84.2949V84.5137C117.748 85.5983 117.44 86.4847 116.825 87.1729C116.21 87.861 115.387 88.2051 114.357 88.2051C113.327 88.2051 112.505 87.861 111.89 87.1729C111.274 86.4847 110.967 85.5983 110.967 84.5137ZM112.266 84.2949V84.5137C112.266 85.2565 112.441 85.8854 112.792 86.4004C113.143 86.9108 113.665 87.166 114.357 87.166C115.05 87.166 115.572 86.9108 115.923 86.4004C116.274 85.8854 116.449 85.2565 116.449 84.5137V84.2949C116.449 83.5521 116.274 82.9255 115.923 82.415C115.572 81.9001 115.05 81.6426 114.357 81.6426C113.665 81.6426 113.143 81.9001 112.792 82.415C112.441 82.9255 112.266 83.5521 112.266 84.2949ZM120.181 88V80.8086H121.329L121.384 81.7314H121.425C121.607 81.4307 121.846 81.1686 122.143 80.9453C122.439 80.7174 122.792 80.6035 123.202 80.6035C123.303 80.6035 123.407 80.6149 123.517 80.6377C123.626 80.6605 123.704 80.681 123.749 80.6992V81.875C123.658 81.8568 123.562 81.8431 123.462 81.834C123.362 81.8249 123.252 81.8203 123.134 81.8203C122.724 81.8203 122.375 81.9274 122.088 82.1416C121.801 82.3558 121.589 82.6224 121.452 82.9414V88H120.181ZM125.136 81.7793V80.8086H129.238V81.7793H125.136ZM126.421 86.2227V81.3965V81.1914V79.0312H127.693V86.2227C127.693 86.5417 127.756 86.7695 127.884 86.9062C128.012 87.043 128.212 87.1113 128.486 87.1113C128.613 87.1113 128.739 87.0977 128.862 87.0703C128.985 87.043 129.11 87.0065 129.238 86.9609V88C129.119 88.0547 128.964 88.1025 128.773 88.1436C128.581 88.1846 128.372 88.2051 128.144 88.2051C127.62 88.2051 127.2 88.0456 126.886 87.7266C126.576 87.4076 126.421 86.9062 126.421 86.2227Z" fill="black"/>
<path d="M41 21.5C41 19.5109 41.7902 17.6032 43.1967 16.1967C44.6032 14.7902 46.5109 14 48.5 14H55.946C57.338 14 58.676 14.552 59.66 15.539L63.5 19.379L57.32 25.559C57.1803 25.6991 57.0143 25.8102 56.8316 25.8859C56.6488 25.9616 56.4528 26.0004 56.255 26H41V21.5ZM41 29V48.5C41 50.4891 41.7902 52.3968 43.1967 53.8033C44.6032 55.2098 46.5109 56 48.5 56H62.018C61.8829 54.3877 62.3158 52.7789 63.2416 51.452C64.1675 50.1251 65.5281 49.1636 67.088 48.734C66.3025 47.8494 65.7165 46.8063 65.3697 45.6753C65.0228 44.5443 64.9232 43.352 65.0777 42.1791C65.2321 41.0063 65.637 39.8804 66.2649 38.8777C66.8927 37.8751 67.7288 37.0193 68.7165 36.3682C69.7042 35.7171 70.8204 35.2861 71.9893 35.1043C73.1582 34.9225 74.3525 34.9942 75.4913 35.3146C76.6301 35.635 77.6866 36.1965 78.5893 36.9611C79.492 37.7257 80.2197 38.6755 80.723 39.746C81.8365 38.7348 83.2565 38.1255 84.7565 38.0151C86.2566 37.9047 87.7505 38.2997 89 39.137V27.5C89 25.5109 88.2098 23.6032 86.8033 22.1967C85.3968 20.7902 83.4891 20 81.5 20H67.121L59.441 27.68C59.0228 28.0987 58.5262 28.4308 57.9795 28.6573C57.4328 28.8838 56.8468 29.0003 56.255 29H41ZM78.5 43.25C78.5 43.9394 78.3642 44.6221 78.1004 45.2591C77.8365 45.896 77.4498 46.4748 76.9623 46.9623C76.4748 47.4498 75.896 47.8365 75.2591 48.1004C74.6221 48.3642 73.9394 48.5 73.25 48.5C72.5606 48.5 71.8779 48.3642 71.2409 48.1004C70.604 47.8365 70.0252 47.4498 69.5377 46.9623C69.0502 46.4748 68.6635 45.896 68.3996 45.2591C68.1358 44.6221 68 43.9394 68 43.25C68 41.8576 68.5531 40.5223 69.5377 39.5377C70.5223 38.5531 71.8576 38 73.25 38C74.6424 38 75.9777 38.5531 76.9623 39.5377C77.9469 40.5223 78.5 41.8576 78.5 43.25ZM83 55.439C83 58.709 80.429 62 74 62C67.571 62 65 58.718 65 55.439C65 53.264 66.728 51.5 68.858 51.5H79.142C81.272 51.5 83 53.264 83 55.439ZM84.431 60.5H84.5C89.858 60.5 92 57.677 92 54.875C92 53.012 90.56 51.5 88.787 51.5H84.788C85.556 52.625 86 53.987 86 55.439C86 57.185 85.502 58.958 84.431 60.5ZM89 44.75C89 45.7446 88.6049 46.6984 87.9017 47.4016C87.1984 48.1049 86.2446 48.5 85.25 48.5C84.2554 48.5 83.3016 48.1049 82.5984 47.4016C81.8951 46.6984 81.5 45.7446 81.5 44.75C81.5 43.7554 81.8951 42.8016 82.5984 42.0984C83.3016 41.3951 84.2554 41 85.25 41C86.2446 41 87.1984 41.3951 87.9017 42.0984C88.6049 42.8016 89 43.7554 89 44.75Z" fill="white"/>
</svg>
