<?xml version="1.0" encoding="utf-8"?>
<svg viewBox="211.1349 176.4015 25.4731 27.2448" width="30" height="30" xmlns="http://www.w3.org/2000/svg">
  <path d="M 218.151 187.599 C 219.007 189.259 219.994 190.853 221.276 192.306 C 222.561 193.768 224.16 195.098 226.23 196.235 C 226.382 196.315 226.528 196.315 226.658 196.26 C 226.855 196.179 227.057 196.002 227.253 195.791 C 227.407 195.626 227.598 195.364 227.796 195.076 C 228.593 193.95 229.578 192.553 230.969 193.253 C 231 193.269 231.024 193.286 231.054 193.3 L 235.694 196.169 C 235.708 196.177 235.725 196.193 235.737 196.201 C 236.349 196.654 236.601 197.351 236.608 198.143 C 236.608 198.948 236.332 199.852 235.929 200.616 C 235.393 201.626 234.605 202.295 233.697 202.735 C 232.832 203.163 231.87 203.393 230.946 203.539 C 229.494 203.769 228.135 203.623 226.743 203.163 C 225.383 202.711 224.013 201.964 222.516 200.97 L 222.405 200.895 C 221.719 200.434 220.977 199.941 220.25 199.36 C 217.587 197.198 214.873 194.075 213.105 190.639 C 211.622 187.756 210.814 184.642 211.255 181.676 C 211.5 180.049 212.149 178.569 213.28 177.593 C 214.268 176.738 215.597 176.27 217.317 176.434 C 217.515 176.451 217.691 176.572 217.784 176.755 L 220.759 182.162 C 221.195 182.769 221.249 183.371 221.011 183.972 C 220.814 184.463 220.415 184.919 219.871 185.342 C 219.712 185.489 219.522 185.639 219.32 185.794 C 218.655 186.314 217.898 186.913 218.157 187.617 L 218.151 187.599 Z" fill="#F2692E" style="" transform="matrix(0.9999999999999999, 0, 0, 0.9999999999999999, 0, 0)"/>
</svg>