<svg width="310" height="185" viewBox="0 0 310 185" fill="none" xmlns="http://www.w3.org/2000/svg">
<g clip-path="url(#clip0_78_156)">
<path d="M33.6748 130.287C32.3359 130.431 30.8742 130.648 29.3193 130.966C22.7309 132.313 22.5911 136.797 22.6504 137.825L22.6038 137.795C21.9429 138.861 21.5276 139.94 21.2734 140.955L20.9726 127.208C21.1675 126.8 21.3455 126.337 21.4937 125.866C21.9852 127.391 22.7945 128.826 23.4936 128.733C24.4002 128.609 24.7943 125.934 24.6248 124.036C25.7772 125.522 27.7177 127.114 28.4507 126.622C29.0354 126.231 28.688 124.617 28.0524 123.148C29.3828 123.951 30.8573 124.477 31.3148 123.968C31.9377 123.271 30.442 120.897 29.0651 119.572C30.9081 119.746 33.2553 119.449 33.4121 118.608C33.5392 117.916 32.141 117.041 30.6454 116.476C32.1453 116.081 33.5519 115.389 33.5053 114.705C33.4502 113.894 31.3657 113.346 29.565 113.266C30.9208 112.204 32.1665 110.73 31.7851 110.068C31.4335 109.456 29.8065 109.694 28.3024 110.234C29.1922 108.96 29.8192 107.52 29.3405 107.027C28.7473 106.416 26.6416 107.473 25.201 108.641C25.4807 106.819 25.3408 104.522 24.5231 104.314C23.841 104.139 22.875 105.477 22.214 106.934C21.9217 105.405 21.3285 103.953 20.6464 103.953C19.6719 103.953 18.8838 106.896 18.8838 108.815C18.8838 108.926 18.8838 109.027 18.8923 109.125C18.7949 109.01 18.6805 108.892 18.5534 108.768C17.1806 107.431 14.5241 105.949 13.8419 106.649C13.3674 107.142 13.9902 108.577 14.88 109.856C13.3759 109.316 11.7447 109.078 11.3973 109.69C10.927 110.51 12.9395 112.561 14.5749 113.555C14.4775 113.542 14.3715 113.533 14.2614 113.525C12.3506 113.393 9.36779 113.983 9.3 114.956C9.25339 115.64 10.6558 116.332 12.1599 116.727C10.6643 117.292 9.27034 118.167 9.39321 118.859C9.54574 119.7 11.893 119.997 13.7403 119.823C12.3633 121.148 10.8676 123.522 11.4905 124.218C11.9481 124.728 13.4225 124.201 14.7529 123.399C14.1131 124.868 13.7699 126.482 14.3546 126.872C15.1257 127.391 17.2484 125.586 18.3627 124.036C18.2483 125.934 18.7016 128.541 19.5999 128.643C19.9769 128.686 20.3752 128.282 20.7353 127.667L19.7185 142.441C19.4812 144.161 21.0023 145.286 21.1378 145.991L21.3582 155.997C21.1082 155.283 20.7777 154.553 20.3244 153.831L20.2778 153.861C20.3371 152.833 20.1973 148.348 13.6089 147.002C12.054 146.684 10.5922 146.467 9.25339 146.323C7.67303 146.153 7.05445 148.323 8.48228 149.024C10.5499 150.039 12.4946 151.317 13.5115 152.829C16.1044 156.698 19.6846 154.464 20.1973 154.115C20.765 155.067 21.1378 156.022 21.3751 156.931L21.4937 162.244C21.4641 162.371 21.4471 162.439 21.4429 162.443L21.498 162.46L21.7819 175.32L24.4002 175.298L23.4639 162.155C23.6207 161.445 24.1037 159.029 23.4639 156.523L22.5275 146.195L21.3073 142.135C21.4853 140.878 21.8963 139.468 22.7352 138.071C23.2436 138.419 26.828 140.657 29.421 136.784C30.4336 135.273 32.3825 133.994 34.4501 132.979C35.878 132.279 35.2636 130.108 33.679 130.278L33.6748 130.287ZM21.7141 160.711L21.6632 158.46C21.7607 159.309 21.7564 160.078 21.7141 160.711Z" fill="#F2F2F2"/>
<path d="M0 175.94C0 176.22 0.224555 176.445 0.504189 176.445H309.496C309.775 176.445 310 176.22 310 175.94C310 175.659 309.775 175.434 309.496 175.434H0.504189C0.224555 175.434 0 175.659 0 175.94Z" fill="#3F3D56"/>
<path d="M187.516 176.386C200.152 176.386 210.395 166.118 210.395 153.453C210.395 140.788 200.152 130.52 187.516 130.52C174.88 130.52 164.637 140.788 164.637 153.453C164.637 166.118 174.88 176.386 187.516 176.386Z" fill="#3F3D56"/>
<path d="M187.516 168.741C195.94 168.741 202.769 161.897 202.769 153.453C202.769 145.009 195.94 138.165 187.516 138.165C179.092 138.165 172.263 145.009 172.263 153.453C172.263 161.897 179.092 168.741 187.516 168.741Z" fill="white"/>
<path d="M187.516 162.159C192.313 162.159 196.202 158.261 196.202 153.453C196.202 148.645 192.313 144.747 187.516 144.747C182.719 144.747 178.83 148.645 178.83 153.453C178.83 158.261 182.719 162.159 187.516 162.159Z" fill="#3F3D56"/>
<path d="M55.3252 176.386C67.961 176.386 78.2044 166.118 78.2044 153.453C78.2044 140.788 67.961 130.52 55.3252 130.52C42.6894 130.52 32.446 140.788 32.446 153.453C32.446 166.118 42.6894 176.386 55.3252 176.386Z" fill="#3F3D56"/>
<path d="M55.3252 168.741C63.749 168.741 70.5779 161.897 70.5779 153.453C70.5779 145.009 63.749 138.165 55.3252 138.165C46.9013 138.165 40.0724 145.009 40.0724 153.453C40.0724 161.897 46.9013 168.741 55.3252 168.741Z" fill="white"/>
<path d="M218.814 142.547C215.835 135.018 205.421 112.013 186.872 104.398C186.728 104.339 186.58 104.301 186.427 104.28L126.937 95.7393C125.958 95.5992 125.043 96.2702 124.886 97.2512L123.844 103.706C123.772 104.148 123.865 104.602 124.107 104.98C127.128 109.677 146.49 141.566 115.485 141.566C84.4792 141.566 75.9334 119.326 74.5776 115.398C74.4505 115.028 74.4462 114.629 74.5606 114.255L83.958 84.4217C84.1233 83.8908 84.0343 83.3472 83.7631 82.9141L87.8941 75.2231L95.4612 79.5166L99.3803 79.5634L112.756 86.5705L115.48 82.1114L87.8941 68.3179C87.8941 68.3179 87.9407 65.1243 79.0432 62.5762L65.0615 56.2061L63.3668 58.3295L67.6037 61.7269L68.0273 64.275L70.9932 65.1243L76.9248 76.5906L75.23 79.8776L77.2892 80.8841L76.7002 80.7482C75.8486 80.5528 74.9801 80.9945 74.6326 81.7972L65.2861 103.269C65.142 103.596 64.9048 103.876 64.6039 104.071L61.2738 106.225C60.9645 106.424 60.7187 106.717 60.5789 107.061L56.7742 116.306C56.6556 116.595 56.6217 116.897 56.6513 117.19C51.9102 118.09 37.9751 121.98 30.3191 137.324L39.2165 144.543C39.2165 144.543 53.1644 135.498 76.213 144.917C80.2211 151.168 86.0638 156.354 94.5036 156.842C116.751 158.133 153.612 159.407 157.849 154.311C160.951 150.578 163.107 148.251 164.044 147.27C164.374 146.926 164.823 146.726 165.298 146.709L217.178 145.049C218.437 145.01 219.271 143.728 218.81 142.556L218.814 142.547Z" fill="#F2692E"/>
<path d="M75.6622 75.737C79.4061 75.737 82.4412 72.6948 82.4412 68.9421C82.4412 65.1895 79.4061 62.1473 75.6622 62.1473C71.9182 62.1473 68.8832 65.1895 68.8832 68.9421C68.8832 72.6948 71.9182 75.737 75.6622 75.737Z" fill="#3F3D56"/>
<path d="M184.224 104.428C184.143 104.428 184.063 104.428 183.982 104.424L127.301 102.224C124.793 102.126 122.645 100.525 121.827 98.1472L121.052 95.8837C120.421 94.0406 120.696 92.0616 121.806 90.4606C122.92 88.8595 124.674 87.9168 126.619 87.87L185.181 86.5196C186.995 86.4771 188.74 87.2543 189.922 88.6557C191.105 90.0571 191.588 91.8917 191.244 93.6966L190.138 99.5062C189.592 102.39 187.122 104.424 184.22 104.424L184.224 104.428Z" fill="#3F3D56"/>
<path d="M55.3251 162.159C60.1221 162.159 64.0107 158.261 64.0107 153.453C64.0107 148.645 60.1221 144.747 55.3251 144.747C50.5282 144.747 46.6395 148.645 46.6395 153.453C46.6395 158.261 50.5282 162.159 55.3251 162.159Z" fill="#3F3D56"/>
<path d="M206.997 128.669C205.641 128.669 204.349 127.943 203.658 126.69L199.366 118.901C198.684 117.665 198.727 116.217 199.472 115.024C200.218 113.826 201.506 113.155 202.904 113.232L210.696 113.631C212.145 113.707 213.45 114.62 214.018 115.962L216.293 121.356C216.708 122.345 216.7 123.424 216.263 124.405C215.827 125.382 215.03 126.117 214.022 126.465L208.251 128.461C207.84 128.605 207.417 128.673 207.001 128.673L206.997 128.669Z" fill="#3F3D56"/>
<path d="M108.468 180.433C108.405 180.433 108.337 180.433 108.274 180.42L106.545 180.229C105.981 180.165 105.49 179.847 105.202 179.354C104.914 178.861 104.876 178.28 105.096 177.753L114.095 156.332C114.341 155.746 114.887 155.33 115.519 155.249C116.133 155.173 116.73 155.415 117.124 155.895C117.514 156.375 117.633 157.012 117.434 157.598L110.167 179.21C109.922 179.94 109.227 180.428 108.473 180.428L108.468 180.433Z" fill="#3F3D56"/>
<path d="M155.189 30.9505C155.189 30.9505 151.897 24.351 152.553 18.414L141.597 24.1047L142.02 34.9085L155.189 30.9505Z" fill="#A0616A"/>
<path d="M148.388 27.1539C153.847 27.1539 158.273 22.718 158.273 17.2462C158.273 11.7743 153.847 7.33842 148.388 7.33842C142.929 7.33842 138.504 11.7743 138.504 17.2462C138.504 22.718 142.929 27.1539 148.388 27.1539Z" fill="#A0616A"/>
<path d="M158.485 172.814H152.452L149.583 149.495H158.485V172.814Z" fill="#A0616A"/>
<path d="M137.822 172.674C137.635 172.992 137.533 174.016 137.533 174.381C137.533 175.515 138.449 176.432 139.58 176.432H158.256C159.027 176.432 159.654 175.804 159.654 175.031V174.249C159.654 174.249 160.578 171.905 158.676 169.022C158.676 169.022 156.311 171.281 152.778 167.743L151.735 165.854L144.194 171.383L140.012 171.897C139.097 172.011 138.288 171.88 137.817 172.674H137.822Z" fill="#2F2E41"/>
<path d="M140.703 30.9505L155.188 28.9715L166.382 34.2502L167.039 75.1637C167.039 75.1637 139.508 78.4634 135.169 74.1742C130.831 69.8849 134.123 35.571 134.123 35.571L140.707 30.9505H140.703Z" fill="#E6E6E6"/>
<path d="M145.914 19.7687H143.257C143.257 19.7687 140.953 16.9234 141.262 18.6561C141.571 20.3888 140.33 22.2531 140.33 22.2531L138.47 21.6331C138.47 21.6331 134.75 5.94973 145.914 5.08763C157.078 4.22554 159.561 12.9314 159.561 12.9314C159.561 12.9314 158.942 17.2844 157.701 16.0401C156.46 14.7958 149.638 14.1757 149.638 14.1757L145.918 19.773L145.914 19.7687Z" fill="#2F2E41"/>
<path d="M138.885 167.574L133.085 169.213L124.001 147.558L132.568 145.134L138.885 167.574Z" fill="#A0616A"/>
<path d="M118.963 173.069C118.87 173.426 119.052 174.436 119.15 174.793C119.455 175.884 120.586 176.517 121.675 176.211L139.648 171.124C140.389 170.916 140.821 170.139 140.614 169.395L140.402 168.644C140.402 168.644 140.656 166.138 138.042 163.879C138.042 163.879 136.381 166.699 132.021 164.253L130.504 162.715L124.747 170.088L120.866 171.723C120.018 172.079 119.2 172.177 118.963 173.069Z" fill="#2F2E41"/>
<path d="M165.06 71.2057L167.035 77.1936V97.7693L161.107 159.874H149.532L148.227 115.542L149.257 93.6456L127.179 127.127L136.881 151.041L126.2 158.18C126.2 158.18 110.227 121.696 112.616 118.158C115.006 114.625 136.411 72.8917 136.411 72.8917C136.411 72.8917 165.052 71.8682 165.052 71.2099L165.06 71.2057Z" fill="#2F2E41"/>
<path d="M170.988 47.4492L174.17 52.6728C174.17 52.6728 178.669 70.3988 174.17 70.471C169.67 70.5432 160.586 61.4381 160.586 61.4381L161.773 56.686L165.065 58.0067L164.408 47.4492H170.992H170.988Z" fill="#A0616A"/>
<path d="M161.112 34.1695C161.112 34.1695 171.645 32.3095 172.632 39.219C173.619 46.1285 174.17 52.677 174.17 52.677L162.756 53.624L161.112 34.1695Z" fill="#E6E6E6"/>
<path d="M163.4 60.8597C164.353 59.5186 162.957 56.8838 160.283 54.9748C157.609 53.0658 154.669 52.6054 153.716 53.9465C152.763 55.2876 154.158 57.9224 156.832 59.8314C159.506 61.7404 162.447 62.2008 163.4 60.8597Z" fill="#A0616A"/>
<path d="M250.179 130.287C248.841 130.431 247.379 130.648 245.824 130.966C239.236 132.313 239.096 136.797 239.155 137.825L239.108 137.795C238.447 138.861 238.032 139.94 237.778 140.955L237.477 127.208C237.672 126.8 237.85 126.337 237.998 125.866C238.49 127.391 239.299 128.826 239.998 128.733C240.905 128.609 241.299 125.934 241.129 124.036C242.282 125.522 244.222 127.114 244.955 126.622C245.54 126.231 245.193 124.617 244.557 123.148C245.887 123.951 247.362 124.477 247.819 123.968C248.442 123.271 246.947 120.897 245.57 119.572C247.413 119.746 249.76 119.449 249.917 118.608C250.044 117.916 248.646 117.041 247.15 116.476C248.65 116.081 250.057 115.389 250.01 114.705C249.955 113.894 247.87 113.346 246.07 113.266C247.425 112.204 248.671 110.73 248.29 110.068C247.938 109.456 246.311 109.694 244.807 110.234C245.697 108.96 246.324 107.52 245.845 107.027C245.252 106.416 243.146 107.473 241.706 108.641C241.985 106.819 241.845 104.522 241.028 104.314C240.346 104.139 239.38 105.477 238.719 106.934C238.426 105.405 237.833 103.953 237.151 103.953C236.177 103.953 235.388 106.896 235.388 108.815C235.388 108.926 235.388 109.027 235.397 109.125C235.299 109.01 235.185 108.892 235.058 108.768C233.685 107.431 231.029 105.949 230.347 106.649C229.872 107.142 230.495 108.577 231.385 109.856C229.881 109.316 228.249 109.078 227.902 109.69C227.432 110.51 229.444 112.561 231.08 113.555C230.982 113.542 230.876 113.533 230.766 113.525C228.855 113.393 225.872 113.983 225.805 114.956C225.758 115.64 227.16 116.332 228.665 116.727C227.169 117.292 225.775 118.167 225.898 118.859C226.05 119.7 228.398 119.997 230.245 119.823C228.868 121.148 227.372 123.522 227.995 124.218C228.453 124.728 229.927 124.201 231.257 123.399C230.618 124.868 230.275 126.482 230.859 126.872C231.63 127.391 233.753 125.586 234.867 124.036C234.753 125.934 235.206 128.541 236.104 128.643C236.482 128.686 236.88 128.282 237.24 127.667L236.223 142.441C235.986 144.161 237.507 145.286 237.642 145.991L237.863 155.997C237.613 155.283 237.282 154.553 236.829 153.831L236.782 153.861C236.842 152.833 236.702 148.348 230.114 147.002C228.559 146.684 227.097 146.467 225.758 146.323C224.178 146.153 223.559 148.323 224.987 149.024C227.055 150.039 228.999 151.317 230.016 152.829C232.609 156.698 236.189 154.464 236.702 154.115C237.27 155.067 237.642 156.022 237.88 156.931L237.998 162.244C237.969 162.371 237.952 162.439 237.948 162.443L238.003 162.46L238.286 175.32L240.905 175.298L239.969 162.155C240.125 161.445 240.608 159.029 239.969 156.523L239.032 146.195L237.812 142.135C237.99 140.878 238.401 139.468 239.24 138.071C239.748 138.419 243.333 140.657 245.926 136.784C246.938 135.273 248.887 133.994 250.955 132.979C252.383 132.279 251.768 130.108 250.184 130.278L250.179 130.287ZM238.219 160.711L238.168 158.46C238.265 159.309 238.261 160.078 238.219 160.711Z" fill="#F2F2F2"/>
<path d="M219.687 173.723L224.241 172.738L222.61 154.672L215.895 156.124L219.687 173.723Z" fill="#A0616A"/>
<path d="M235.261 170.245C235.456 170.453 235.698 171.209 235.757 171.489C235.944 172.343 235.401 173.188 234.545 173.37L220.449 176.424C219.869 176.551 219.293 176.177 219.166 175.596L219.038 175.005C219.038 175.005 217.958 173.387 218.924 170.899C218.924 170.899 221.076 172.219 223.165 168.966L223.644 167.37L230.236 170.308L233.473 170.015C234.181 169.952 234.774 169.718 235.257 170.245H235.261Z" fill="#2F2E41"/>
<path d="M227.83 172.343L231.626 169.642L223.038 153.674L217.433 157.657L227.83 172.343Z" fill="#A0616A"/>
<path d="M240.782 163C241.04 163.114 241.562 163.713 241.723 163.947C242.227 164.66 242.062 165.65 241.35 166.155L229.588 174.521C229.101 174.865 228.432 174.751 228.084 174.266L227.737 173.774C227.737 173.774 226.11 172.712 226.021 170.041C226.021 170.041 228.516 170.406 229.165 166.593L228.978 164.936L236.193 165.038L239.058 163.492C239.685 163.153 240.138 162.707 240.786 163H240.782Z" fill="#2F2E41"/>
<path d="M173.119 83.0117C173.119 83.0117 166.039 92.6604 180.199 103.511L209.116 94.2487L198.786 72.6581L189.639 67.6299L173.115 83.0075L173.119 83.0117Z" fill="#2F2E41"/>
<path d="M209.12 94.2529L220.331 116.137L227.415 161.688L218.564 162.278L209.709 119.097L194.07 95.7308L204.989 90.7026" fill="#2F2E41"/>
<path d="M180.203 96.6396V103.515L200.269 125.603C200.269 125.603 200.269 142.165 207.942 149.856L216.793 163.463L224.466 159.322L213.255 119.691L193.189 93.6626L180.207 96.6396H180.203Z" fill="#2F2E41"/>
<path d="M194.46 28.4831L190.681 42.9264L176.271 40.0853C176.271 40.0853 186.325 29.6935 184.91 24.9583L194.464 28.4831H194.46Z" fill="#A0616A"/>
<path d="M183.449 30.6617L192.299 34.8023C192.299 34.8023 196.854 37.5925 196.939 39.4525C197.024 41.3126 196.43 50.1841 196.43 50.1841C196.43 50.1841 199.972 53.7344 197.612 60.8308L198.795 72.6623L172.238 86.8593L174.598 62.0157L173.416 38.9472L183.449 30.666V30.6617Z" fill="#3F3D56"/>
<path d="M175.504 97.9816C176.542 100.364 178.61 101.761 180.123 101.099C181.635 100.436 182.021 97.9689 180.987 95.5864C180.584 94.6267 179.962 93.7815 179.165 93.1148L174.644 83.0712L169.988 85.2965L174.937 94.9622C174.882 95.9984 175.076 97.0346 175.504 97.9816Z" fill="#A0616A"/>
<path d="M180.203 40.4251C180.203 40.4251 173.712 36.2845 171.352 41.0154C168.992 45.7463 163.679 69.9996 163.679 69.9996L171.352 93.0681L178.432 90.1123L172.233 65.2857L180.199 40.4251H180.203Z" fill="#3F3D56"/>
<path d="M213.475 94.2572C215.314 96.0918 217.75 96.6269 218.916 95.4505C220.081 94.2742 219.53 91.8408 217.691 90.0062C216.967 89.263 216.073 88.7067 215.09 88.3797L207.196 80.71L203.684 84.4981L211.836 91.6539C212.166 92.6392 212.73 93.531 213.475 94.2529V94.2572Z" fill="#A0616A"/>
<path d="M196.689 39.0109C196.689 39.0109 185.372 38.548 184.915 43.8182C184.461 49.0885 192.198 72.6071 192.198 72.6071L207.811 91.2207L213.306 85.8571L198.422 65.0649L196.693 39.0109H196.689Z" fill="#3F3D56"/>
<path d="M163.552 81.7165L154.1 52.9531C146.456 46.2049 138.165 62.4573 115.908 53.2418L122.908 85.7764C139.737 76.6586 154.218 73.087 163.552 81.7165Z" fill="white"/>
<path d="M122.908 86.6257C122.848 86.6257 122.785 86.613 122.73 86.5875C122.607 86.5323 122.522 86.4219 122.493 86.2902L115.493 53.7557C115.459 53.6028 115.514 53.4414 115.637 53.3395C115.76 53.2376 115.925 53.2121 116.069 53.2716C128.712 58.5036 136.873 55.3907 142.834 53.1144C147.363 51.386 150.939 50.0185 154.379 53.055C154.434 53.1059 154.477 53.1696 154.502 53.2418L163.955 82.0053C164.014 82.1879 163.942 82.3917 163.781 82.4936C163.62 82.5998 163.404 82.5786 163.264 82.4469C155.061 74.8622 142.3 76.1702 123.111 86.5705C123.048 86.6045 122.98 86.6215 122.908 86.6215V86.6257ZM116.489 54.3587L123.2 85.5598C141.614 75.6776 154.227 74.153 162.671 80.8331L153.727 53.624C150.697 51.025 147.516 52.2396 143.13 53.9128C137.156 56.1933 129.017 59.302 116.489 54.363V54.3587Z" fill="#3F3D56"/>
<path d="M130.568 39.2487L124.586 40.4888C124.586 40.4888 108.596 49.3093 111.621 52.6515C114.642 55.9937 127.484 56.4227 127.484 56.4227L130.136 52.3075L126.924 50.7999L135.068 44.0688L130.568 39.2487Z" fill="#A0616A"/>
<path d="M146.99 37.4014C146.99 37.4014 141.148 28.4194 135.441 32.4199C129.733 36.4204 124.59 40.4888 124.59 40.4888L131.699 49.4877L146.994 37.4014H146.99Z" fill="#E6E6E6"/>
<path d="M137.633 56.3293C137.959 54.7155 135.615 52.8782 132.397 52.2255C129.179 51.5728 126.307 52.3519 125.981 53.9657C125.655 55.5795 127.999 57.4168 131.217 58.0695C134.435 58.7222 137.307 57.943 137.633 56.3293Z" fill="#A0616A"/>
<path d="M248.125 179.188C250.099 179.188 251.7 177.584 251.7 175.604C251.7 173.625 250.099 172.02 248.125 172.02C246.15 172.02 244.549 173.625 244.549 175.604C244.549 177.584 246.15 179.188 248.125 179.188Z" fill="#3F3D56"/>
<path d="M252.891 184.747C254.866 184.747 256.467 183.143 256.467 181.163C256.467 179.184 254.866 177.579 252.891 177.579C250.916 177.579 249.315 179.184 249.315 181.163C249.315 183.143 250.916 184.747 252.891 184.747Z" fill="#3F3D56"/>
<path d="M288.642 184.747C290.617 184.747 292.218 183.143 292.218 181.163C292.218 179.184 290.617 177.579 288.642 177.579C286.667 177.579 285.066 179.184 285.066 181.163C285.066 183.143 286.667 184.747 288.642 184.747Z" fill="#3F3D56"/>
<path d="M258.128 127.526V88.6047C258.128 84.2475 261.763 83.1689 266.11 83.1689C268.241 83.1689 269.275 82.9226 270.771 84.4429C272.266 85.9632 273.927 86.596 273.893 88.7321L273.266 126.923L258.124 127.522L258.128 127.526ZM266.534 85.7212C262.653 85.7212 258.975 84.7189 258.975 88.609V126.647L272.436 126.112L273.05 88.7236C273.08 86.8168 269.987 87.0802 268.656 85.7212C267.322 84.3622 268.44 85.7212 266.538 85.7212H266.534Z" fill="#3F3D56"/>
<path d="M247.485 127.055L246.943 169.578C246.934 170.126 247.065 170.665 247.32 171.149L251.328 178.738C251.917 179.855 253.094 180.53 254.353 180.475L289.544 178.921C291.345 178.84 292.739 177.311 292.658 175.506L290.451 126.953C290.371 125.208 288.939 123.832 287.193 123.832H250.743C248.959 123.832 247.506 125.271 247.481 127.059L247.485 127.055Z" fill="#E6E6E6"/>
<path d="M261.356 146.246L260.509 146.204L260.823 139.91C260.992 136.521 263.776 133.803 267.161 133.722L282.147 133.374C285.172 133.323 287.68 135.621 287.845 138.653L288.163 144.407L287.316 144.454L286.998 138.7C286.854 136.13 284.714 134.16 282.164 134.224L267.178 134.572C264.233 134.64 261.814 137.005 261.666 139.952L261.352 146.246H261.356Z" fill="#3F3D56"/>
<path d="M260.759 176.73L259.916 176.645L261.742 158.783C262.081 155.479 264.831 152.875 268.14 152.727L282.757 152.069C284.6 151.984 286.35 152.638 287.689 153.907C289.027 155.177 289.773 156.893 289.794 158.74L289.959 174.292L289.112 174.3L288.947 158.749C288.93 157.135 288.277 155.636 287.108 154.523C285.939 153.411 284.401 152.841 282.799 152.914L268.182 153.572C265.288 153.704 262.886 155.976 262.589 158.863L260.763 176.725L260.759 176.73Z" fill="#3F3D56"/>
<path d="M254.209 175.494L253.361 175.481L253.895 134.661C253.933 131.871 256.141 129.62 258.924 129.535L287.735 128.686L287.761 129.535L258.95 130.385C256.619 130.452 254.772 132.334 254.743 134.669L254.209 175.49V175.494Z" fill="#3F3D56"/>
<path d="M254.285 169.68H253.696V132.504C253.696 131.327 252.743 130.368 251.565 130.368H248.273V129.518H251.565C253.12 129.518 254.399 130.72 254.531 132.24C254.539 132.325 254.543 132.414 254.543 132.504V150.107L254.285 169.68Z" fill="#3F3D56"/>
<path d="M200.612 20.7625C200.612 26.2069 196.21 30.6193 190.778 30.6193C185.347 30.6193 180.945 26.2069 180.945 20.7625C180.945 15.3181 185.347 10.9057 190.778 10.9057C196.21 10.9057 200.612 15.3181 200.612 20.7625Z" fill="#A0616A"/>
<path d="M189.995 7.51255C190.278 7.67818 190.66 7.42762 190.753 7.10911C190.846 6.7906 190.736 6.4551 190.634 6.14084C190.456 5.61424 190.283 5.09189 190.105 4.56529C189.728 3.44839 189.329 2.29326 188.516 1.44391C187.287 0.161383 185.33 -0.165619 183.571 0.0722005C181.313 0.377968 179.085 1.60104 178.034 3.631C176.983 5.66096 177.432 8.48931 179.33 9.75485C176.623 12.8635 175.682 16.3289 175.831 20.4482C175.979 24.5718 180.462 28.3642 183.385 31.269C184.037 30.8741 184.631 29.014 184.27 28.3387C183.91 27.6635 184.427 26.8821 183.982 26.2578C183.537 25.6378 183.165 26.6273 183.614 26.0073C183.898 25.6166 182.792 24.7205 183.211 24.4869C185.249 23.3573 185.927 20.8092 187.207 18.8599C188.753 16.5072 191.393 14.9147 194.193 14.6514C195.735 14.507 197.362 14.7703 198.625 15.6664C199.888 16.5624 200.705 18.1635 200.413 19.6881C201.171 18.9151 201.548 17.7855 201.409 16.7111C201.265 15.6366 200.608 14.6429 199.672 14.0951C200.239 12.2137 199.752 10.0479 198.434 8.59548C197.117 7.13883 191.774 7.38939 189.85 7.7716L189.999 7.5168L189.995 7.51255Z" fill="#2F2E41"/>
<path d="M189.698 14.7066C187.152 14.9826 185.313 17.1952 183.758 19.2379C182.864 20.4143 181.923 21.7138 181.949 23.1959C181.97 24.6908 182.97 25.9775 183.448 27.3917C184.228 29.7104 183.47 32.4666 181.614 34.0549C183.448 34.4031 185.431 33.0272 185.745 31.1798C186.113 29.0352 184.491 26.9628 184.681 24.7927C184.851 22.8816 186.355 21.4122 187.63 19.9811C188.91 18.5499 190.109 16.6559 189.52 14.8297L189.698 14.7066Z" fill="#2F2E41"/>
</g>
<defs>
<clipPath id="clip0_78_156">
<rect width="310" height="184.747" fill="white"/>
</clipPath>
</defs>
</svg>
