<svg width="79" height="107" viewBox="0 0 79 107" fill="none" xmlns="http://www.w3.org/2000/svg">
<rect x="6" width="64.46" height="64.46" rx="10" fill="#F2692E"/>
<path d="M2.28844 78.0469H3.68297L6.32164 85.416C6.37633 85.5664 6.4219 85.7008 6.45836 85.8193C6.49482 85.9333 6.53355 86.0586 6.57457 86.1953H6.63609C6.67711 86.0586 6.71585 85.9333 6.7523 85.8193C6.79332 85.7008 6.84117 85.5664 6.89586 85.416L9.56187 78.0469H10.9017L7.18297 88.0684H6.00719L2.28844 78.0469ZM12.815 88V80.8086H14.0864V88H12.815ZM12.6577 78.6348C12.6577 78.4206 12.7261 78.2406 12.8628 78.0947C12.9995 77.9489 13.1955 77.876 13.4507 77.876C13.7059 77.876 13.9019 77.9489 14.0386 78.0947C14.1753 78.2406 14.2437 78.4206 14.2437 78.6348C14.2437 78.849 14.1753 79.029 14.0386 79.1748C13.9019 79.3206 13.7059 79.3936 13.4507 79.3936C13.1955 79.3936 12.9995 79.3206 12.8628 79.1748C12.7261 79.029 12.6577 78.849 12.6577 78.6348ZM16.5807 84.5137V84.2949C16.5807 83.2103 16.877 82.3239 17.4694 81.6357C18.0664 80.9476 18.8548 80.6035 19.8346 80.6035C20.8145 80.6035 21.5687 80.9248 22.0973 81.5674C22.626 82.21 22.8903 83.0781 22.8903 84.1719V84.6914H17.36V83.6797H21.612V83.5156C21.612 82.9961 21.4639 82.554 21.1677 82.1895C20.8714 81.8249 20.4453 81.6426 19.8893 81.6426C19.2149 81.6426 18.7113 81.9001 18.3786 82.415C18.0459 82.9255 17.8796 83.5521 17.8796 84.2949V84.5137C17.8796 85.2565 18.055 85.8854 18.4059 86.4004C18.7568 86.9108 19.3014 87.166 20.0397 87.166C20.4955 87.166 20.8874 87.0658 21.2155 86.8652C21.5436 86.6647 21.8102 86.4277 22.0153 86.1543L22.8356 86.8037C22.6078 87.1455 22.2546 87.4645 21.7761 87.7607C21.3021 88.057 20.7233 88.2051 20.0397 88.2051C18.9232 88.2051 18.0664 87.861 17.4694 87.1729C16.877 86.4847 16.5807 85.5983 16.5807 84.5137ZM24.4481 80.8086H25.6786L27.0047 85.5391C27.0549 85.7214 27.0936 85.8695 27.1209 85.9834C27.1528 86.0973 27.187 86.2454 27.2235 86.4277H27.2645C27.301 86.2454 27.3329 86.0973 27.3602 85.9834C27.3921 85.8695 27.4377 85.7214 27.4969 85.5391L29.0623 80.8086H30.1287L31.742 85.5391C31.8058 85.7214 31.8514 85.8695 31.8787 85.9834C31.9107 86.0973 31.9448 86.2454 31.9813 86.4277H32.0223C32.0588 86.2454 32.0884 86.0973 32.1112 85.9834C32.1385 85.8695 32.1773 85.7214 32.2274 85.5391L33.5125 80.8086H34.6746L32.453 88H31.4618L29.8963 83.3516C29.8371 83.1693 29.7801 82.987 29.7254 82.8047C29.6753 82.6224 29.6274 82.4401 29.5819 82.2578H29.5409C29.4953 82.4401 29.4452 82.6224 29.3905 82.8047C29.3403 82.987 29.2857 83.1693 29.2264 83.3516L27.661 88H26.6698L24.4481 80.8086ZM41.1056 88V78.0469H47.3537V79.127H42.4181V82.3262H46.7248V83.4062H42.4181V86.9199H47.422V88H41.1056ZM48.8636 88L51.598 84.0215H51.6732L53.7034 80.8086H55.139L52.5413 84.6914H52.4661L50.2991 88H48.8636ZM49.0003 80.8086H50.4564L52.4866 84.0215H52.5413L55.2757 88H53.8196L51.6527 84.6914H51.598L49.0003 80.8086ZM56.8677 85.8809C56.8677 85.1517 57.157 84.5843 57.7358 84.1787C58.3146 83.7731 59.0506 83.5703 59.9438 83.5703H61.5708V83.0781C61.5708 82.6452 61.4591 82.2943 61.2358 82.0254C61.0125 81.752 60.6274 81.6152 60.0805 81.6152C59.5337 81.6152 59.1417 81.7292 58.9048 81.957C58.6723 82.1803 58.5561 82.4401 58.5561 82.7363V82.7705H57.2915V82.7363C57.2915 82.1667 57.5444 81.6699 58.0503 81.2461C58.5607 80.8177 59.2488 80.6035 60.1147 80.6035C60.9806 80.6035 61.6505 80.8109 62.1245 81.2256C62.603 81.6403 62.8423 82.2578 62.8423 83.0781V86.3594C62.8423 86.6556 62.8651 86.9359 62.9106 87.2002C62.9562 87.46 63.02 87.6901 63.102 87.8906V88H61.8716C61.8078 87.8861 61.7485 87.738 61.6938 87.5557C61.6437 87.3734 61.6118 87.1911 61.5981 87.0088C61.4295 87.305 61.1561 87.5671 60.7778 87.7949C60.4041 88.0228 59.921 88.1367 59.3286 88.1367C58.645 88.1367 58.0639 87.943 57.5854 87.5557C57.1069 87.1683 56.8677 86.61 56.8677 85.8809ZM58.1391 85.8125C58.1391 86.2227 58.2576 86.5439 58.4946 86.7764C58.7316 87.0088 59.1007 87.125 59.602 87.125C60.1033 87.125 60.5568 86.9518 60.9624 86.6055C61.368 86.2591 61.5708 85.8923 61.5708 85.5049V84.4727H60.0805C59.4425 84.4727 58.9595 84.5934 58.6313 84.835C58.3032 85.0765 58.1391 85.4023 58.1391 85.8125ZM65.6647 88V80.8086H66.8131L66.8678 81.7314H66.9088C67.164 81.4079 67.4717 81.1504 67.8317 80.959C68.1963 80.7676 68.5996 80.6719 69.0416 80.6719C69.5247 80.6719 69.9417 80.7676 70.2926 80.959C70.6435 81.1504 70.9101 81.4603 71.0924 81.8887H71.1334C71.4342 81.4603 71.7669 81.1504 72.1315 80.959C72.4961 80.7676 72.9153 80.6719 73.3893 80.6719C74.1367 80.6719 74.72 80.8792 75.1393 81.2939C75.5586 81.7041 75.7682 82.3923 75.7682 83.3584V88H74.4967V83.3447C74.4967 82.7705 74.3737 82.3604 74.1276 82.1143C73.8815 81.8636 73.5329 81.7383 73.0817 81.7383C72.6898 81.7383 72.3457 81.8477 72.0495 82.0664C71.7578 82.2852 71.5254 82.5677 71.3522 82.9141V88H70.0807V83.3447C70.0807 82.7705 69.9577 82.3604 69.7116 82.1143C69.4655 81.8636 69.1168 81.7383 68.6657 81.7383C68.2737 81.7383 67.9297 81.8477 67.6334 82.0664C67.3418 82.2852 67.1093 82.5677 66.9362 82.9141V88H65.6647ZM8.02297 101.279V101.197H9.33547V101.279C9.33547 101.881 9.53827 102.332 9.94387 102.633C10.3495 102.934 10.9168 103.084 11.646 103.084C12.3752 103.084 12.9335 102.929 13.3208 102.619C13.7082 102.309 13.9019 101.904 13.9019 101.402C13.9019 100.947 13.7127 100.582 13.3345 100.309C12.9608 100.035 12.2521 99.748 11.2085 99.4473C10.1239 99.1328 9.35598 98.766 8.9048 98.3467C8.45363 97.9229 8.22805 97.3236 8.22805 96.5488C8.22805 95.7741 8.52427 95.1292 9.11672 94.6143C9.70917 94.0993 10.5295 93.8418 11.5777 93.8418C12.6258 93.8418 13.4598 94.113 14.0796 94.6553C14.6994 95.1976 15.0093 95.888 15.0093 96.7266V96.8086H13.6968V96.7266C13.6968 96.1979 13.5191 95.7718 13.1636 95.4482C12.8081 95.1247 12.2795 94.9629 11.5777 94.9629C10.8758 94.9629 10.3586 95.1019 10.0259 95.3799C9.69322 95.6579 9.52687 96.0361 9.52687 96.5146C9.52687 96.9476 9.69777 97.2894 10.0396 97.54C10.3814 97.7907 11.0855 98.0664 12.1519 98.3672C13.2183 98.668 13.993 99.0439 14.4761 99.4951C14.9592 99.9463 15.2007 100.582 15.2007 101.402C15.2007 102.223 14.8817 102.895 14.2437 103.419C13.6057 103.943 12.7398 104.205 11.646 104.205C10.5523 104.205 9.67499 103.943 9.01418 103.419C8.35337 102.895 8.02297 102.182 8.02297 101.279ZM17.5309 101.45V96.8086H18.8024V101.464C18.8024 102.038 18.93 102.451 19.1852 102.701C19.445 102.947 19.8119 103.07 20.2858 103.07C20.6914 103.07 21.0492 102.961 21.3591 102.742C21.669 102.523 21.9105 102.241 22.0837 101.895V96.8086H23.3552V104H22.2067L22.152 103.077H22.111C21.8512 103.405 21.5322 103.665 21.154 103.856C20.7803 104.043 20.3656 104.137 19.9098 104.137C19.1852 104.137 18.6065 103.932 18.1735 103.521C17.7451 103.107 17.5309 102.416 17.5309 101.45ZM26.2186 104V96.8086H27.367L27.4217 97.7314H27.4627C27.7179 97.4079 28.0256 97.1504 28.3856 96.959C28.7502 96.7676 29.1535 96.6719 29.5955 96.6719C30.0786 96.6719 30.4956 96.7676 30.8465 96.959C31.1974 97.1504 31.464 97.4603 31.6463 97.8887H31.6873C31.9881 97.4603 32.3208 97.1504 32.6854 96.959C33.05 96.7676 33.4692 96.6719 33.9432 96.6719C34.6906 96.6719 35.2739 96.8792 35.6932 97.2939C36.1125 97.7041 36.3221 98.3923 36.3221 99.3584V104H35.0506V99.3447C35.0506 98.7705 34.9276 98.3604 34.6815 98.1143C34.4354 97.8636 34.0868 97.7383 33.6356 97.7383C33.2437 97.7383 32.8996 97.8477 32.6034 98.0664C32.3117 98.2852 32.0793 98.5677 31.9061 98.9141V104H30.6346V99.3447C30.6346 98.7705 30.5116 98.3604 30.2655 98.1143C30.0194 97.8636 29.6707 97.7383 29.2196 97.7383C28.8276 97.7383 28.4836 97.8477 28.1873 98.0664C27.8957 98.2852 27.6633 98.5677 27.4901 98.9141V104H26.2186ZM39.1172 104V96.8086H40.2656L40.3203 97.7314H40.3613C40.6165 97.4079 40.9242 97.1504 41.2842 96.959C41.6488 96.7676 42.0521 96.6719 42.4941 96.6719C42.9772 96.6719 43.3942 96.7676 43.7451 96.959C44.096 97.1504 44.3626 97.4603 44.5449 97.8887H44.5859C44.8867 97.4603 45.2194 97.1504 45.584 96.959C45.9486 96.7676 46.3678 96.6719 46.8418 96.6719C47.5892 96.6719 48.1725 96.8792 48.5918 97.2939C49.0111 97.7041 49.2207 98.3923 49.2207 99.3584V104H47.9492V99.3447C47.9492 98.7705 47.8262 98.3604 47.5801 98.1143C47.334 97.8636 46.9854 97.7383 46.5342 97.7383C46.1423 97.7383 45.7982 97.8477 45.502 98.0664C45.2103 98.2852 44.9779 98.5677 44.8047 98.9141V104H43.5332V99.3447C43.5332 98.7705 43.4102 98.3604 43.1641 98.1143C42.918 97.8636 42.5693 97.7383 42.1182 97.7383C41.7262 97.7383 41.3822 97.8477 41.0859 98.0664C40.7943 98.2852 40.5618 98.5677 40.3887 98.9141V104H39.1172ZM51.6193 101.881C51.6193 101.152 51.9087 100.584 52.4875 100.179C53.0662 99.7731 53.8022 99.5703 54.6955 99.5703H56.3224V99.0781C56.3224 98.6452 56.2108 98.2943 55.9875 98.0254C55.7642 97.752 55.3791 97.6152 54.8322 97.6152C54.2853 97.6152 53.8934 97.7292 53.6564 97.957C53.424 98.1803 53.3078 98.4401 53.3078 98.7363V98.7705H52.0431V98.7363C52.0431 98.1667 52.2961 97.6699 52.8019 97.2461C53.3123 96.8177 54.0005 96.6035 54.8664 96.6035C55.7323 96.6035 56.4022 96.8109 56.8761 97.2256C57.3546 97.6403 57.5939 98.2578 57.5939 99.0781V102.359C57.5939 102.656 57.6167 102.936 57.6623 103.2C57.7078 103.46 57.7716 103.69 57.8537 103.891V104H56.6232C56.5594 103.886 56.5002 103.738 56.4455 103.556C56.3953 103.373 56.3634 103.191 56.3498 103.009C56.1811 103.305 55.9077 103.567 55.5295 103.795C55.1558 104.023 54.6727 104.137 54.0802 104.137C53.3966 104.137 52.8156 103.943 52.3371 103.556C51.8586 103.168 51.6193 102.61 51.6193 101.881ZM52.8908 101.812C52.8908 102.223 53.0093 102.544 53.2463 102.776C53.4832 103.009 53.8524 103.125 54.3537 103.125C54.855 103.125 55.3084 102.952 55.714 102.605C56.1196 102.259 56.3224 101.892 56.3224 101.505V100.473H54.8322C54.1942 100.473 53.7111 100.593 53.383 100.835C53.0548 101.076 52.8908 101.402 52.8908 101.812ZM60.4163 104V96.8086H61.5648L61.6195 97.7314H61.6605C61.8428 97.4307 62.082 97.1686 62.3782 96.9453C62.6745 96.7174 63.0277 96.6035 63.4378 96.6035C63.5381 96.6035 63.6429 96.6149 63.7523 96.6377C63.8616 96.6605 63.9391 96.681 63.9847 96.6992V97.875C63.8935 97.8568 63.7978 97.8431 63.6976 97.834C63.5973 97.8249 63.4879 97.8203 63.3695 97.8203C62.9593 97.8203 62.6107 97.9274 62.3236 98.1416C62.0364 98.3558 61.8245 98.6224 61.6878 98.9414V104H60.4163ZM65.4946 106.844V105.764C65.6131 105.8 65.7453 105.83 65.8911 105.853C66.0369 105.875 66.1782 105.887 66.3149 105.887C66.6339 105.887 66.9119 105.766 67.1489 105.524C67.3859 105.287 67.6365 104.77 67.9009 103.973V103.966L65.2212 96.8086H66.4516L68.1538 101.539C68.2176 101.721 68.2746 101.892 68.3247 102.052C68.3748 102.211 68.4181 102.359 68.4546 102.496H68.4956C68.5366 102.359 68.5822 102.211 68.6323 102.052C68.687 101.892 68.744 101.721 68.8032 101.539L70.3891 96.8086H71.5923L68.6733 104.957C68.4455 105.595 68.1424 106.092 67.7641 106.447C67.3904 106.803 66.9302 106.98 66.3833 106.98C66.201 106.98 66.0392 106.969 65.8979 106.946C65.7567 106.924 65.6222 106.889 65.4946 106.844Z" fill="black"/>
<path d="M18.5 45V40.6667H44.5V45H18.5ZM18.5 34.1667V29.8333H57.5V34.1667H18.5ZM18.5 23.3333V19H57.5V23.3333H18.5Z" fill="#E7E9F9"/>
</svg>
