<svg width="76" height="110" viewBox="0 0 76 110" fill="none" xmlns="http://www.w3.org/2000/svg">
<rect x="2" width="70" height="70" rx="10" fill="#F2692E"/>
<path d="M1.49719 91V81.0469H7.74524V82.127H2.80969V85.3262H7.11633V86.4062H2.80969V89.9199H7.81359V91H1.49719ZM9.25516 91L11.9895 87.0215H12.0647L14.095 83.8086H15.5305L12.9329 87.6914H12.8577L10.6907 91H9.25516ZM9.39188 83.8086H10.8479L12.8782 87.0215H12.9329L15.6673 91H14.2112L12.0442 87.6914H11.9895L9.39188 83.8086ZM17.7172 91V83.8086H18.9887V91H17.7172ZM17.56 81.6348C17.56 81.4206 17.6284 81.2406 17.7651 81.0947C17.9018 80.9489 18.0978 80.876 18.353 80.876C18.6082 80.876 18.8041 80.9489 18.9409 81.0947C19.0776 81.2406 19.1459 81.4206 19.1459 81.6348C19.1459 81.849 19.0776 82.029 18.9409 82.1748C18.8041 82.3206 18.6082 82.3936 18.353 82.3936C18.0978 82.3936 17.9018 82.3206 17.7651 82.1748C17.6284 82.029 17.56 81.849 17.56 81.6348ZM20.902 84.7793V83.8086H25.0035V84.7793H20.902ZM22.1871 89.2227V84.3965V84.1914V82.0312H23.4586V89.2227C23.4586 89.5417 23.5224 89.7695 23.65 89.9062C23.7776 90.043 23.9781 90.1113 24.2516 90.1113C24.3792 90.1113 24.5045 90.0977 24.6275 90.0703C24.7506 90.043 24.8759 90.0065 25.0035 89.9609V91C24.885 91.0547 24.7301 91.1025 24.5387 91.1436C24.3473 91.1846 24.1376 91.2051 23.9098 91.2051C23.3857 91.2051 22.9664 91.0456 22.652 90.7266C22.3421 90.4076 22.1871 89.9062 22.1871 89.2227ZM31.6054 91V81.0469H37.7714V82.127H32.9179V85.5244H37.0947V86.6045H32.9179V91H31.6054ZM40.0743 91V80.5H41.3458V91H40.0743ZM43.594 93.8438V92.7637C43.7125 92.8001 43.8446 92.8298 43.9905 92.8525C44.1363 92.8753 44.2776 92.8867 44.4143 92.8867C44.7333 92.8867 45.0113 92.766 45.2483 92.5244C45.4853 92.2874 45.7359 91.7702 46.0002 90.9727V90.9658L43.3205 83.8086H44.551L46.2532 88.5391C46.317 88.7214 46.3739 88.8923 46.4241 89.0518C46.4742 89.2113 46.5175 89.3594 46.5539 89.4961H46.595C46.636 89.3594 46.6816 89.2113 46.7317 89.0518C46.7864 88.8923 46.8433 88.7214 46.9026 88.5391L48.4885 83.8086H49.6916L46.7727 91.957C46.5448 92.5951 46.2418 93.0918 45.8635 93.4473C45.4898 93.8027 45.0295 93.9805 44.4827 93.9805C44.3004 93.9805 44.1386 93.9691 43.9973 93.9463C43.856 93.9235 43.7216 93.8893 43.594 93.8438ZM51.6049 91V83.8086H52.8764V91H51.6049ZM51.4477 81.6348C51.4477 81.4206 51.516 81.2406 51.6527 81.0947C51.7895 80.9489 51.9854 80.876 52.2406 80.876C52.4958 80.876 52.6918 80.9489 52.8285 81.0947C52.9652 81.2406 53.0336 81.4206 53.0336 81.6348C53.0336 81.849 52.9652 82.029 52.8285 82.1748C52.6918 82.3206 52.4958 82.3936 52.2406 82.3936C51.9854 82.3936 51.7895 82.3206 51.6527 82.1748C51.516 82.029 51.4477 81.849 51.4477 81.6348ZM55.8013 91V83.8086H56.9498L57.0045 84.7314H57.0455C57.3052 84.4033 57.622 84.1458 57.9957 83.959C58.3739 83.7676 58.7909 83.6719 59.2466 83.6719C59.9713 83.6719 60.5477 83.8792 60.9761 84.2939C61.4091 84.7041 61.6255 85.3923 61.6255 86.3584V91H60.3541V86.3447C60.3541 85.7705 60.2242 85.3604 59.9644 85.1143C59.7092 84.8636 59.3446 84.7383 58.8707 84.7383C58.4651 84.7383 58.1073 84.8477 57.7974 85.0664C57.4875 85.2852 57.246 85.5677 57.0728 85.9141V91H55.8013ZM64.2566 92.9414L65.0564 91.9844C65.2569 92.2168 65.5394 92.4219 65.904 92.5996C66.2686 92.7819 66.6788 92.873 67.1345 92.873C67.7497 92.873 68.2351 92.6976 68.5905 92.3467C68.946 91.9958 69.1238 91.5013 69.1238 90.8633V90.1523C68.9141 90.4486 68.6316 90.6878 68.2761 90.8701C67.9252 91.0479 67.4991 91.1367 66.9978 91.1367C66.0863 91.1367 65.3572 90.7949 64.8103 90.1113C64.2634 89.4277 63.99 88.5618 63.99 87.5137V87.2949C63.99 86.2467 64.2634 85.3809 64.8103 84.6973C65.3572 84.0137 66.0863 83.6719 66.9978 83.6719C67.4991 83.6719 67.9366 83.7767 68.3103 83.9863C68.6885 84.196 68.9688 84.4489 69.1511 84.7451H69.1921L69.2468 83.8086H70.3952V90.8633C70.3952 91.8659 70.0967 92.6361 69.4997 93.1738C68.9027 93.7116 68.1257 93.9805 67.1687 93.9805C66.5762 93.9805 66.0294 93.8825 65.528 93.6865C65.0267 93.4906 64.6029 93.2422 64.2566 92.9414ZM65.2888 87.5137C65.2888 88.2428 65.4483 88.8558 65.7673 89.3525C66.0863 89.8493 66.5876 90.0977 67.2712 90.0977C67.7269 90.0977 68.1143 89.9723 68.4333 89.7217C68.7523 89.471 68.9825 89.1862 69.1238 88.8672V85.9414C68.9825 85.6224 68.7523 85.3376 68.4333 85.0869C68.1143 84.8363 67.7269 84.7109 67.2712 84.7109C66.5876 84.7109 66.0863 84.9593 65.7673 85.4561C65.4483 85.9528 65.2888 86.5658 65.2888 87.2949V87.5137ZM23.8884 107V97.0469H26.8416C28.1176 97.0469 29.1795 97.4684 30.0271 98.3115C30.8793 99.1546 31.3054 100.287 31.3054 101.709V102.338C31.3054 103.76 30.8793 104.892 30.0271 105.735C29.1795 106.578 28.1176 107 26.8416 107H23.8884ZM25.2009 105.92H26.8416C27.7986 105.92 28.5597 105.603 29.1248 104.97C29.6944 104.336 29.9793 103.459 29.9793 102.338V101.709C29.9793 100.588 29.6944 99.7106 29.1248 99.0771C28.5597 98.4437 27.7986 98.127 26.8416 98.127H25.2009V105.92ZM33.8749 104.45V99.8086H35.1464V104.464C35.1464 105.038 35.274 105.451 35.5292 105.701C35.789 105.947 36.1558 106.07 36.6298 106.07C37.0354 106.07 37.3932 105.961 37.703 105.742C38.0129 105.523 38.2545 105.241 38.4277 104.895V99.8086H39.6991V107H38.5507L38.496 106.077H38.455C38.1952 106.405 37.8762 106.665 37.498 106.856C37.1243 107.043 36.7096 107.137 36.2538 107.137C35.5292 107.137 34.9504 106.932 34.5175 106.521C34.0891 106.107 33.8749 105.416 33.8749 104.45ZM41.5509 100.779V99.8086H45.6524V100.779H41.5509ZM42.836 105.223V100.396V100.191V98.0312H44.1075V105.223C44.1075 105.542 44.1713 105.77 44.2989 105.906C44.4265 106.043 44.627 106.111 44.9005 106.111C45.0281 106.111 45.1534 106.098 45.2764 106.07C45.3995 106.043 45.5248 106.007 45.6524 105.961V107C45.5339 107.055 45.379 107.103 45.1876 107.144C44.9962 107.185 44.7865 107.205 44.5587 107.205C44.0346 107.205 43.6153 107.046 43.3009 106.727C42.991 106.408 42.836 105.906 42.836 105.223ZM47.176 109.844V108.764C47.2945 108.8 47.4267 108.83 47.5725 108.853C47.7183 108.875 47.8596 108.887 47.9963 108.887C48.3153 108.887 48.5933 108.766 48.8303 108.524C49.0673 108.287 49.3179 107.77 49.5823 106.973V106.966L46.9026 99.8086H48.133L49.8352 104.539C49.899 104.721 49.956 104.892 50.0061 105.052C50.0562 105.211 50.0995 105.359 50.136 105.496H50.177C50.218 105.359 50.2636 105.211 50.3137 105.052C50.3684 104.892 50.4254 104.721 50.4846 104.539L52.0705 99.8086H53.2737L50.3547 107.957C50.1269 108.595 49.8238 109.092 49.4455 109.447C49.0719 109.803 48.6116 109.98 48.0647 109.98C47.8824 109.98 47.7206 109.969 47.5793 109.946C47.4381 109.924 47.3036 109.889 47.176 109.844Z" fill="black"/>
<path d="M21.4444 55H52.5556C55.0067 55 57 53.0067 57 50.5556V19.4444C57 16.9933 55.0067 15 52.5556 15H21.4444C18.9933 15 17 16.9933 17 19.4444V32.78H32.5511V23.8889L45.8844 35L32.5511 46.1111V37.2244H17V50.5556C17 53.0067 18.9933 55 21.4444 55Z" fill="#E7E9F9"/>
</svg>
