<svg width="65" height="107" viewBox="0 0 65 107" fill="none" xmlns="http://www.w3.org/2000/svg">
<rect width="64.4578" height="64.4578" rx="10" fill="#1A4BCB"/>
<path d="M5.54674 81.1829V81.1008H6.85924V81.1829C6.85924 81.7844 7.06204 82.2356 7.46764 82.5364C7.87324 82.8372 8.44062 82.9875 9.16979 82.9875C9.89895 82.9875 10.4572 82.8326 10.8446 82.5227C11.232 82.2128 11.4256 81.8072 11.4256 81.3059C11.4256 80.8502 11.2365 80.4856 10.8583 80.2122C10.4846 79.9387 9.77591 79.6516 8.73229 79.3508C7.64765 79.0364 6.87975 78.6695 6.42858 78.2502C5.9774 77.8264 5.75182 77.2271 5.75182 76.4524C5.75182 75.6777 6.04804 75.0328 6.64049 74.5178C7.23294 74.0028 8.05325 73.7454 9.10143 73.7454C10.1496 73.7454 10.9836 74.0165 11.6034 74.5588C12.2232 75.1012 12.5331 75.7916 12.5331 76.6301V76.7122H11.2206V76.6301C11.2206 76.1015 11.0428 75.6754 10.6874 75.3518C10.3319 75.0282 9.80325 74.8665 9.10143 74.8665C8.3996 74.8665 7.88235 75.0055 7.54967 75.2834C7.21699 75.5614 7.05065 75.9397 7.05065 76.4182C7.05065 76.8512 7.22154 77.193 7.56334 77.4436C7.90514 77.6943 8.60924 77.97 9.67565 78.2708C10.7421 78.5715 11.5168 78.9475 11.9999 79.3987C12.4829 79.8499 12.7245 80.4856 12.7245 81.3059C12.7245 82.1262 12.4055 82.7984 11.7674 83.3225C11.1294 83.8466 10.2635 84.1086 9.16979 84.1086C8.07604 84.1086 7.19876 83.8466 6.53795 83.3225C5.87714 82.7984 5.54674 82.0852 5.54674 81.1829ZM14.6924 80.4172V80.1985C14.6924 79.1139 14.9886 78.2275 15.5811 77.5393C16.1781 76.8512 16.9665 76.5071 17.9463 76.5071C18.9261 76.5071 19.6804 76.8284 20.209 77.4709C20.7377 78.1135 21.002 78.9817 21.002 80.0754V80.595H15.4717V79.5833H19.7237V79.4192C19.7237 78.8997 19.5755 78.4576 19.2793 78.093C18.9831 77.7284 18.557 77.5461 18.001 77.5461C17.3265 77.5461 16.8229 77.8036 16.4903 78.3186C16.1576 78.829 15.9912 79.4556 15.9912 80.1985V80.4172C15.9912 81.1601 16.1667 81.789 16.5176 82.304C16.8685 82.8144 17.4131 83.0696 18.1514 83.0696C18.6071 83.0696 18.999 82.9693 19.3272 82.7688C19.6553 82.5683 19.9219 82.3313 20.127 82.0579L20.9473 82.7073C20.7194 83.0491 20.3662 83.3681 19.8877 83.6643C19.4138 83.9605 18.835 84.1086 18.1514 84.1086C17.0349 84.1086 16.1781 83.7646 15.5811 83.0764C14.9886 82.3883 14.6924 81.5019 14.6924 80.4172ZM23.0041 81.7844C23.0041 81.0553 23.2935 80.4879 23.8722 80.0823C24.451 79.6767 25.187 79.4739 26.0803 79.4739H27.7072V78.9817C27.7072 78.5487 27.5956 78.1978 27.3722 77.929C27.1489 77.6555 26.7638 77.5188 26.217 77.5188C25.6701 77.5188 25.2782 77.6327 25.0412 77.8606C24.8088 78.0839 24.6926 78.3437 24.6926 78.6399V78.6741H23.4279V78.6399C23.4279 78.0702 23.6808 77.5735 24.1867 77.1497C24.6971 76.7213 25.3853 76.5071 26.2512 76.5071C27.117 76.5071 27.787 76.7144 28.2609 77.1292C28.7394 77.5439 28.9787 78.1614 28.9787 78.9817V82.2629C28.9787 82.5592 29.0015 82.8394 29.0471 83.1038C29.0926 83.3635 29.1564 83.5937 29.2385 83.7942V83.9036H28.008C27.9442 83.7896 27.8849 83.6415 27.8303 83.4592C27.7801 83.2769 27.7482 83.0946 27.7346 82.9124C27.5659 83.2086 27.2925 83.4706 26.9142 83.6985C26.5405 83.9264 26.0575 84.0403 25.465 84.0403C24.7814 84.0403 24.2004 83.8466 23.7219 83.4592C23.2433 83.0719 23.0041 82.5136 23.0041 81.7844ZM24.2756 81.7161C24.2756 82.1262 24.3941 82.4475 24.631 82.6799C24.868 82.9124 25.2372 83.0286 25.7385 83.0286C26.2398 83.0286 26.6932 82.8554 27.0988 82.509C27.5044 82.1627 27.7072 81.7958 27.7072 81.4084V80.3762H26.217C25.579 80.3762 25.0959 80.497 24.7678 80.7385C24.4396 80.9801 24.2756 81.3059 24.2756 81.7161ZM30.7894 77.6829V76.7122H34.891V77.6829H30.7894ZM32.0746 82.1262V77.3V77.095V74.9348H33.346V82.1262C33.346 82.4452 33.4098 82.6731 33.5374 82.8098C33.665 82.9465 33.8656 83.0149 34.139 83.0149C34.2666 83.0149 34.3919 83.0012 34.515 82.9739C34.638 82.9465 34.7634 82.9101 34.891 82.8645V83.9036C34.7725 83.9583 34.6175 84.0061 34.4261 84.0471C34.2347 84.0881 34.0251 84.1086 33.7972 84.1086C33.2731 84.1086 32.8538 83.9491 32.5394 83.6301C32.2295 83.3111 32.0746 82.8098 32.0746 82.1262ZM37.146 83.9036V76.7122H38.4175V83.9036H37.146ZM36.9888 74.5383C36.9888 74.3241 37.0571 74.1441 37.1938 73.9983C37.3306 73.8525 37.5265 73.7795 37.7817 73.7795C38.0369 73.7795 38.2329 73.8525 38.3696 73.9983C38.5063 74.1441 38.5747 74.3241 38.5747 74.5383C38.5747 74.7525 38.5063 74.9325 38.3696 75.0784C38.2329 75.2242 38.0369 75.2971 37.7817 75.2971C37.5265 75.2971 37.3306 75.2242 37.1938 75.0784C37.0571 74.9325 36.9888 74.7525 36.9888 74.5383ZM41.3424 83.9036V76.7122H42.4909L42.5456 77.635H42.5866C42.8464 77.3069 43.1631 77.0494 43.5368 76.8625C43.915 76.6711 44.332 76.5754 44.7878 76.5754C45.5124 76.5754 46.0889 76.7828 46.5173 77.1975C46.9502 77.6077 47.1667 78.2958 47.1667 79.262V83.9036H45.8952V79.2483C45.8952 78.6741 45.7653 78.2639 45.5055 78.0178C45.2503 77.7672 44.8857 77.6418 44.4118 77.6418C44.0062 77.6418 43.6484 77.7512 43.3385 77.97C43.0286 78.1887 42.7871 78.4713 42.6139 78.8176V83.9036H41.3424ZM49.7977 85.845L50.5975 84.8879C50.798 85.1204 51.0806 85.3254 51.4451 85.5032C51.8097 85.6855 52.2199 85.7766 52.6756 85.7766C53.2908 85.7766 53.7762 85.6012 54.1317 85.2502C54.4871 84.8993 54.6649 84.4049 54.6649 83.7668V83.0559C54.4552 83.3521 54.1727 83.5914 53.8172 83.7737C53.4663 83.9514 53.0402 84.0403 52.5389 84.0403C51.6274 84.0403 50.8983 83.6985 50.3514 83.0149C49.8045 82.3313 49.5311 81.4654 49.5311 80.4172V80.1985C49.5311 79.1503 49.8045 78.2844 50.3514 77.6008C50.8983 76.9172 51.6274 76.5754 52.5389 76.5754C53.0402 76.5754 53.4777 76.6803 53.8514 76.8899C54.2296 77.0995 54.5099 77.3525 54.6922 77.6487H54.7332L54.7879 76.7122H55.9363V83.7668C55.9363 84.7694 55.6378 85.5396 55.0408 86.0774C54.4438 86.6152 53.6668 86.884 52.7098 86.884C52.1173 86.884 51.5705 86.7861 51.0692 86.5901C50.5679 86.3941 50.144 86.1458 49.7977 85.845ZM50.8299 80.4172C50.8299 81.1464 50.9894 81.7594 51.3084 82.2561C51.6274 82.7528 52.1287 83.0012 52.8123 83.0012C53.2681 83.0012 53.6554 82.8759 53.9744 82.6252C54.2934 82.3746 54.5236 82.0898 54.6649 81.7708V78.845C54.5236 78.526 54.2934 78.2411 53.9744 77.9905C53.6554 77.7398 53.2681 77.6145 52.8123 77.6145C52.1287 77.6145 51.6274 77.8629 51.3084 78.3596C50.9894 78.8564 50.8299 79.4693 50.8299 80.1985V80.4172ZM17.3683 99.9036V89.9504H20.6632C21.7569 89.9504 22.5978 90.2262 23.1856 90.7776C23.7735 91.3245 24.0675 92.0536 24.0675 92.9651C24.0675 93.8765 23.7735 94.6125 23.1856 95.1731C22.5978 95.7291 21.7569 96.0071 20.6632 96.0071H18.6808V99.9036H17.3683ZM18.6808 94.927H20.6632C21.4379 94.927 21.9802 94.7379 22.2901 94.3596C22.6 93.9768 22.755 93.512 22.755 92.9651C22.755 92.4182 22.6 91.9602 22.2901 91.5911C21.9802 91.2174 21.4379 91.0305 20.6632 91.0305H18.6808V94.927ZM26.3157 99.9036V89.4036H27.5872V99.9036H26.3157ZM30.1088 97.7844C30.1088 97.0553 30.3982 96.4879 30.977 96.0823C31.5558 95.6767 32.2918 95.4739 33.185 95.4739H34.8119V94.9817C34.8119 94.5487 34.7003 94.1978 34.477 93.929C34.2537 93.6555 33.8686 93.5188 33.3217 93.5188C32.7748 93.5188 32.3829 93.6327 32.1459 93.8606C31.9135 94.0839 31.7973 94.3437 31.7973 94.6399V94.6741H30.5326V94.6399C30.5326 94.0702 30.7856 93.5735 31.2914 93.1497C31.8018 92.7213 32.49 92.5071 33.3559 92.5071C34.2218 92.5071 34.8917 92.7144 35.3656 93.1292C35.8442 93.5439 36.0834 94.1614 36.0834 94.9817V98.2629C36.0834 98.5592 36.1062 98.8394 36.1518 99.1038C36.1974 99.3635 36.2612 99.5937 36.3432 99.7942V99.9036H35.1127C35.0489 99.7896 34.9897 99.6415 34.935 99.4592C34.8849 99.2769 34.853 99.0946 34.8393 98.9124C34.6707 99.2086 34.3972 99.4706 34.019 99.6985C33.6453 99.9264 33.1622 100.04 32.5697 100.04C31.8862 100.04 31.3051 99.8466 30.8266 99.4592C30.3481 99.0719 30.1088 98.5136 30.1088 97.7844ZM31.3803 97.7161C31.3803 98.1262 31.4988 98.4475 31.7358 98.6799C31.9727 98.9124 32.3419 99.0286 32.8432 99.0286C33.3445 99.0286 33.7979 98.8554 34.2035 98.509C34.6091 98.1627 34.8119 97.7958 34.8119 97.4084V96.3762H33.3217C32.6837 96.3762 32.2006 96.497 31.8725 96.7385C31.5444 96.9801 31.3803 97.3059 31.3803 97.7161ZM38.9058 99.9036V92.7122H40.0543L40.109 93.635H40.15C40.4097 93.3069 40.7265 93.0494 41.1002 92.8625C41.4784 92.6711 41.8954 92.5754 42.3512 92.5754C43.0758 92.5754 43.6523 92.7828 44.0806 93.1975C44.5136 93.6077 44.7301 94.2958 44.7301 95.262V99.9036H43.4586V95.2483C43.4586 94.6741 43.3287 94.2639 43.0689 94.0178C42.8137 93.7672 42.4491 93.6418 41.9752 93.6418C41.5696 93.6418 41.2118 93.7512 40.9019 93.97C40.592 94.1887 40.3505 94.4713 40.1773 94.8176V99.9036H38.9058Z" fill="black"/>
<g clip-path="url(#clip0_304_908)">
<path d="M37.3855 52.8554H21.9157C20.4976 52.8554 19.2841 52.3509 18.2751 51.342C17.2661 50.333 16.7608 49.1186 16.759 47.6988V21.9157C16.759 21.1852 17.0066 20.5732 17.5016 20.0799C17.9966 19.5866 18.6085 19.3391 19.3373 19.3374C20.0679 19.3374 20.6806 19.5849 21.1757 20.0799C21.6707 20.575 21.9174 21.1869 21.9157 21.9157V47.6988H37.3855C38.1161 47.6988 38.7288 47.9463 39.2239 48.4414C39.7189 48.9364 39.9656 49.5483 39.9638 50.2771C39.9638 51.0076 39.7163 51.6204 39.2213 52.1155C38.7263 52.6105 38.1143 52.8572 37.3855 52.8554ZM30.9398 16.7591C29.5217 16.7591 28.3082 16.2546 27.2992 15.2456C26.2902 14.2366 25.7848 13.0222 25.7831 11.6024C25.7831 10.1844 26.2885 8.97083 27.2992 7.96185C28.3099 6.95287 29.5234 6.44752 30.9398 6.4458C32.3578 6.4458 33.5722 6.95115 34.5829 7.96185C35.5936 8.97255 36.0981 10.1861 36.0964 11.6024C36.0964 13.0205 35.5919 14.2349 34.5829 15.2456C33.5739 16.2563 32.3595 16.7608 30.9398 16.7591ZM42.5422 55.4337V45.1205H29.6506C28.2325 45.1205 27.019 44.616 26.01 43.607C25.001 42.598 24.4957 41.3837 24.494 39.9639V25.7831C24.494 23.9783 25.1171 22.4528 26.3632 21.2066C27.6094 19.9605 29.1349 19.3374 30.9398 19.3374C32.7446 19.3374 34.2701 19.9605 35.5163 21.2066C36.7624 22.4528 37.3855 23.9783 37.3855 25.7831V37.3856H42.5422C43.9602 37.3856 45.1746 37.8909 46.1853 38.9016C47.196 39.9123 47.7005 41.1258 47.6988 42.5422V55.4337C47.6988 56.1643 47.4513 56.777 46.9562 57.2721C46.4612 57.7671 45.8493 58.0138 45.1205 58.0121C44.39 58.0121 43.778 57.7645 43.2847 57.2695C42.7914 56.7745 42.5439 56.1625 42.5422 55.4337Z" fill="white"/>
</g>
<defs>
<clipPath id="clip0_304_908">
<rect width="51.5663" height="51.5663" fill="white" transform="translate(6.4458 6.4458)"/>
</clipPath>
</defs>
</svg>
