<svg width="109" height="91" viewBox="0 0 109 91" fill="none" xmlns="http://www.w3.org/2000/svg">
<rect x="21" width="70" height="70" rx="10" fill="#F2692E"/>
<path d="M0.709923 85.2793V85.1973H2.02242V85.2793C2.02242 85.8809 2.22522 86.332 2.63082 86.6328C3.03642 86.9336 3.6038 87.084 4.33297 87.084C5.06214 87.084 5.6204 86.929 6.00777 86.6191C6.39514 86.3092 6.58883 85.9036 6.58883 85.4023C6.58883 84.9466 6.3997 84.582 6.02145 84.3086C5.64775 84.0352 4.93909 83.748 3.89547 83.4473C2.81083 83.1328 2.04293 82.766 1.59176 82.3467C1.14059 81.9229 0.915001 81.3236 0.915001 80.5488C0.915001 79.7741 1.21122 79.1292 1.80367 78.6143C2.39612 78.0993 3.21643 77.8418 4.26461 77.8418C5.31279 77.8418 6.14677 78.113 6.76656 78.6553C7.38636 79.1976 7.69625 79.888 7.69625 80.7266V80.8086H6.38375V80.7266C6.38375 80.1979 6.20602 79.7718 5.85055 79.4482C5.49508 79.1247 4.96643 78.9629 4.26461 78.9629C3.56279 78.9629 3.04553 79.1019 2.71285 79.3799C2.38017 79.6579 2.21383 80.0361 2.21383 80.5146C2.21383 80.9476 2.38473 81.2894 2.72652 81.54C3.06832 81.7907 3.77242 82.0664 4.83883 82.3672C5.90524 82.668 6.67997 83.0439 7.16305 83.4951C7.64612 83.9463 7.88766 84.582 7.88766 85.4023C7.88766 86.2227 7.56865 86.8949 6.93063 87.4189C6.29261 87.943 5.42672 88.2051 4.33297 88.2051C3.23922 88.2051 2.36194 87.943 1.70113 87.4189C1.04033 86.8949 0.709923 86.1816 0.709923 85.2793ZM9.27453 81.7793V80.8086H13.3761V81.7793H9.27453ZM10.5597 86.2227V81.3965V81.1914V79.0312H11.8312V86.2227C11.8312 86.5417 11.895 86.7695 12.0226 86.9062C12.1502 87.043 12.3507 87.1113 12.6241 87.1113C12.7517 87.1113 12.8771 87.0977 13.0001 87.0703C13.1232 87.043 13.2485 87.0065 13.3761 86.9609V88C13.2576 88.0547 13.1027 88.1025 12.9113 88.1436C12.7198 88.1846 12.5102 88.2051 12.2823 88.2051C11.7583 88.2051 11.339 88.0456 11.0245 87.7266C10.7146 87.4076 10.5597 86.9062 10.5597 86.2227ZM15.5013 85.4502V80.8086H16.7727V85.4639C16.7727 86.0381 16.9003 86.4505 17.1555 86.7012C17.4153 86.9473 17.7822 87.0703 18.2561 87.0703C18.6617 87.0703 19.0195 86.9609 19.3294 86.7422C19.6393 86.5234 19.8808 86.2409 20.054 85.8945V80.8086H21.3255V88H20.177L20.1223 87.0771H20.0813C19.8216 87.4053 19.5026 87.665 19.1243 87.8564C18.7506 88.0433 18.3359 88.1367 17.8802 88.1367C17.1555 88.1367 16.5768 87.9316 16.1438 87.5215C15.7154 87.1068 15.5013 86.4163 15.5013 85.4502ZM23.7582 84.5137V84.2949C23.7582 83.2467 24.0317 82.3809 24.5786 81.6973C25.1254 81.0137 25.8546 80.6719 26.7661 80.6719C27.2674 80.6719 27.6935 80.763 28.0444 80.9453C28.3998 81.123 28.6824 81.36 28.892 81.6562V77.5H30.1635V88H29.0151L28.9604 87.0635H28.9194C28.7371 87.3597 28.4568 87.6126 28.0786 87.8223C27.7049 88.0319 27.2674 88.1367 26.7661 88.1367C25.8546 88.1367 25.1254 87.7949 24.5786 87.1113C24.0317 86.4277 23.7582 85.5618 23.7582 84.5137ZM25.0571 84.5137C25.0571 85.2428 25.2166 85.8558 25.5356 86.3525C25.8546 86.8493 26.3559 87.0977 27.0395 87.0977C27.4952 87.0977 27.8826 86.9723 28.2016 86.7217C28.5206 86.471 28.7508 86.1862 28.892 85.8672V82.9414C28.7508 82.6224 28.5206 82.3376 28.2016 82.0869C27.8826 81.8363 27.4952 81.7109 27.0395 81.7109C26.3559 81.7109 25.8546 81.9593 25.5356 82.4561C25.2166 82.9528 25.0571 83.5658 25.0571 84.2949V84.5137ZM32.5963 84.5137V84.2949C32.5963 83.2103 32.8925 82.3239 33.485 81.6357C34.082 80.9476 34.8704 80.6035 35.8502 80.6035C36.83 80.6035 37.5842 80.9248 38.1129 81.5674C38.6415 82.21 38.9059 83.0781 38.9059 84.1719V84.6914H33.3756V83.6797H37.6275V83.5156C37.6275 82.9961 37.4794 82.554 37.1832 82.1895C36.887 81.8249 36.4609 81.6426 35.9049 81.6426C35.2304 81.6426 34.7268 81.9001 34.3941 82.415C34.0615 82.9255 33.8951 83.5521 33.8951 84.2949V84.5137C33.8951 85.2565 34.0706 85.8854 34.4215 86.4004C34.7724 86.9108 35.317 87.166 36.0553 87.166C36.511 87.166 36.9029 87.0658 37.2311 86.8652C37.5592 86.6647 37.8258 86.4277 38.0309 86.1543L38.8512 86.8037C38.6233 87.1455 38.2701 87.4645 37.7916 87.7607C37.3176 88.057 36.7389 88.2051 36.0553 88.2051C34.9387 88.2051 34.082 87.861 33.485 87.1729C32.8925 86.4847 32.5963 85.5983 32.5963 84.5137ZM41.3045 88V80.8086H42.4529L42.5076 81.7314H42.5486C42.8084 81.4033 43.1251 81.1458 43.4988 80.959C43.877 80.7676 44.294 80.6719 44.7498 80.6719C45.4744 80.6719 46.0509 80.8792 46.4793 81.2939C46.9122 81.7041 47.1287 82.3923 47.1287 83.3584V88H45.8572V83.3447C45.8572 82.7705 45.7273 82.3604 45.4675 82.1143C45.2123 81.8636 44.8477 81.7383 44.3738 81.7383C43.9682 81.7383 43.6104 81.8477 43.3005 82.0664C42.9907 82.2852 42.7491 82.5677 42.5759 82.9141V88H41.3045ZM48.912 81.7793V80.8086H53.0136V81.7793H48.912ZM50.1972 86.2227V81.3965V81.1914V79.0312H51.4687V86.2227C51.4687 86.5417 51.5325 86.7695 51.6601 86.9062C51.7877 87.043 51.9882 87.1113 52.2616 87.1113C52.3892 87.1113 52.5146 87.0977 52.6376 87.0703C52.7607 87.043 52.886 87.0065 53.0136 86.9609V88C52.8951 88.0547 52.7402 88.1025 52.5488 88.1436C52.3573 88.1846 52.1477 88.2051 51.9198 88.2051C51.3958 88.2051 50.9765 88.0456 50.662 87.7266C50.3521 87.4076 50.1972 86.9062 50.1972 86.2227ZM59.6155 88V78.0469H60.928V86.9199H65.6448V88H59.6155ZM67.435 84.5137V84.2949C67.435 83.2103 67.7426 82.3239 68.3578 81.6357C68.973 80.9476 69.7956 80.6035 70.8256 80.6035C71.8555 80.6035 72.6781 80.9476 73.2934 81.6357C73.9086 82.3239 74.2162 83.2103 74.2162 84.2949V84.5137C74.2162 85.5983 73.9086 86.4847 73.2934 87.1729C72.6781 87.861 71.8555 88.2051 70.8256 88.2051C69.7956 88.2051 68.973 87.861 68.3578 87.1729C67.7426 86.4847 67.435 85.5983 67.435 84.5137ZM68.7338 84.2949V84.5137C68.7338 85.2565 68.9092 85.8854 69.2602 86.4004C69.6111 86.9108 70.1329 87.166 70.8256 87.166C71.5183 87.166 72.0401 86.9108 72.391 86.4004C72.7419 85.8854 72.9174 85.2565 72.9174 84.5137V84.2949C72.9174 83.5521 72.7419 82.9255 72.391 82.415C72.0401 81.9001 71.5183 81.6426 70.8256 81.6426C70.1329 81.6426 69.6111 81.9001 69.2602 82.415C68.9092 82.9255 68.7338 83.5521 68.7338 84.2949ZM76.2183 84.5137V84.2949C76.2183 83.2103 76.5259 82.3239 77.1412 81.6357C77.7564 80.9476 78.579 80.6035 79.6089 80.6035C80.6389 80.6035 81.4615 80.9476 82.0767 81.6357C82.692 82.3239 82.9996 83.2103 82.9996 84.2949V84.5137C82.9996 85.5983 82.692 86.4847 82.0767 87.1729C81.4615 87.861 80.6389 88.2051 79.6089 88.2051C78.579 88.2051 77.7564 87.861 77.1412 87.1729C76.5259 86.4847 76.2183 85.5983 76.2183 84.5137ZM77.5172 84.2949V84.5137C77.5172 85.2565 77.6926 85.8854 78.0435 86.4004C78.3944 86.9108 78.9162 87.166 79.6089 87.166C80.3017 87.166 80.8235 86.9108 81.1744 86.4004C81.5253 85.8854 81.7007 85.2565 81.7007 84.5137V84.2949C81.7007 83.5521 81.5253 82.9255 81.1744 82.415C80.8235 81.9001 80.3017 81.6426 79.6089 81.6426C78.9162 81.6426 78.3944 81.9001 78.0435 82.415C77.6926 82.9255 77.5172 83.5521 77.5172 84.2949ZM85.4323 88V77.5H86.7038V84.1172L89.78 80.8086H91.2224L86.7038 85.6074V88H85.4323ZM90.0671 88L87.2644 84.2812L88.0573 83.4062L91.5573 88H90.0671ZM93.2313 85.4502V80.8086H94.5028V85.4639C94.5028 86.0381 94.6304 86.4505 94.8856 86.7012C95.1454 86.9473 95.5123 87.0703 95.9862 87.0703C96.3918 87.0703 96.7496 86.9609 97.0595 86.7422C97.3694 86.5234 97.6109 86.2409 97.7841 85.8945V80.8086H99.0555V88H97.9071L97.8524 87.0771H97.8114C97.5516 87.4053 97.2326 87.665 96.8544 87.8564C96.4807 88.0433 96.066 88.1367 95.6102 88.1367C94.8856 88.1367 94.3069 87.9316 93.8739 87.5215C93.4455 87.1068 93.2313 86.4163 93.2313 85.4502ZM101.919 90.8438V80.8086H103.067L103.122 81.7451H103.163C103.345 81.4489 103.623 81.196 103.997 80.9863C104.375 80.7767 104.815 80.6719 105.316 80.6719C106.228 80.6719 106.957 81.0137 107.504 81.6973C108.051 82.3809 108.324 83.2467 108.324 84.2949V84.5137C108.324 85.5618 108.051 86.4277 107.504 87.1113C106.957 87.7949 106.228 88.1367 105.316 88.1367C104.815 88.1367 104.387 88.0479 104.031 87.8701C103.68 87.6878 103.4 87.4486 103.19 87.1523V90.8438H101.919ZM103.19 85.8672C103.332 86.1862 103.562 86.471 103.881 86.7217C104.2 86.9723 104.587 87.0977 105.043 87.0977C105.727 87.0977 106.228 86.8493 106.547 86.3525C106.866 85.8558 107.025 85.2428 107.025 84.5137V84.2949C107.025 83.5658 106.866 82.9528 106.547 82.4561C106.228 81.9593 105.727 81.7109 105.043 81.7109C104.587 81.7109 104.2 81.8363 103.881 82.0869C103.562 82.3376 103.332 82.6224 103.19 82.9414V85.8672Z" fill="black"/>
<path d="M53 26C53 30.98 48.98 35 44 35C39.02 35 35 30.98 35 26C35 21.02 39.02 17 44 17C48.98 17 53 21.02 53 26ZM62 59H26V53C26 46.37 34.07 41 44 41C53.93 41 62 46.37 62 53M86 35V41H59V35M86 23V29H59V23M86 11V17H59V11H86Z" fill="white"/>
</svg>
