<svg width="88" height="107" viewBox="0 0 88 107" fill="none" xmlns="http://www.w3.org/2000/svg">
<rect x="9" width="70" height="70" rx="10" fill="#F2692E"/>
<path d="M30.114 83.3379V82.709C30.114 81.1777 30.506 79.9837 31.2898 79.127C32.0782 78.2702 33.0945 77.8418 34.3386 77.8418C35.4643 77.8418 36.3461 78.1449 36.9841 78.751C37.6267 79.3525 37.9845 80.0635 38.0574 80.8838L38.0642 80.959H36.7517V80.8906C36.7517 80.4349 36.5398 79.9997 36.116 79.585C35.6921 79.1702 35.0951 78.9629 34.325 78.9629C33.4545 78.9629 32.755 79.2956 32.2263 79.9609C31.7022 80.6263 31.4402 81.5423 31.4402 82.709V83.3379C31.4402 84.5046 31.7022 85.4206 32.2263 86.0859C32.755 86.7513 33.4978 87.084 34.4548 87.084C34.9561 87.084 35.3891 87.0316 35.7537 86.9268C36.1183 86.8219 36.4646 86.6556 36.7927 86.4277V84.1035H34.3181V83.0234H38.0642V86.9062C37.7543 87.2253 37.2918 87.5215 36.6765 87.7949C36.0613 88.0684 35.3207 88.2051 34.4548 88.2051C33.1332 88.2051 32.0782 87.7767 31.2898 86.9199C30.506 86.0632 30.114 84.8691 30.114 83.3379ZM40.8661 88V80.8086H42.1376V88H40.8661ZM40.7089 78.6348C40.7089 78.4206 40.7773 78.2406 40.914 78.0947C41.0507 77.9489 41.2467 77.876 41.5019 77.876C41.7571 77.876 41.953 77.9489 42.0898 78.0947C42.2265 78.2406 42.2948 78.4206 42.2948 78.6348C42.2948 78.849 42.2265 79.029 42.0898 79.1748C41.953 79.3206 41.7571 79.3936 41.5019 79.3936C41.2467 79.3936 41.0507 79.3206 40.914 79.1748C40.7773 79.029 40.7089 78.849 40.7089 78.6348ZM44.0509 80.8086H45.2813L47.0177 85.6074C47.0815 85.7897 47.1339 85.9606 47.1749 86.1201C47.2205 86.2796 47.2524 86.4049 47.2706 86.4961H47.3116C47.3298 86.4049 47.3595 86.2796 47.4005 86.1201C47.446 85.9606 47.5007 85.7897 47.5645 85.6074L49.2872 80.8086H50.4903L47.7559 88H46.7852L44.0509 80.8086ZM51.8157 84.5137V84.2949C51.8157 83.2103 52.1119 82.3239 52.7043 81.6357C53.3013 80.9476 54.0898 80.6035 55.0696 80.6035C56.0494 80.6035 56.8036 80.9248 57.3323 81.5674C57.8609 82.21 58.1252 83.0781 58.1252 84.1719V84.6914H52.595V83.6797H56.8469V83.5156C56.8469 82.9961 56.6988 82.554 56.4026 82.1895C56.1064 81.8249 55.6802 81.6426 55.1243 81.6426C54.4498 81.6426 53.9462 81.9001 53.6135 82.415C53.2808 82.9255 53.1145 83.5521 53.1145 84.2949V84.5137C53.1145 85.2565 53.29 85.8854 53.6409 86.4004C53.9918 86.9108 54.5364 87.166 55.2747 87.166C55.7304 87.166 56.1223 87.0658 56.4504 86.8652C56.7786 86.6647 57.0452 86.4277 57.2502 86.1543L58.0705 86.8037C57.8427 87.1455 57.4895 87.4645 57.011 87.7607C56.537 88.057 55.9582 88.2051 55.2747 88.2051C54.1581 88.2051 53.3013 87.861 52.7043 87.1729C52.1119 86.4847 51.8157 85.5983 51.8157 84.5137ZM0.825314 101.279V101.197H2.13781V101.279C2.13781 101.881 2.34061 102.332 2.74621 102.633C3.15181 102.934 3.71919 103.084 4.44836 103.084C5.17753 103.084 5.7358 102.929 6.12317 102.619C6.51053 102.309 6.70422 101.904 6.70422 101.402C6.70422 100.947 6.51509 100.582 6.13684 100.309C5.76314 100.035 5.05448 99.748 4.01086 99.4473C2.92623 99.1328 2.15832 98.766 1.70715 98.3467C1.25598 97.9229 1.03039 97.3236 1.03039 96.5488C1.03039 95.7741 1.32662 95.1292 1.91906 94.6143C2.51151 94.0993 3.33182 93.8418 4.38 93.8418C5.42818 93.8418 6.26216 94.113 6.88195 94.6553C7.50175 95.1976 7.81164 95.888 7.81164 96.7266V96.8086H6.49914V96.7266C6.49914 96.1979 6.32141 95.7718 5.96594 95.4482C5.61047 95.1247 5.08182 94.9629 4.38 94.9629C3.67818 94.9629 3.16093 95.1019 2.82824 95.3799C2.49556 95.6579 2.32922 96.0361 2.32922 96.5146C2.32922 96.9476 2.50012 97.2894 2.84192 97.54C3.18371 97.7907 3.88781 98.0664 4.95422 98.3672C6.02063 98.668 6.79537 99.0439 7.27844 99.4951C7.76151 99.9463 8.00305 100.582 8.00305 101.402C8.00305 102.223 7.68404 102.895 7.04602 103.419C6.408 103.943 5.54211 104.205 4.44836 104.205C3.35461 104.205 2.47733 103.943 1.81652 103.419C1.15572 102.895 0.825314 102.182 0.825314 101.279ZM10.3333 101.45V96.8086H11.6048V101.464C11.6048 102.038 11.7324 102.451 11.9876 102.701C12.2473 102.947 12.6142 103.07 13.0882 103.07C13.4938 103.07 13.8515 102.961 14.1614 102.742C14.4713 102.523 14.7128 102.241 14.886 101.895V96.8086H16.1575V104H15.0091L14.9544 103.077H14.9134C14.6536 103.405 14.3346 103.665 13.9563 103.856C13.5826 104.043 13.1679 104.137 12.7122 104.137C11.9876 104.137 11.4088 103.932 10.9759 103.521C10.5475 103.107 10.3333 102.416 10.3333 101.45ZM19.0209 106.844V96.8086H20.1694L20.2241 97.7451H20.2651C20.4474 97.4489 20.7254 97.196 21.0991 96.9863C21.4773 96.7767 21.9171 96.6719 22.4184 96.6719C23.3299 96.6719 24.059 97.0137 24.6059 97.6973C25.1528 98.3809 25.4262 99.2467 25.4262 100.295V100.514C25.4262 101.562 25.1528 102.428 24.6059 103.111C24.059 103.795 23.3299 104.137 22.4184 104.137C21.9171 104.137 21.4887 104.048 21.1332 103.87C20.7823 103.688 20.5021 103.449 20.2924 103.152V106.844H19.0209ZM20.2924 101.867C20.4337 102.186 20.6638 102.471 20.9829 102.722C21.3019 102.972 21.6892 103.098 22.145 103.098C22.8286 103.098 23.3299 102.849 23.6489 102.353C23.9679 101.856 24.1274 101.243 24.1274 100.514V100.295C24.1274 99.5658 23.9679 98.9528 23.6489 98.4561C23.3299 97.9593 22.8286 97.7109 22.145 97.7109C21.6892 97.7109 21.3019 97.8363 20.9829 98.0869C20.6638 98.3376 20.4337 98.6224 20.2924 98.9414V101.867ZM27.859 106.844V96.8086H29.0074L29.0621 97.7451H29.1031C29.2854 97.4489 29.5634 97.196 29.9371 96.9863C30.3154 96.7767 30.7551 96.6719 31.2564 96.6719C32.1679 96.6719 32.8971 97.0137 33.4439 97.6973C33.9908 98.3809 34.2643 99.2467 34.2643 100.295V100.514C34.2643 101.562 33.9908 102.428 33.4439 103.111C32.8971 103.795 32.1679 104.137 31.2564 104.137C30.7551 104.137 30.3268 104.048 29.9713 103.87C29.6204 103.688 29.3401 103.449 29.1305 103.152V106.844H27.859ZM29.1305 101.867C29.2717 102.186 29.5019 102.471 29.8209 102.722C30.1399 102.972 30.5273 103.098 30.983 103.098C31.6666 103.098 32.1679 102.849 32.4869 102.353C32.8059 101.856 32.9654 101.243 32.9654 100.514V100.295C32.9654 99.5658 32.8059 98.9528 32.4869 98.4561C32.1679 97.9593 31.6666 97.7109 30.983 97.7109C30.5273 97.7109 30.1399 97.8363 29.8209 98.0869C29.5019 98.3376 29.2717 98.6224 29.1305 98.9414V101.867ZM36.7517 104V93.5H38.0232V104H36.7517ZM41.0234 103.296C41.0234 103.059 41.0986 102.858 41.2489 102.694C41.4039 102.526 41.6249 102.441 41.912 102.441C42.1991 102.441 42.4179 102.526 42.5683 102.694C42.7232 102.858 42.8007 103.059 42.8007 103.296C42.8007 103.533 42.7232 103.736 42.5683 103.904C42.4179 104.068 42.1991 104.15 41.912 104.15C41.6249 104.15 41.4039 104.068 41.2489 103.904C41.0986 103.736 41.0234 103.533 41.0234 103.296ZM49.6077 101.279V101.197H50.9202V101.279C50.9202 101.881 51.123 102.332 51.5286 102.633C51.9342 102.934 52.5015 103.084 53.2307 103.084C53.9599 103.084 54.5181 102.929 54.9055 102.619C55.2929 102.309 55.4866 101.904 55.4866 101.402C55.4866 100.947 55.2974 100.582 54.9192 100.309C54.5455 100.035 53.8368 99.748 52.7932 99.4473C51.7086 99.1328 50.9407 98.766 50.4895 98.3467C50.0383 97.9229 49.8127 97.3236 49.8127 96.5488C49.8127 95.7741 50.109 95.1292 50.7014 94.6143C51.2939 94.0993 52.1142 93.8418 53.1623 93.8418C54.2105 93.8418 55.0445 94.113 55.6643 94.6553C56.2841 95.1976 56.594 95.888 56.594 96.7266V96.8086H55.2815V96.7266C55.2815 96.1979 55.1038 95.7718 54.7483 95.4482C54.3928 95.1247 53.8642 94.9629 53.1623 94.9629C52.4605 94.9629 51.9433 95.1019 51.6106 95.3799C51.2779 95.6579 51.1116 96.0361 51.1116 96.5146C51.1116 96.9476 51.2825 97.2894 51.6243 97.54C51.9661 97.7907 52.6702 98.0664 53.7366 98.3672C54.803 98.668 55.5777 99.0439 56.0608 99.4951C56.5439 99.9463 56.7854 100.582 56.7854 101.402C56.7854 102.223 56.4664 102.895 55.8284 103.419C55.1903 103.943 54.3245 104.205 53.2307 104.205C52.137 104.205 51.2597 103.943 50.5989 103.419C49.9381 102.895 49.6077 102.182 49.6077 101.279ZM59.184 104V93.5H60.4555V97.6973C60.7107 97.3874 61.0342 97.139 61.4262 96.9521C61.8181 96.7653 62.2465 96.6719 62.7113 96.6719C63.3813 96.6719 63.9304 96.8792 64.3588 97.2939C64.7917 97.7041 65.0082 98.3923 65.0082 99.3584V104H63.7367V99.3447C63.7367 98.7705 63.6068 98.3604 63.3471 98.1143C63.0919 97.8636 62.7273 97.7383 62.2533 97.7383C61.8477 97.7383 61.49 97.8477 61.1801 98.0664C60.8702 98.2852 60.6286 98.5677 60.4555 98.9141V104H59.184ZM67.3726 100.514V100.295C67.3726 99.2103 67.6688 98.3239 68.2613 97.6357C68.8583 96.9476 69.6467 96.6035 70.6265 96.6035C71.6063 96.6035 72.3606 96.9248 72.8892 97.5674C73.4179 98.21 73.6822 99.0781 73.6822 100.172V100.691H68.1519V99.6797H72.4039V99.5156C72.4039 98.9961 72.2558 98.554 71.9595 98.1895C71.6633 97.8249 71.2372 97.6426 70.6812 97.6426C70.0067 97.6426 69.5032 97.9001 69.1705 98.415C68.8378 98.9255 68.6714 99.5521 68.6714 100.295V100.514C68.6714 101.257 68.8469 101.885 69.1978 102.4C69.5487 102.911 70.0933 103.166 70.8316 103.166C71.2873 103.166 71.6793 103.066 72.0074 102.865C72.3355 102.665 72.6021 102.428 72.8072 102.154L73.6275 102.804C73.3996 103.146 73.0464 103.465 72.5679 103.761C72.094 104.057 71.5152 104.205 70.8316 104.205C69.7151 104.205 68.8583 103.861 68.2613 103.173C67.6688 102.485 67.3726 101.598 67.3726 100.514ZM75.6501 100.514V100.295C75.6501 99.2103 75.9463 98.3239 76.5388 97.6357C77.1358 96.9476 77.9242 96.6035 78.904 96.6035C79.8838 96.6035 80.6381 96.9248 81.1667 97.5674C81.6954 98.21 81.9597 99.0781 81.9597 100.172V100.691H76.4294V99.6797H80.6814V99.5156C80.6814 98.9961 80.5333 98.554 80.237 98.1895C79.9408 97.8249 79.5147 97.6426 78.9587 97.6426C78.2842 97.6426 77.7806 97.9001 77.448 98.415C77.1153 98.9255 76.9489 99.5521 76.9489 100.295V100.514C76.9489 101.257 77.1244 101.885 77.4753 102.4C77.8262 102.911 78.3708 103.166 79.1091 103.166C79.5648 103.166 79.9568 103.066 80.2849 102.865C80.613 102.665 80.8796 102.428 81.0847 102.154L81.905 102.804C81.6771 103.146 81.3239 103.465 80.8454 103.761C80.3715 104.057 79.7927 104.205 79.1091 104.205C77.9926 104.205 77.1358 103.861 76.5388 103.173C75.9463 102.485 75.6501 101.598 75.6501 100.514ZM83.3466 97.7793V96.8086H87.4481V97.7793H83.3466ZM84.6317 102.223V97.3965V97.1914V95.0312H85.9032V102.223C85.9032 102.542 85.967 102.77 86.0946 102.906C86.2222 103.043 86.4227 103.111 86.6962 103.111C86.8238 103.111 86.9491 103.098 87.0721 103.07C87.1952 103.043 87.3205 103.007 87.4481 102.961V104C87.3296 104.055 87.1747 104.103 86.9833 104.144C86.7919 104.185 86.5822 104.205 86.3544 104.205C85.8303 104.205 85.411 104.046 85.0966 103.727C84.7867 103.408 84.6317 102.906 84.6317 102.223Z" fill="black"/>
<path d="M44 8.75C37.0642 8.83416 30.4362 11.6268 25.5315 16.5315C20.6268 21.4362 17.8342 28.0642 17.75 35C17.8342 41.9358 20.6268 48.5638 25.5315 53.4685C30.4362 58.3732 37.0642 61.1658 44 61.25C50.9358 61.1658 57.5638 58.3732 62.4685 53.4685C67.3732 48.5638 70.1658 41.9358 70.25 35C70.1658 28.0642 67.3732 21.4362 62.4685 16.5315C57.5638 11.6268 50.9358 8.83416 44 8.75ZM59 36.875H45.875V50H42.125V36.875H29V33.125H42.125V20H45.875V33.125H59V36.875Z" fill="white"/>
</svg>
